<?xml version="1.0" encoding="UTF-8" standalone="no"?>
<svg
   xmlns:dc="http://purl.org/dc/elements/1.1/"
   xmlns:cc="http://creativecommons.org/ns#"
   xmlns:rdf="http://www.w3.org/1999/02/22-rdf-syntax-ns#"
   xmlns:svg="http://www.w3.org/2000/svg"
   xmlns="http://www.w3.org/2000/svg"
   xmlns:sodipodi="http://sodipodi.sourceforge.net/DTD/sodipodi-0.dtd"
   xmlns:inkscape="http://www.inkscape.org/namespaces/inkscape"
   sodipodi:docname="Royco (2020).svg"
   inkscape:version="1.0 (4035a4fb49, 2020-05-01)"
   id="svg8"
   version="1.1"
   viewBox="0 0 159.08995 131.76239"
   height="497.9996"
   width="601.28485">
  <defs
     id="defs2" />
  <sodipodi:namedview
     units="px"
     inkscape:window-maximized="1"
     inkscape:window-y="-8"
     inkscape:window-x="-8"
     inkscape:window-height="715"
     inkscape:window-width="1366"
     showgrid="false"
     inkscape:document-rotation="0"
     inkscape:current-layer="layer1"
     inkscape:document-units="px"
     inkscape:cy="-662.9188"
     inkscape:cx="-758.98271"
     inkscape:zoom="0.11313708"
     inkscape:pageshadow="2"
     inkscape:pageopacity="0.0"
     borderopacity="1.0"
     bordercolor="#666666"
     pagecolor="#ffffff"
     id="base" />
  <metadata
     id="metadata5">
    <rdf:RDF>
      <cc:Work
         rdf:about="">
        <dc:format>image/svg+xml</dc:format>
        <dc:type
           rdf:resource="http://purl.org/dc/dcmitype/StillImage" />
        <dc:title></dc:title>
      </cc:Work>
    </rdf:RDF>
  </metadata>
  <g
     transform="translate(-116.76564,-120.38289)"
     id="layer1"
     inkscape:groupmode="layer"
     inkscape:label="Layer 1">
    <path
       id="path16"
       style="fill:#ffffff;fill-opacity:1;fill-rule:evenodd;stroke:none;stroke-width:0.0668875"
       d="m 117.13661,218.41022 c 0,-9.75748 -0.03,-19.51524 0.0102,-29.27194 0.023,-5.15181 0.63412,-10.23661 2.18272,-15.17894 2.10018,-6.70548 5.91406,-12.26985 11.206,-16.85299 3.85601,-3.33837 8.14644,-6.02056 12.67158,-8.3362 6.59573,-3.37381 13.55364,-5.73627 20.75369,-7.41182 4.41772,-1.02939 8.88039,-1.83338 13.39056,-2.32233 3.23702,-0.35183 6.48394,-0.64213 9.7296,-0.89228 4.52629,-0.34916 9.06125,-0.38661 13.60092,-0.39664 3.537,-0.0101 7.07336,-0.0555 10.60703,-0.14515 3.10894,-0.0776 6.21854,-0.18193 9.32012,-0.37457 3.93098,-0.24481 7.85929,-0.53176 11.78292,-0.90366 4.93696,-0.46955 9.84987,-1.15982 14.71795,-2.13303 5.54164,-1.109 10.98828,-2.53973 16.16672,-4.85739 2.75242,-1.23072 5.35768,-2.70961 7.68605,-4.64534 1.31501,-1.09629 2.49357,-2.31966 3.49488,-3.71093 0.11237,-0.15516 0.21938,-0.3351 0.37255,-0.43208 0.16455,-0.10302 0.41739,-0.20268 0.57191,-0.14516 0.14447,0.0549 0.24279,0.30702 0.309,0.48962 0.0482,0.13245 0.0161,0.29498 0.0161,0.44481 0,16.12794 0,32.25587 -0.004,48.3818 0,3.77378 -0.21938,7.5369 -0.67087,11.28326 -0.68493,5.66472 -1.91098,11.19832 -4.06876,16.49996 -2.14977,5.28727 -5.12695,10.03962 -9.13752,14.1258 -3.81929,3.89097 -8.26463,6.88474 -13.18957,9.19316 -4.57243,2.1396 -9.36225,3.61788 -14.27783,4.71945 -3.88817,0.869 -7.81581,1.49086 -11.77154,1.95044 -3.53367,0.40942 -7.07805,0.69423 -10.62911,0.89704 -5.04264,0.28895 -10.08732,0.35189 -15.13665,0.38668 -3.21462,0.0202 -6.43393,0.093 -9.6432,0.27691 -3.56844,0.2046 -7.13964,0.48754 -10.69385,0.87482 -9.96203,1.089 -19.78433,2.93965 -29.38164,5.86671 -5.8966,1.79453 -11.64059,3.97773 -17.08222,6.89938 -3.00967,1.61863 -5.89888,3.42616 -8.46129,5.69877 -1.09632,0.97197 -2.08292,2.06829 -3.11914,3.10714 -0.18002,0.18263 -0.34228,0.38984 -0.54686,0.52909 -0.36006,0.24535 -0.68691,0.10503 -0.75642,-0.3164 -0.0402,-0.22759 -0.0206,-0.46692 -0.0206,-0.70181 0,-10.86454 0,-21.73035 0,-32.59618" />
    <path
       id="path935"
       d="m 224.95917,164.34666 c 0,-0.1402 0.077,-0.51405 0.17101,-0.83077 0.21774,-0.73324 0.71862,-1.23961 1.90046,-1.92128 0.91749,-0.52922 1.18713,-0.85413 1.0399,-1.25307 -0.10193,-0.27623 -0.25459,-0.35479 -0.6922,-0.35624 -0.47895,-0.002 -1.05359,0.33885 -1.29848,0.76924 -0.10231,0.17979 -0.21264,0.32721 -0.24519,0.3276 -0.0326,3.3e-4 -0.24406,-0.22049 -0.47005,-0.49083 l -0.41086,-0.49152 0.39457,-0.43673 c 0.55785,-0.61748 1.17619,-0.88943 2.02227,-0.88943 0.89471,0 1.4592,0.29857 1.76713,0.93465 0.55922,1.15521 0.10103,2.00741 -1.61648,3.00656 -0.43548,0.25333 -0.82188,0.50934 -0.8587,0.56891 -0.0427,0.0691 0.49227,0.10828 1.47904,0.10828 h 1.54596 v 0.6048 0.60479 h -2.36419 -2.36419 z"
       style="fill:#ec0e27;fill-opacity:1;stroke-width:0.109962" />
    <path
       id="path933"
       d="m 219.90092,164.55681 c 0,-0.0247 0.46581,-1.02667 1.03516,-2.22674 l 1.03516,-2.18193 -1.47501,-0.0306 -1.47501,-0.0306 v -0.60168 -0.60169 h 2.30921 2.3092 l 0.002,0.41236 c 0.001,0.30083 -0.31663,1.07411 -1.17548,2.85901 l -1.17728,2.44666 H 220.595 c -0.38164,0 -0.69387,-0.0202 -0.69387,-0.0448 z"
       style="fill:#ec0e27;fill-opacity:1;stroke-width:0.109962" />
    <path
       id="path931"
       d="m 209.64954,162.70477 c -0.0301,-1.89647 -0.0302,-1.89684 -0.2775,-1.86244 -0.23116,0.0322 -0.24741,-0.006 -0.24741,-0.58002 0,-0.55422 0.0269,-0.62468 0.2749,-0.71895 0.19304,-0.0734 0.27491,-0.18719 0.27491,-0.38215 0,-0.25985 0.0351,-0.27762 0.54981,-0.27762 h 0.5498 v 2.85916 2.85902 h -0.54721 -0.54721 z"
       style="fill:#ec0e27;fill-opacity:1;stroke-width:0.109962" />
    <path
       id="path929"
       d="m 197.02879,161.7426 v -2.85901 h 2.14427 2.14425 v 0.60479 0.60479 h -1.53947 -1.53947 v 0.49482 0.49485 h 1.04465 1.04464 v 0.60478 0.60479 h -1.04464 -1.04465 v 0.54981 0.54981 h 1.59445 1.59445 v 0.6048 0.60479 h -2.19925 -2.19923 z"
       style="fill:#ec0e27;fill-opacity:1;stroke-width:0.109962" />
    <path
       id="path927"
       d="m 182.84367,161.7426 v -2.85901 h 0.57754 0.57754 l 1.26433,1.65005 1.26432,1.65005 0.0304,-1.65005 0.0304,-1.65005 h 0.60192 0.60194 v 2.85916 2.85902 l -0.57731,-0.006 -0.5773,-0.006 -1.26456,-1.67087 -1.26457,-1.67086 -0.0304,1.67692 -0.0304,1.67692 h -0.60191 -0.60194 z"
       style="fill:#ec0e27;fill-opacity:1;stroke-width:0.109962" />
    <path
       id="path925"
       d="m 178.88504,161.73711 v -2.8645 l 0.63227,0.033 0.63229,0.0329 0.0294,2.83153 0.0294,2.83152 h -0.66164 -0.66162 z"
       style="fill:#ec0e27;fill-opacity:1;stroke-width:0.109962" />
    <path
       d="m 214.1279,164.55848 c -0.41447,-0.13041 -0.68569,-0.25929 -1.02666,-0.48787 -0.11811,-0.0792 -0.0898,-0.2115 0.14465,-0.67399 0.26518,-0.5233 0.30839,-0.56076 0.47684,-0.41325 0.37672,0.3299 0.90416,0.51862 1.44934,0.51862 0.44825,0 0.61425,-0.054 0.83018,-0.2699 0.32126,-0.32126 0.37063,-0.67462 0.0775,-0.55442 -1.18601,0.48623 -2.6992,-0.161 -3.00155,-1.28384 -0.34745,-1.29029 0.45789,-2.46526 1.83082,-2.67115 1.04098,-0.1561 1.98351,0.36691 2.44857,1.35873 0.25182,0.53697 0.28912,0.75849 0.28912,1.71618 0,1.0281 -0.0223,1.13895 -0.34256,1.7044 -0.59805,1.05587 -1.85226,1.47305 -3.17623,1.05649 z m 1.89157,-3.27659 c 0.41448,-0.38939 0.32212,-0.98034 -0.19502,-1.24777 -0.9671,-0.5001 -1.95536,0.39477 -1.3657,1.23665 0.29479,0.42084 1.11834,0.42672 1.56072,0.0112 z"
       style="fill:#ec0e27;fill-opacity:1;stroke-width:0.109962"
       id="path921" />
    <path
       id="path919"
       d="m 191.7191,164.5614 c -0.66335,-0.18602 -1.26396,-0.66452 -1.61792,-1.28901 -0.23718,-0.41845 -0.27481,-0.6208 -0.27412,-1.47465 8.3e-4,-0.80384 0.0456,-1.07366 0.23945,-1.43702 0.31717,-0.59449 1.01965,-1.21492 1.53886,-1.3591 0.92778,-0.25762 2.35774,-0.0557 2.99159,0.42238 l 0.25507,0.1924 -0.29333,0.57888 c -0.27134,0.53545 -0.30755,0.56603 -0.48261,0.40759 -0.5678,-0.51384 -1.69477,-0.65864 -2.29202,-0.29447 -0.5387,0.32847 -0.74475,0.72404 -0.74318,1.42671 0.002,1.08047 0.57233,1.65707 1.6379,1.65707 0.52101,0 1.22342,-0.28239 1.48431,-0.59676 0.22171,-0.26713 0.32008,-0.21275 0.57889,0.31993 l 0.23947,0.49291 -0.25172,0.26795 c -0.58822,0.62613 -2.04162,0.9569 -3.01064,0.68519 z"
       style="fill:#ec0e27;fill-opacity:1;stroke-width:0.109962" />
    <path
       id="path917"
       d="m 173.09484,164.59722 c -0.45813,-0.0907 -1.29854,-0.46853 -1.39254,-0.62617 -0.0276,-0.0462 0.0655,-0.34455 0.20694,-0.66296 l 0.25709,-0.57891 0.48285,0.34034 c 0.36881,0.25996 0.63632,0.35253 1.13262,0.39193 0.79113,0.0627 1.18445,-0.10898 1.23437,-0.5391 0.0414,-0.35752 -0.2744,-0.51982 -1.01165,-0.51982 -0.6742,0 -1.5236,-0.28166 -1.82865,-0.60636 -0.39735,-0.42295 -0.44501,-1.50264 -0.0898,-2.03274 0.14187,-0.21168 0.48022,-0.49969 0.75189,-0.64003 0.83571,-0.43174 2.48072,-0.23907 3.38996,0.39702 0.11874,0.0831 0.0935,0.20854 -0.13207,0.65346 l -0.27902,0.55064 -0.62569,-0.3156 c -0.98137,-0.49502 -2.13415,-0.40123 -2.13415,0.17362 0,0.27433 0.32947,0.41349 1.23435,0.52137 1.64501,0.19612 2.10589,0.61232 2.03663,1.83916 -0.0379,0.67159 -0.0622,0.72537 -0.50591,1.11909 -0.65907,0.58488 -1.57107,0.7638 -2.72727,0.53506 z"
       style="fill:#ec0e27;fill-opacity:1;stroke-width:0.109962" />
    <path
       d="m 262.92142,183.68169 c -2.64667,-0.74468 -4.25924,-3.4381 -3.6474,-6.0921 0.57962,-2.51418 3.15229,-4.25996 5.68389,-3.85701 3.07455,0.48938 5.00688,3.56414 4.09507,6.5162 -0.45665,1.47849 -1.62357,2.72898 -3.0532,3.27189 -0.81798,0.31063 -2.27566,0.38688 -3.07836,0.16102 z m 2.86097,-1.0452 c 1.4165,-0.52999 2.48718,-2.00636 2.58739,-3.56782 0.1607,-2.50402 -1.67359,-4.48393 -4.15411,-4.48393 -2.45951,0 -4.29892,1.95154 -4.1566,4.40997 0.16648,2.87589 2.98202,4.66743 5.72332,3.64178 z m -3.76597,-3.86499 v -2.76444 l 1.51417,0.0545 c 1.12398,0.0404 1.60695,0.10245 1.87422,0.24066 1.14463,0.5919 0.98228,2.27238 -0.26305,2.72271 l -0.35137,0.12704 0.30805,0.25921 c 0.2698,0.22703 1.42644,1.90042 1.42644,2.06373 0,0.0336 -0.24452,0.061 -0.54338,0.061 h -0.54336 l -0.35582,-0.66761 c -0.1957,-0.36717 -0.53261,-0.86671 -0.74869,-1.1101 -0.32773,-0.36917 -0.47948,-0.45228 -0.91518,-0.50132 l -0.52234,-0.0588 v 1.1689 1.16892 h -0.43984 -0.43985 z m 2.95751,-0.57897 c 0.32198,-0.29147 0.31285,-0.88667 -0.017,-1.10273 -0.13655,-0.0895 -0.65613,-0.1967 -1.15461,-0.23827 l -0.9063,-0.0756 v 0.85181 0.85181 l 0.92321,-0.0387 c 0.71613,-0.0301 0.97512,-0.0858 1.15461,-0.24826 z"
       style="fill:#ec0e27;fill-opacity:1;stroke-width:0.109962"
       id="path909" />
    <path
       id="path907"
       d="m 116.8213,186.3193 c 0.27939,-7.17701 1.97941,-13.97352 4.79311,-19.1623 3.09926,-5.71541 7.57442,-10.4031 14.0555,-14.723 12.673,-8.44708 29.16294,-13.38141 49.53795,-14.82338 4.77616,-0.33803 6.61851,-0.39671 15.66961,-0.49921 9.47161,-0.10725 13.47382,-0.21235 18.96847,-0.49808 25.48602,-1.32532 42.28275,-5.41722 50.91247,-12.40292 0.86988,-0.70417 2.48014,-2.30524 3.28235,-3.26362 l 0.41419,-0.49482 -0.35048,0.71475 c -2.60898,5.32055 -6.62776,10.0594 -11.81314,13.92979 -7.85049,5.85964 -19.29485,10.12547 -33.55467,12.50737 -9.18269,1.53383 -16.76543,2.16318 -31.26803,2.59519 -28.05363,0.83566 -46.10163,4.17007 -59.55221,11.00241 -4.89366,2.48578 -8.34205,4.96125 -11.92335,8.55932 -5.19921,5.22356 -8.10216,10.67349 -9.08363,17.05332 l -0.1438,0.93468 z"
       style="fill:#fdc627;fill-opacity:1;stroke-width:0.109962" />
    <path
       d="m 129.84191,215.10445 c -0.53015,-0.26863 -0.72104,-0.8446 -0.55656,-1.67949 0.15689,-0.79648 3.61217,-10.90561 5.64711,-16.52181 0.66566,-1.83714 0.69356,-1.95187 0.47492,-1.95244 -0.46749,-10e-4 -1.07249,-0.23961 -1.4505,-0.57152 -0.5694,-0.49994 -0.7461,-0.91156 -0.74895,-1.74467 -0.006,-1.77958 1.52108,-3.25626 3.76566,-3.64116 l 0.75912,-0.13018 0.24879,-0.72214 c 0.13682,-0.39717 0.76131,-2.14409 1.38775,-3.88203 0.62645,-1.73794 1.13899,-3.18181 1.13899,-3.20859 0,-0.16043 -1.40943,-0.30315 -2.5253,-0.25573 -1.56406,0.0664 -2.74562,0.39133 -4.45729,1.22559 -2.0545,1.00133 -3.68554,2.31785 -5.0743,4.09584 -0.93907,1.20227 -1.37886,1.5777 -1.84814,1.5777 -0.52356,0 -0.70456,-0.0912 -0.88894,-0.44771 -0.24103,-0.46609 -0.19709,-0.97052 0.17813,-2.04516 1.80613,-5.1728 6.91328,-9.42336 12.87363,-10.71447 1.22681,-0.26574 3.43713,-0.34564 4.8245,-0.17439 l 0.71811,0.0887 0.95749,-1.15182 c 1.70179,-2.0472 3.61933,-3.5808 5.85346,-4.68143 3.919,-1.93066 7.63008,-2.0679 10.40289,-0.38471 2.39475,1.45369 3.59096,4.56222 3.02277,7.85506 -0.7082,4.10431 -3.00893,7.35471 -7.10283,10.0347 -2.12078,1.38831 -5.68033,2.98904 -8.64658,3.88836 l -1.0042,0.30445 0.74361,0.52224 c 0.40901,0.28723 1.72088,1.45291 2.91528,2.5904 2.47154,2.35379 3.0766,2.84309 4.22678,3.41811 0.77389,0.38689 0.87691,0.40946 1.86937,0.40946 0.93504,0 1.12276,-0.0351 1.71011,-0.31973 1.75511,-0.85052 4.13896,-4.16947 6.76859,-9.42375 1.42566,-2.8486 2.60291,-4.9686 3.42948,-6.17582 1.91481,-2.79659 4.27854,-4.75214 6.72442,-5.56317 1.79277,-0.59447 3.28542,-0.57943 4.68166,0.0472 0.63165,0.28345 0.64158,0.28431 1.00793,0.0861 0.27032,-0.14629 0.60704,-0.20015 1.24971,-0.19988 1.04702,4.2e-4 1.52603,0.20897 2.2271,0.96953 0.50214,0.54476 0.74861,1.04669 0.92615,1.88605 0.15261,0.72152 0.39174,1.116 0.77202,1.27351 0.80736,0.33443 1.56199,-0.21239 3.67495,-2.66292 0.88587,-1.02741 1.91341,-2.11395 2.28342,-2.41454 1.2974,-1.05402 2.56576,-1.49967 3.9406,-1.38453 1.33125,0.11148 2.27144,0.74779 2.79516,1.89174 0.97445,2.12848 0.49098,5.37534 -1.71896,11.5439 -0.84982,2.37214 -1.1002,3.32899 -1.1002,4.20473 0,1.13167 0.33597,1.56828 1.20674,1.56828 1.85001,0 4.16305,-3.46168 5.99048,-8.96532 0.22026,-0.6634 0.69495,-2.41851 1.05484,-3.90025 1.05545,-4.34546 1.28244,-4.94032 2.19064,-5.74073 0.50977,-0.44925 2.2656,-1.35914 3.24222,-1.68012 0.88288,-0.29019 1.86689,-0.34295 2.20946,-0.11851 0.42715,0.2799 0.63795,0.87593 0.5561,1.57237 -0.0374,0.31884 -0.53345,2.02688 -1.10215,3.79567 -1.53467,4.77309 -2.09522,6.78967 -4.01168,14.4321 -1.0574,4.21671 -1.71575,6.42997 -2.37136,7.97226 -1.99111,4.68387 -4.47778,7.09571 -8.30551,8.05556 -0.75801,0.19008 -1.27763,0.23554 -2.74906,0.24049 -2.04801,0.007 -3.34898,-0.18415 -5.00328,-0.73468 -3.5664,-1.18685 -6.2918,-3.75372 -5.17321,-4.87229 0.38499,-0.38499 1.13166,-0.36611 2.19289,0.0555 3.61338,1.43539 7.60873,1.21604 10.3654,-0.56906 1.72937,-1.11986 2.7169,-2.52991 3.71841,-5.3094 0.19613,-0.54433 0.39203,-1.13683 0.43534,-1.31669 0.0748,-0.31057 0.0465,-0.29632 -0.56182,0.28309 -2.0387,1.94182 -4.05188,2.83364 -6.12118,2.71164 -1.22393,-0.0722 -2.00491,-0.38985 -2.82504,-1.14914 -1.24356,-1.15132 -1.82466,-2.85255 -1.72062,-5.03735 0.0965,-2.02492 0.43604,-3.30428 1.78061,-6.70769 1.97252,-4.99285 2.21789,-6.43173 1.1123,-6.52264 -0.52247,-0.0429 -0.66683,0.0818 -1.82259,1.57433 -1.39961,1.80754 -2.70744,2.88845 -3.93114,3.24911 -0.45778,0.13492 -0.4619,0.1408 -0.52872,0.75265 -0.39046,3.57496 -1.27276,6.28642 -2.9291,9.00165 -1.10002,1.80328 -3.24953,4.10177 -4.78761,5.11944 -2.57657,1.70481 -5.71811,2.47969 -8.17238,2.01576 -2.95353,-0.5583 -4.97366,-2.91867 -5.26218,-6.14847 l -0.071,-0.79467 -1.20323,2.08928 c -1.54419,2.68135 -2.54184,4.26107 -3.47225,5.49811 -2.29693,3.0539 -4.35396,4.25561 -7.01172,4.09615 -2.76182,-0.16569 -4.75473,-2.03486 -7.32528,-6.87044 -1.52494,-2.86863 -2.2623,-4.01871 -2.94474,-4.59294 l -0.35674,-0.30018 -0.24515,0.75476 c -0.13484,0.41512 -1.2914,4.02064 -2.57014,8.01226 -1.29323,4.03684 -2.47944,7.54898 -2.67303,7.91431 -0.41308,0.7796 -1.27718,1.68572 -2.29571,2.4074 -1.59377,1.12922 -3.84209,2.27231 -4.76629,2.42323 -0.3101,0.0506 -0.54317,0.0154 -0.81844,-0.12421 z m 46.1139,-19.64356 c 1.13997,-0.66806 2.28399,-2.16706 3.17102,-4.15492 1.05674,-2.36823 1.70331,-4.7627 1.80678,-6.6911 l 0.0619,-1.15459 -0.41543,-0.27491 c -0.55843,-0.36954 -1.21182,-1.40539 -1.37142,-2.17419 -0.11942,-0.57528 -0.0836,-1.53249 0.0726,-1.9396 0.0968,-0.25228 -0.49458,-0.12931 -1.36101,0.283 -2.20281,1.04828 -4.19594,4.39518 -5.30032,8.90039 -0.59701,2.43549 -0.70387,4.72172 -0.27777,5.9436 0.20347,0.5835 0.72546,1.21894 1.20961,1.4725 0.51973,0.2722 1.76687,0.16315 2.40393,-0.21018 z m -28.40319,-8.82271 c 2.15544,-0.90377 4.35342,-2.41794 5.989,-4.12573 1.57637,-1.64594 2.36577,-2.95765 2.79866,-4.65035 0.70163,-2.74352 -0.32615,-4.62364 -2.42357,-4.43345 -0.984,0.0893 -1.77425,0.52088 -2.74558,1.49972 -1.85587,1.87021 -3.35521,4.81394 -5.11839,10.04918 -0.44887,1.33279 -0.81612,2.43703 -0.81612,2.45387 0,0.0801 1.27341,-0.35608 2.316,-0.79324 z m 71.52359,8.9016 c -1.99462,-0.4233 -3.58789,-1.69037 -4.48885,-3.56979 -1.1016,-2.29792 -1.29873,-4.9221 -0.60936,-8.11121 1.20704,-5.58381 5.13922,-11.15147 9.38672,-13.29079 4.1591,-2.09481 8.3874,-0.77988 9.3477,2.90699 0.68451,2.628 -0.71876,6.15116 -2.85993,7.18036 -0.76995,0.3701 -2.3161,0.39046 -2.96897,0.0391 -0.87037,-0.4684 -1.26526,-1.158 -1.26349,-2.20641 10e-4,-0.82845 0.3678,-1.61995 1.07927,-2.33142 0.5213,-0.52131 1.48773,-1.10844 1.82452,-1.10844 0.43575,0 0.39869,-0.90132 -0.057,-1.38637 -0.75454,-0.80319 -2.30597,-0.47869 -3.68714,0.7712 -3.10767,2.81229 -5.30185,10.78975 -3.88001,14.10675 0.3408,0.79506 0.9056,1.41029 1.61408,1.7582 0.57245,0.28111 0.73828,0.30957 1.78566,0.30658 1.04093,-0.003 1.23161,-0.0365 1.93673,-0.34035 2.07366,-0.89366 4.2404,-2.93843 6.33587,-5.97917 0.96702,-1.40328 2.13639,-3.47702 4.15446,-7.36747 2.44265,-4.70899 3.29157,-6.01666 5.16498,-7.95606 1.31453,-1.36084 2.10257,-1.95973 3.35575,-2.55021 2.27205,-1.07058 4.18994,-1.1901 5.93492,-0.36986 0.5039,0.23685 0.51139,0.2371 0.96745,0.0319 0.6123,-0.27562 1.96521,-0.28062 2.47042,-0.009 0.94087,0.5056 1.49101,1.21907 1.96121,2.54358 0.31741,0.89407 0.63703,1.44899 0.94482,1.64033 0.27547,0.17125 1.0238,-0.21088 1.68857,-0.86227 0.53764,-0.52681 1.32883,-1.62415 1.95181,-2.70707 0.61976,-1.07729 1.4316,-1.47372 1.93048,-0.94267 0.47542,0.50606 0.25896,1.47342 -0.80421,3.59417 -1.10241,2.19903 -2.48673,3.7664 -3.94282,4.4642 -0.42938,0.20579 -0.86262,0.37414 -0.96275,0.37414 -0.3028,0 -0.39584,0.23366 -0.46417,1.16574 -0.21685,2.95768 -1.62978,6.8472 -3.38994,9.33187 -0.77363,1.09208 -2.65036,3.09828 -3.53563,3.77958 -2.16469,1.66588 -4.72744,2.57579 -7.27929,2.5845 -2.13811,0.007 -3.59185,-0.51772 -4.8407,-1.74826 -1.11167,-1.09538 -1.68812,-2.46437 -1.97813,-4.69771 l -0.0682,-0.52551 -0.82081,1.2838 c -3.30367,5.16716 -6.98998,8.53257 -10.68231,9.7524 -1.89883,0.62731 -3.68079,0.77827 -5.25167,0.44488 z m 26.97376,-9.83168 c 1.70448,-0.85174 3.44546,-3.66173 4.45847,-7.19612 0.45761,-1.59664 0.73195,-3.14128 0.73094,-4.11547 -0.001,-0.70755 -0.009,-0.72862 -0.40007,-0.99488 -0.88795,-0.60483 -1.56348,-2.20166 -1.42607,-3.37088 0.0369,-0.31456 0.0957,-0.64591 0.1303,-0.73634 0.0536,-0.13972 -0.008,-0.14853 -0.40744,-0.0587 -2.23061,0.5012 -4.37596,3.21184 -5.64463,7.13199 -1.11062,3.43185 -1.39118,6.76891 -0.70344,8.36757 0.55805,1.29723 1.84477,1.68097 3.26194,0.97281 z"
       style="fill:#ec0e27;fill-opacity:1;stroke-width:0.109962"
       id="path897" />
    <path
       id="path849"
       d="m 118.73895,250.2902 c 3.55302,-6.64971 9.31282,-12.70638 16.86306,-17.73223 13.02904,-8.67285 31.25123,-14.13149 53.01468,-15.88101 3.18547,-0.25608 5.34169,-0.37437 11.21613,-0.61528 16.33188,-0.6698 25.53473,-1.42376 33.53846,-2.74771 11.54283,-1.90937 19.60545,-5.0693 26.42005,-10.35456 1.39806,-1.0843 4.84854,-4.48451 5.89474,-5.80884 3.85526,-4.88016 6.54067,-10.41674 8.18692,-16.8792 1.02421,-4.02058 1.68498,-8.47299 1.88407,-12.69521 0.0768,-1.62864 0.0814,-1.56623 0.097,1.31413 0.0729,13.55597 -2.46808,25.14903 -7.43553,33.92332 -0.7617,1.34546 -2.66486,4.16723 -3.59373,5.32837 -6.58354,8.22975 -15.68025,13.60446 -28.37447,16.76477 -7.32397,1.82334 -15.47156,2.90148 -26.22597,3.47037 -1.11886,0.0592 -5.27544,0.15827 -9.23683,0.2202 -13.35816,0.2088 -17.66301,0.42747 -25.12635,1.27626 -21.00563,2.38895 -39.45828,8.03721 -50.63756,15.4999 -2.296,1.53266 -3.8369,2.78006 -5.58902,4.52438 l -1.46543,1.45891 z"
       style="fill:#fdc627;fill-opacity:1;stroke-width:0.109962" />
    <path
       id="path865"
       d="m 116.98573,184.61474 c -0.005,-0.27224 0.0874,-1.33613 0.20553,-2.36419 1.64899,-14.34202 8.24135,-23.92026 22.00394,-31.97022 12.4603,-7.28824 28.05901,-11.47171 47.44216,-12.72367 3.99871,-0.25827 7.28089,-0.34929 16.10946,-0.44672 10.92062,-0.12051 15.483,-0.27817 22.43228,-0.77516 24.52529,-1.75398 39.93805,-6.23068 47.43504,-13.77769 l 1.30593,-1.31465 -0.70113,0.9643 c -3.53248,4.85838 -8.33745,8.81101 -14.50139,11.92898 -13.16669,6.66027 -32.17872,9.77834 -59.70944,9.79262 -17.9964,0.009 -33.31639,1.88385 -45.51377,5.56894 -6.4273,1.94184 -12.54865,4.66558 -17.38459,7.73542 -10.3329,6.55932 -17.03207,16.01051 -18.90236,26.66742 -0.15789,0.89971 -0.21468,1.08279 -0.22166,0.71462 z"
       style="fill:#1d6f41;fill-opacity:1;stroke-width:0.109962" />
    <path
       id="path847"
       d="m 119.13002,250.16252 c 0.93274,-1.21606 2.82676,-3.31928 4.04015,-4.4864 8.21806,-7.90476 19.77785,-13.91503 34.53453,-17.95554 11.33837,-3.10454 24.85141,-4.94609 39.92888,-5.44146 6.81015,-0.22375 10.67314,-0.40424 15.50467,-0.72442 23.30983,-1.54477 35.34823,-5.2722 46.1841,-14.29987 1.46301,-1.21888 4.27825,-4.04404 5.50196,-5.52136 6.67537,-8.05877 10.14659,-18.05004 10.93301,-31.46865 0.0918,-1.5654 0.0942,-1.52898 0.0461,0.71476 -0.2572,12.02706 -2.33899,21.77661 -6.3606,29.78818 -2.12404,4.23139 -4.59431,7.65236 -7.91109,10.9558 -3.54705,3.53275 -7.56407,6.34772 -12.3259,8.63744 -8.8529,4.25697 -20.17856,6.74051 -35.29784,7.74027 -4.63638,0.30658 -7.41706,0.39674 -15.39472,0.49914 -7.89479,0.10133 -10.31358,0.18301 -14.78991,0.49944 -20.3523,1.4387 -39.74815,6.1662 -52.72685,12.85155 -4.76985,2.45698 -8.34121,4.91688 -11.15174,7.68116 -1.1462,1.12736 -1.20825,1.17336 -0.71475,0.52996 z"
       style="fill:#1d6f41;fill-opacity:1;stroke-width:0.109962" />
  </g>
</svg>
