<svg width="360" height="300" viewBox="0 0 360 300" fill="none" xmlns="http://www.w3.org/2000/svg">
<path d="M360 263.635H0V263.837H360V263.635Z" fill="#EBEBEB"/>
<path d="M323.928 276.592H300.081V276.793H323.928V276.592Z" fill="#EBEBEB"/>
<path d="M238.478 278.782H232.221V278.983H238.478V278.782Z" fill="#EBEBEB"/>
<path d="M299.361 269.119H285.545V269.32H299.361V269.119Z" fill="#EBEBEB"/>
<path d="M68.8679 270.472H37.7711V270.673H68.8679V270.472Z" fill="#EBEBEB"/>
<path d="M79.8408 270.472H75.2832V270.673H79.8408V270.472Z" fill="#EBEBEB"/>
<path d="M162.108 273.87H94.6583V274.071H162.108V273.87Z" fill="#EBEBEB"/>
<path d="M170.64 227.722H31.6151C30.526 227.72 29.4821 227.234 28.7127 226.372C27.9433 225.51 27.5111 224.342 27.5111 223.124V4.55766C27.5206 3.3466 27.9569 2.18862 28.7253 1.33526C29.4938 0.481902 30.5322 0.00207461 31.6151 0H170.64C171.73 0 172.776 0.484422 173.547 1.3467C174.318 2.20898 174.751 3.37847 174.751 4.59792V223.124C174.751 224.343 174.318 225.513 173.547 226.375C172.776 227.237 171.73 227.722 170.64 227.722ZM31.6151 0.161049C30.5737 0.163182 29.5757 0.627334 28.84 1.45163C28.1043 2.27592 27.6911 3.393 27.6911 4.55766V223.124C27.6911 224.288 28.1043 225.406 28.84 226.23C29.5757 227.054 30.5737 227.518 31.6151 227.52H170.64C171.682 227.518 172.681 227.054 173.418 226.23C174.154 225.406 174.569 224.289 174.571 223.124V4.55766C174.569 3.39226 174.154 2.2752 173.418 1.45114C172.681 0.627072 171.682 0.163177 170.64 0.161049H31.6151Z" fill="#EBEBEB"/>
<path d="M326.383 227.722H187.351C186.261 227.72 185.217 227.234 184.446 226.373C183.676 225.511 183.242 224.343 183.24 223.124V4.55766C183.251 3.34586 183.689 2.1879 184.459 1.33476C185.228 0.481621 186.268 0.00205198 187.351 0H326.383C327.465 0.00419087 328.501 0.484955 329.268 1.33809C330.035 2.19122 330.471 3.34799 330.48 4.55766V223.124C330.48 224.34 330.049 225.508 329.281 226.369C328.513 227.231 327.471 227.717 326.383 227.722ZM187.351 0.161049C186.309 0.163177 185.31 0.627072 184.574 1.45114C183.837 2.2752 183.422 3.39226 183.42 4.55766V223.124C183.422 224.289 183.837 225.406 184.574 226.23C185.31 227.054 186.309 227.518 187.351 227.52H326.383C327.425 227.518 328.424 227.054 329.161 226.23C329.898 225.406 330.312 224.289 330.314 223.124V4.55766C330.312 3.39226 329.898 2.2752 329.161 1.45114C328.424 0.627072 327.425 0.163177 326.383 0.161049H187.351Z" fill="#EBEBEB"/>
<path d="M99.0504 38.6193H72.4104V49.6913H99.0504V38.6193Z" fill="#F5F5F5"/>
<path d="M301.882 241.209C301.882 240.968 302.602 216.73 306.151 212.897C309.701 209.064 313.51 212.76 313.675 212.897L314.028 212.422C313.985 212.382 309.542 208.323 305.762 212.422C301.982 216.521 301.356 240.147 301.327 241.161L301.882 241.209Z" fill="#E0E0E0"/>
<path d="M301.579 245.968C301.579 245.679 303.991 216.875 294.581 204.805L294.163 205.207C303.415 217.084 301.053 245.622 301.032 245.912L301.579 245.968Z" fill="#E0E0E0"/>
<path d="M301.925 242.925L302.479 242.884C302.479 242.554 300.636 210.135 307.519 203.041L307.152 202.582C300.067 209.878 301.846 241.572 301.925 242.925Z" fill="#E0E0E0"/>
<path d="M301.032 242.909H301.579C301.579 242.015 301.356 221.014 296.021 217.592C295.514 217.224 294.935 216.998 294.334 216.932C293.733 216.867 293.126 216.963 292.565 217.213C289.339 218.703 287.741 225.129 287.676 225.403L288.209 225.564C288.209 225.499 289.8 219.162 292.774 217.785C293.256 217.572 293.777 217.492 294.294 217.551C294.81 217.61 295.306 217.806 295.74 218.123C300.809 221.36 301.025 242.691 301.032 242.909Z" fill="#E0E0E0"/>
<path d="M303.12 242.925L303.674 242.885C303.674 242.723 302.868 226.289 306.835 220.499C307.793 219.09 308.837 218.421 309.938 218.51C312.537 218.711 314.719 222.963 314.741 223.011L315.216 222.705C315.122 222.52 312.876 218.123 309.981 217.874C308.685 217.769 307.476 218.518 306.381 220.096C302.292 226.095 303.069 242.24 303.12 242.925Z" fill="#E0E0E0"/>
<path d="M302.235 245.155C302.343 243.545 304.827 206.037 300.456 199.426L300.017 199.788C304.265 206.23 301.716 244.72 301.687 245.107L302.235 245.155Z" fill="#E0E0E0"/>
<path d="M291.377 221.006C291.377 221.006 293.998 222.093 293.22 224.646C292.443 227.198 284.148 231.394 284.148 231.394C284.148 231.394 280.671 227.835 283.86 222.045C287.05 216.255 291.305 219.186 291.377 221.006Z" fill="#EBEBEB"/>
<path d="M302.775 216.15C302.775 216.15 299.988 216.022 299.823 218.711C299.657 221.401 305.878 228.849 305.878 228.849C305.878 228.849 310.306 227.061 309.355 220.338C308.405 213.614 303.473 214.492 302.775 216.15Z" fill="#EBEBEB"/>
<path d="M305.143 203.267C305.143 203.267 303.278 203.041 303.43 201.777C303.581 200.513 310.666 197.243 314.849 202.518C314.849 202.518 312.17 207.663 308.304 207.728C304.438 207.792 305.143 203.267 305.143 203.267Z" fill="#EBEBEB"/>
<path d="M301.68 200.183C301.68 200.183 303.365 201.101 303.84 199.933C304.315 198.765 299.837 191.8 293.796 193.813C293.796 193.813 293.63 199.756 296.885 202.107C300.139 204.458 301.68 200.183 301.68 200.183Z" fill="#EBEBEB"/>
<path d="M310.486 219.983C310.486 219.983 309.204 218.824 310.586 218.26C311.969 217.697 318.78 217.85 318.852 225.387C318.852 225.387 310.932 226.86 309.946 223.994C308.959 221.127 310.486 219.983 310.486 219.983Z" fill="#EBEBEB"/>
<path d="M294.329 203.073C294.329 203.073 295.61 201.914 294.228 201.35C292.845 200.786 286.034 200.948 285.962 208.485C285.962 208.485 293.882 209.958 294.869 207.083C295.855 204.209 294.329 203.073 294.329 203.073Z" fill="#EBEBEB"/>
<path d="M298.519 209.145C298.519 209.145 298.627 207.736 297.612 208.291C296.597 208.847 293.047 213.123 296.726 217.149C296.726 217.149 301.673 213.05 300.78 210.916C299.887 208.783 298.519 209.145 298.519 209.145Z" fill="#EBEBEB"/>
<path d="M311.637 211.158C311.637 211.158 310.867 210.031 311.99 209.894C313.114 209.757 318.161 211.255 316.987 216.891C316.987 216.891 310.845 216.368 310.579 214.033C310.313 211.697 311.637 211.158 311.637 211.158Z" fill="#EBEBEB"/>
<path d="M290.887 263.805H311.962L314.237 237.997H288.612L290.887 263.805Z" fill="#F0F0F0"/>
<path d="M287.489 240.847H315.36V235.154H287.489V240.847Z" fill="#E6E6E6"/>
<path d="M129.103 60.8439H44.8273V263.796H129.103V60.8439Z" fill="#E0E0E0"/>
<path d="M127.663 60.8439H43.3872V263.796H127.663V60.8439Z" fill="#EBEBEB"/>
<path d="M124.063 64.8701H46.9872V263.796H124.063V64.8701Z" fill="#E0E0E0"/>
<path d="M75.636 81.1037H60.6168V97.901H75.636V81.1037Z" fill="#F0F0F0"/>
<path d="M93.0313 81.1037H78.0121V97.901H93.0313V81.1037Z" fill="#F0F0F0"/>
<path d="M110.434 81.1037H95.4144V97.901H110.434V81.1037Z" fill="#F0F0F0"/>
<path d="M75.636 100.639H60.6168V117.436H75.636V100.639Z" fill="#F0F0F0"/>
<path d="M93.0313 100.639H78.0121V117.436H93.0313V100.639Z" fill="#F0F0F0"/>
<path d="M110.434 100.639H95.4144V117.436H110.434V100.639Z" fill="#F0F0F0"/>
<path d="M117.922 145.096C117.922 145.733 117.753 146.356 117.436 146.886C117.12 147.415 116.67 147.828 116.144 148.072C115.617 148.316 115.038 148.379 114.48 148.255C113.921 148.131 113.408 147.824 113.005 147.374C112.602 146.923 112.328 146.349 112.217 145.724C112.106 145.1 112.163 144.452 112.381 143.863C112.599 143.275 112.968 142.772 113.442 142.418C113.915 142.064 114.472 141.875 115.042 141.875C115.805 141.875 116.538 142.214 117.078 142.819C117.618 143.423 117.922 144.242 117.922 145.096Z" fill="#F0F0F0"/>
<path d="M180 300C257.099 300 319.601 295.919 319.601 290.885C319.601 285.85 257.099 281.769 180 281.769C102.901 281.769 40.3993 285.85 40.3993 290.885C40.3993 295.919 102.901 300 180 300Z" fill="#F5F5F5"/>
<path d="M236.793 52.4535C242.641 49.7441 245.419 42.2452 242.996 35.7041C240.573 29.1631 233.868 26.0569 228.02 28.7663C222.171 31.4757 219.394 38.9746 221.816 45.5157C224.239 52.0567 230.944 55.1629 236.793 52.4535Z" fill="#FED23A"/>
<path opacity="0.5" d="M236.793 52.4535C242.641 49.7441 245.419 42.2452 242.996 35.7041C240.573 29.1631 233.868 26.0569 228.02 28.7663C222.171 31.4757 219.394 38.9746 221.816 45.5157C224.239 52.0567 230.944 55.1629 236.793 52.4535Z" fill="white"/>
<path d="M229.298 43.7809C229.243 43.7818 229.188 43.7685 229.138 43.742C229.088 43.7154 229.045 43.6764 229.01 43.6279C228.952 43.5444 228.925 43.4384 228.935 43.3328C228.946 43.2272 228.994 43.1306 229.068 43.0642L232.042 40.415V33.8603C232.043 33.7542 232.082 33.653 232.149 33.5779C232.216 33.5028 232.307 33.4598 232.402 33.4577C232.497 33.4577 232.589 33.5001 232.656 33.5756C232.724 33.6511 232.762 33.7535 232.762 33.8603V40.6082C232.761 40.6678 232.749 40.7265 232.726 40.7806C232.704 40.8347 232.672 40.8829 232.632 40.9223L229.522 43.6923C229.459 43.7509 229.38 43.7824 229.298 43.7809Z" fill="#FED23A"/>
<path opacity="0.5" d="M236.36 51.2855C241.632 48.8433 244.135 42.0839 241.952 36.1879C239.768 30.2919 233.724 27.4921 228.452 29.9343C223.18 32.3765 220.677 39.1359 222.861 45.0319C225.044 50.9278 231.088 53.7277 236.36 51.2855Z" fill="white"/>
<path d="M295.394 76.8601H171.626V176.267H295.394V76.8601Z" fill="#FED23A"/>
<path d="M293.962 76.8601H170.187V176.267H293.962V76.8601Z" fill="#FED23A"/>
<path opacity="0.5" d="M293.955 76.8601H170.187V176.267H293.955V76.8601Z" fill="white"/>
<path d="M183.283 104.383L186.25 94.9377L188.978 104.383" stroke="#FED23A" stroke-linecap="round" stroke-linejoin="round"/>
<path d="M185.321 100.454H187.841" stroke="#FED23A" stroke-linecap="round" stroke-linejoin="round"/>
<path d="M194.4 100.454C194.4 100.454 189.36 100.14 191.455 103.216C193.551 106.292 195.257 100.446 195.257 100.446C195.257 100.446 194.782 103.626 196.2 104.109" stroke="#FED23A" stroke-linecap="round" stroke-linejoin="round"/>
<path d="M183.945 110.648V121.591C183.945 121.591 189.173 120.955 190.022 117.871C190.872 114.787 185.321 115.173 185.321 115.173C185.321 115.173 188.978 114.368 188.978 112.025C188.978 109.682 182.426 110.656 182.426 110.656" stroke="#FED23A" stroke-linecap="round" stroke-linejoin="round"/>
<path d="M192.017 113.845C192.017 113.845 192.11 122.115 192.017 121.583C191.923 121.052 193.154 116.913 195.725 118.362C198.295 119.812 196.193 123.298 193.154 121.583" stroke="#FED23A" stroke-linecap="round" stroke-linejoin="round"/>
<path d="M187.841 129.442C187.841 129.442 186.228 126.89 183.283 130.288C180.338 133.686 184.514 139.637 187.272 137.825C190.03 136.013 190.116 135.28 190.116 135.28" stroke="#FED23A" stroke-linecap="round" stroke-linejoin="round"/>
<path d="M195.437 134.322C195.437 134.322 191.628 131.987 192.017 136.021C192.405 140.055 196.891 137.72 196.877 137.084" stroke="#FED23A" stroke-linecap="round" stroke-linejoin="round"/>
<path d="M184.14 145.901V155.822C184.14 155.822 189.9 156.836 190.116 151.417C190.332 145.998 185.184 144.17 183.096 144.734" stroke="#FED23A" stroke-linecap="round" stroke-linejoin="round"/>
<path d="M196.877 146.006V155.129C196.877 155.129 195.998 151.417 193.723 152.166C191.448 152.915 192.492 156.442 195.883 155.894" stroke="#FED23A" stroke-linecap="round" stroke-linejoin="round"/>
<path d="M207.972 87.9241C207.972 87.9241 209.966 127.381 207.972 158.431" stroke="#FED23A" stroke-linecap="round" stroke-linejoin="round"/>
<path d="M215.568 140.804H282.708" stroke="#FED23A" stroke-linecap="round" stroke-linejoin="round"/>
<path d="M219.175 138.34C219.175 138.34 231.12 122.831 234.72 120.786C238.32 118.741 250.265 136.552 250.265 136.552" stroke="#FED23A" stroke-linecap="round" stroke-linejoin="round"/>
<path d="M251.28 133.67C251.28 133.67 261.77 120.786 265.162 120.625C268.553 120.464 280.966 136.561 280.966 136.561" stroke="#FED23A" stroke-linecap="round" stroke-linejoin="round"/>
<path d="M245.232 125.762C245.232 125.762 250.992 118.789 255.694 125.44" stroke="#FED23A" stroke-linecap="round" stroke-linejoin="round"/>
<path d="M245.232 122.074L243.453 117.96" stroke="#FED23A" stroke-linecap="round" stroke-linejoin="round"/>
<path d="M250.466 118.966C250.586 117.262 250.586 115.549 250.466 113.845" stroke="#FED23A" stroke-linecap="round" stroke-linejoin="round"/>
<path d="M255.693 118.966L258.149 115.415" stroke="#FED23A" stroke-linecap="round" stroke-linejoin="round"/>
<path d="M259.2 100.454H280.966C280.966 100.454 279.029 94.3419 276.646 94.3177C274.262 94.2936 273.434 95.7832 273.434 95.7832C273.434 95.7832 271.238 91.5316 268.762 91.5316C266.285 91.5316 265.104 97.2891 265.104 97.2891C263.968 97.2693 262.843 97.5448 261.819 98.094C260.794 98.6432 259.898 99.4509 259.2 100.454V100.454Z" stroke="#FED23A" stroke-linecap="round" stroke-linejoin="round"/>
<path d="M237.974 109.585H216.511C216.511 109.585 216.137 107.032 219.175 107.459C219.175 107.459 219.175 102.193 223.538 102.282C224.746 102.254 225.94 102.575 227.004 103.214C228.069 103.853 228.968 104.788 229.615 105.929C229.615 105.929 230.256 104.496 232.402 104.383C234.547 104.27 234.727 107.25 234.727 107.25C234.727 107.25 237.974 107.669 238.824 109.585" stroke="#FED23A" stroke-linecap="round" stroke-linejoin="round"/>
<path d="M249.134 142.286L236.261 159.494" stroke="#FED23A" stroke-linecap="round" stroke-linejoin="round"/>
<path d="M250.567 142.286L252.209 159.494" stroke="#FED23A" stroke-linecap="round" stroke-linejoin="round"/>
<path opacity="0.5" d="M290.354 169.994V80.8863L173.779 80.8863V169.994H290.354Z" fill="white"/>
<path opacity="0.1" d="M253.779 171.282V159.494H252.72L252.612 156.377H252.72V155.451H252.634L252.425 152.303L251.071 152.367V155.524H250.985V156.458H251.122L251.23 159.51H249.559L249.783 157.609H249.912L250.02 156.691H249.934L250.2 153.551L248.861 153.358L248.4 156.466H248.314L248.206 157.384H248.335L248.091 159.502H246.312L245.967 156.361H246.096L246.024 155.411H245.938L245.491 152.295L244.433 152.44V152.279L243.087 152.343V155.5H243V156.434H243.137L243.245 159.486H242.669V171.274H206.64V167.023H187.848V171.629H170.187V176.259H293.955V171.274L253.779 171.282ZM244.735 159.494L244.671 157.69L244.872 159.494H244.735Z" fill="black"/>
<path d="M202.126 170.976H185.321V174.817H202.126V170.976Z" fill="#263238"/>
<path d="M187.286 169.245H200.16C200.435 169.245 200.699 169.367 200.893 169.585C201.087 169.802 201.197 170.097 201.197 170.405V173.32H186.25V170.405C186.25 170.097 186.359 169.802 186.553 169.585C186.748 169.367 187.011 169.245 187.286 169.245Z" fill="#263238"/>
<path opacity="0.2" d="M202.126 170.976H185.321V174.817H202.126V170.976Z" fill="white"/>
<path d="M240.823 155.406L239.687 155.458L240.152 168.186L241.288 168.134L240.823 155.406Z" fill="#FED23A"/>
<path opacity="0.9" d="M240.823 155.406L239.687 155.458L240.152 168.186L241.288 168.134L240.823 155.406Z" fill="white"/>
<path d="M239.645 152.987L239.659 155.612L240.876 155.556L240.696 152.939L239.645 152.987Z" fill="#FED23A"/>
<path opacity="0.2" d="M239.645 152.987L239.659 155.612L240.876 155.556L240.696 152.939L239.645 152.987Z" fill="black"/>
<path d="M240.932 155.395L239.586 155.456L239.613 156.18L240.958 156.119L240.932 155.395Z" fill="#FED23A"/>
<path d="M244.989 156.341L243.861 156.176L242.384 168.807L243.512 168.972L244.989 156.341Z" fill="white"/>
<path d="M244.188 153.744L243.799 156.345L245.009 156.522L245.232 153.897L244.188 153.744Z" fill="#FED23A"/>
<path opacity="0.2" d="M244.188 153.744L243.799 156.345L245.009 156.522L245.232 153.897L244.188 153.744Z" fill="black"/>
<path d="M244.642 156.148L243.309 155.952L243.224 156.67L244.557 156.865L244.642 156.148Z" fill="#FED23A"/>
<path d="M247.053 155.404L245.916 155.456L246.379 168.185L247.516 168.133L247.053 155.404Z" fill="#FED23A"/>
<path opacity="0.9" d="M247.053 155.404L245.916 155.456L246.379 168.185L247.516 168.133L247.053 155.404Z" fill="white"/>
<path d="M245.873 152.987L245.887 155.612L247.111 155.556L246.931 152.939L245.873 152.987Z" fill="#263238"/>
<path opacity="0.2" d="M245.873 152.987L245.887 155.612L247.111 155.556L246.931 152.939L245.873 152.987Z" fill="black"/>
<path d="M247.161 155.393L245.816 155.455L245.842 156.179L247.187 156.118L247.161 155.393Z" fill="#263238"/>
<path d="M241.843 155.387L240.714 155.544L242.116 168.186L243.245 168.03L241.843 155.387Z" fill="white"/>
<path d="M240.487 153.092L240.696 155.709L241.906 155.54L241.531 152.947L240.487 153.092Z" fill="#263238"/>
<path opacity="0.2" d="M240.487 153.092L240.696 155.709L241.906 155.54L241.531 152.947L240.487 153.092Z" fill="black"/>
<path d="M241.945 155.368L240.609 155.553L240.689 156.272L242.025 156.087L241.945 155.368Z" fill="#263238"/>
<path d="M248.083 161.298H238.824V174.826H248.083V161.298Z" fill="#263238"/>
<path opacity="0.2" d="M248.083 161.298H240.487V174.826H248.083V161.298Z" fill="white"/>
<path d="M164.095 172.901H295.726V178.022C295.726 178.291 295.63 178.549 295.46 178.74C295.29 178.93 295.059 179.037 294.818 179.037H165.002C164.762 179.037 164.531 178.93 164.361 178.74C164.191 178.549 164.095 178.291 164.095 178.022V172.901Z" fill="#FED23A"/>
<path opacity="0.2" d="M164.095 172.901H295.726V178.022C295.726 178.291 295.63 178.549 295.46 178.74C295.29 178.93 295.059 179.037 294.818 179.037H165.002C164.762 179.037 164.531 178.93 164.361 178.74C164.191 178.549 164.095 178.291 164.095 178.022V172.901Z" fill="white"/>
<path opacity="0.4" d="M164.095 172.901H288.526V178.022C288.526 178.291 288.43 178.549 288.26 178.74C288.09 178.93 287.859 179.037 287.618 179.037H165.002C164.762 179.037 164.531 178.93 164.361 178.74C164.191 178.549 164.095 178.291 164.095 178.022V172.901Z" fill="white"/>
<path d="M74.6784 280.562H69.8112L71.3016 273.033L72.684 266.124L78.7824 265.077L76.6152 273.274L74.6784 280.562Z" fill="#E4897B"/>
<path opacity="0.2" d="M76.5577 273.443L71.2585 273.178L72.6625 266.196L78.7681 265.117L76.5577 273.443Z" fill="black"/>
<path d="M64.5984 280.562H59.7312L61.2216 273.033L62.604 266.124L68.7024 265.077L66.5352 273.274L64.5984 280.562Z" fill="#E4897B"/>
<path opacity="0.2" d="M66.4778 273.443L61.1786 273.178L62.5826 266.196L68.6882 265.117L66.4778 273.443Z" fill="black"/>
<path d="M55.7857 136.673C55.7857 136.673 55.5409 137.261 55.1449 138.348C53.3161 143.413 48.2905 159.437 50.1697 177.958C51.2785 188.925 62.1217 208.67 63.7345 219.42C65.6137 231.949 60.6961 254.045 61.9561 270.214L69.7033 270.971L72.0361 269.361L78.6745 268.258C78.6745 268.258 95.9545 224.308 95.6377 209.113C95.3929 197.179 78.6745 154.397 78.6745 154.397L80.2657 138.582" fill="#FED23A"/>
<path opacity="0.6" d="M78.6745 268.225L73.2529 269.127L72.0361 269.328L70.0489 270.73L69.7033 270.971L61.9561 270.214C60.6961 254.021 65.6137 231.949 63.7345 219.42C62.1217 208.67 51.2785 188.925 50.1697 177.958C48.2905 159.437 53.3161 143.413 55.1449 138.348C55.5409 137.261 55.7857 136.673 55.7857 136.673L80.2657 138.55L78.6745 154.364C78.6745 154.364 95.3929 197.147 95.6377 209.08C95.9545 224.275 78.6745 268.225 78.6745 268.225Z" fill="white"/>
<path opacity="0.1" d="M73.2529 269.127L72.0361 269.329L70.0489 270.73C71.3161 265.794 82.2313 223.059 82.4257 213.654C82.6417 203.661 69.9265 168.198 69.9265 168.198L73.1881 161.612L72.7201 171.637C72.7201 171.637 84.7513 199.216 85.6801 213.654C86.5945 227.496 74.2609 266.011 73.2529 269.127Z" fill="black"/>
<path d="M68.436 280.328C68.436 279.724 75.0456 280.199 75.0456 280.199C75.0456 280.199 79.1064 284.813 83.052 285.836C86.9976 286.859 84.7872 289.516 80.3808 289.516H69.48C66.3552 289.532 68.3064 286.553 68.436 280.328Z" fill="#263238"/>
<path d="M75.7874 281.149C75.764 281.141 75.7439 281.124 75.7298 281.101C75.726 281.083 75.726 281.063 75.7298 281.045C75.7255 281.026 75.7255 281.007 75.7298 280.988C75.7259 280.962 75.7259 280.935 75.7298 280.908C75.7298 280.819 76.313 279.112 77.2058 278.693C77.3387 278.624 77.4837 278.588 77.6306 278.588C77.7774 278.588 77.9224 278.624 78.0554 278.693C78.3578 278.846 78.5018 279.056 78.4946 279.314C78.4946 279.7 77.9978 280.119 77.465 280.409C77.9505 280.321 78.4481 280.382 78.905 280.586C78.991 280.638 79.0667 280.709 79.1273 280.795C79.188 280.881 79.2324 280.979 79.2578 281.085C79.3098 281.221 79.3225 281.372 79.2941 281.516C79.2657 281.66 79.1976 281.791 79.0994 281.89C78.9293 282.023 78.7231 282.086 78.5162 282.067C77.5657 281.941 76.6423 281.631 75.7874 281.149ZM76.3922 281.029C77.3642 281.488 78.5522 281.89 78.8834 281.608C78.8834 281.608 78.9914 281.504 78.9266 281.214C78.9119 281.158 78.887 281.107 78.8536 281.062C78.8201 281.018 78.7788 280.982 78.7322 280.956C78.4881 280.834 78.2215 280.779 77.9546 280.795C77.4278 280.81 76.9039 280.888 76.3922 281.029ZM77.2994 279.056C76.7781 279.443 76.3819 280.008 76.169 280.666C77.1482 280.248 78.0914 279.676 78.1058 279.346C78.1058 279.241 77.9618 279.144 77.8754 279.096C77.7777 279.048 77.6726 279.02 77.5658 279.016C77.4755 279.01 77.3851 279.024 77.2994 279.056Z" fill="#FED23A"/>
<path d="M69.7031 268.088L80.6327 266.414L79.7183 270.971L70.6967 272.235L69.7031 268.088Z" fill="#FED23A"/>
<path d="M58.3559 280.328C58.3559 279.724 64.9655 280.199 64.9655 280.199C64.9655 280.199 69.0263 284.813 72.9719 285.836C76.9175 286.859 74.7071 289.516 70.3007 289.516H59.3999C56.2751 289.532 58.2263 286.553 58.3559 280.328Z" fill="#263238"/>
<path d="M65.7072 281.149C65.6838 281.141 65.6637 281.124 65.6496 281.101C65.6458 281.083 65.6458 281.063 65.6496 281.045C65.6453 281.026 65.6453 281.007 65.6496 280.988C65.6457 280.962 65.6457 280.935 65.6496 280.908C65.6496 280.819 66.2328 279.112 67.1256 278.693C67.2585 278.624 67.4035 278.588 67.5504 278.588C67.6972 278.588 67.8422 278.624 67.9752 278.693C68.2776 278.846 68.4216 279.056 68.4144 279.314C68.4144 279.7 67.9176 280.119 67.3848 280.409C67.8703 280.321 68.3679 280.382 68.8248 280.586C68.9108 280.638 68.9865 280.709 69.0471 280.795C69.1078 280.881 69.1522 280.979 69.1776 281.085C69.2296 281.221 69.2423 281.372 69.2139 281.516C69.1855 281.66 69.1174 281.791 69.0192 281.89C68.8491 282.023 68.6429 282.086 68.436 282.067C67.4855 281.941 66.5621 281.631 65.7072 281.149ZM66.312 281.029C67.284 281.488 68.472 281.89 68.8032 281.608C68.8032 281.608 68.9112 281.504 68.8464 281.214C68.8317 281.158 68.8068 281.107 68.7734 281.062C68.7399 281.018 68.6986 280.982 68.652 280.956C68.4079 280.834 68.1413 280.779 67.8744 280.795C67.3476 280.81 66.8237 280.888 66.312 281.029ZM67.2192 279.056C66.6979 279.443 66.3017 280.008 66.0888 280.666C67.068 280.248 68.0112 279.676 68.0256 279.346C68.0256 279.241 67.8816 279.144 67.7952 279.096C67.6975 279.048 67.5924 279.02 67.4856 279.016C67.3953 279.01 67.3049 279.024 67.2192 279.056Z" fill="#FED23A"/>
<path d="M60.3579 268.088L72.0363 266.414L71.0571 270.971L61.4235 272.235L60.3579 268.088Z" fill="#FED23A"/>
<path d="M103.961 134.628L109.822 131.359C109.822 131.359 110.211 129.056 110.83 128.275C111.449 127.494 117.519 129.676 117.612 130.183C117.368 131.965 116.883 133.695 116.172 135.313C115.719 135.949 110.657 134.604 110.657 134.604L105.408 137.632L103.961 134.628Z" fill="#E4897B"/>
<path d="M109.865 135.836C109.865 135.836 95.3137 144.202 91.6417 141.279C89.6401 139.669 89.2153 133.227 89.2513 127.671C89.2513 123.105 89.6113 119.192 89.6113 119.192L92.8657 115.407L97.8121 109.666C100.642 112.033 94.2625 131.238 95.6521 134.161C97.0417 137.084 108.612 130.9 108.612 130.9L109.865 135.836Z" fill="#FED23A"/>
<path opacity="0.2" d="M89.0209 128.21C89.0209 123.926 89.3593 120.254 89.3593 120.254L92.4193 116.703C92.3977 119.175 92.0161 125.279 89.0209 128.21Z" fill="black"/>
<path d="M96.0554 73.2768C96.0554 73.2768 102.939 71.9401 107.525 78.2693C112.111 84.5985 102.37 94.7526 102.37 94.7526C102.606 96.694 102.362 98.6708 101.662 100.467C100.962 102.264 99.8348 103.81 98.4026 104.939C93.3986 108.965 78.869 99.7934 76.9394 91.6846C75.0098 83.5759 87.3794 76.0469 90.8642 76.6991C94.349 77.3514 96.0554 73.2768 96.0554 73.2768Z" fill="#263238"/>
<path d="M102.24 93.8427C102.24 93.8427 104.955 104.641 96.2137 106.493" stroke="#263238" stroke-width="0.5" stroke-linecap="round" stroke-linejoin="round"/>
<path d="M86.6232 130.449L93.1968 131.544C93.1968 131.544 94.9176 129.982 95.8392 129.764C96.7608 129.547 100.57 135.401 100.368 135.868C99.2072 137.16 97.8766 138.247 96.4224 139.089C95.7024 139.298 92.1888 134.757 92.1888 134.757L86.2488 133.863L86.6232 130.449Z" fill="#E4897B"/>
<path d="M57.2041 133.114L56.0593 136.794L79.0993 143.598L80.4529 139.258L57.2041 133.114Z" fill="#263238"/>
<path d="M65.1079 134.453L63.9744 134.083L62.291 140.538L63.4246 140.908L65.1079 134.453Z" fill="#FED23A"/>
<path d="M74.8604 138.084L69.804 136.666L68.843 140.955L73.8994 142.372L74.8604 138.084Z" fill="white"/>
<path d="M79.3407 138.102L78.2072 137.732L76.5228 144.186L77.6563 144.556L79.3407 138.102Z" fill="#FED23A"/>
<path opacity="0.6" d="M65.1079 134.453L63.9744 134.083L62.291 140.538L63.4246 140.908L65.1079 134.453Z" fill="white"/>
<path opacity="0.6" d="M79.3407 138.102L78.2072 137.732L76.5228 144.186L77.6563 144.556L79.3407 138.102Z" fill="white"/>
<path d="M97.9199 109.746C96.9215 111.196 95.9927 112.572 95.1335 113.877C91.7783 118.902 89.3735 122.469 87.5591 125.344C85.4982 128.445 83.7136 131.765 82.2311 135.256C81.6335 136.665 81.0431 138.211 80.3879 140.023L57.2183 133.114C61.5887 115.012 65.3183 105.511 67.1903 100.776C67.2064 100.723 67.2256 100.672 67.2479 100.623C67.8181 99.2007 68.8227 98.0525 70.0815 97.384C71.3403 96.7155 72.7709 96.5705 74.1167 96.975C75.7799 97.4823 77.7167 98.1104 79.5311 98.7949C82.8794 100.191 86.1369 101.845 89.2799 103.747C92.2853 105.511 95.1729 107.516 97.9199 109.746Z" fill="#FED23A"/>
<path d="M77.4287 98.6419C77.4287 98.6419 79.9415 97.5548 81.3455 96.9107C82.7495 96.2665 90.2303 100.937 90.2447 102.491C90.2591 104.045 88.0847 108.208 88.0847 108.208C88.0847 108.208 81.4031 106.888 77.4287 98.6419Z" fill="#FED23A"/>
<path opacity="0.2" d="M77.4287 98.6419C77.4287 98.6419 79.9415 97.5548 81.3455 96.9107C82.7495 96.2665 90.2303 100.937 90.2447 102.491C90.2591 104.045 88.0847 108.208 88.0847 108.208C88.0847 108.208 81.4031 106.888 77.4287 98.6419Z" fill="black"/>
<path d="M82.9441 108.82C79.0489 103.86 79.3441 100.462 79.3441 100.462C84.4489 100.268 86.1481 92.8845 86.1481 92.8845L90.5689 99.2056C89.8006 99.9087 89.0787 100.673 88.4089 101.492C85.5289 105.044 86.9689 106.509 86.9689 106.509C86.4001 109.368 82.9441 108.82 82.9441 108.82Z" fill="#E4897B"/>
<path opacity="0.2" d="M90.6049 99.2056C89.8366 99.9087 89.1147 100.673 88.4449 101.492C86.4145 98.3118 86.1913 92.8845 86.1913 92.8845L90.6049 99.2056Z" fill="black"/>
<path d="M98.7841 78.1807C104.206 81.4017 104.4 85.6936 101.823 92.1678C98.6041 100.268 94.4137 104.891 88.4377 99.1894C80.3161 91.443 89.7913 72.8259 98.7841 78.1807Z" fill="#E4897B"/>
<path d="M98.4816 89.744C98.4858 90.9084 98.6139 92.068 98.8632 93.1985C98.585 93.3546 98.2736 93.4214 97.9635 93.3915C97.6534 93.3617 97.3567 93.2363 97.1064 93.0294L98.4816 89.744Z" fill="#DE5753"/>
<path d="M95.4074 87.2719C95.177 87.7792 94.7522 88.0771 94.4498 87.8839C94.1474 87.6906 94.0898 87.1672 94.3202 86.6599C94.5506 86.1526 94.9682 85.8547 95.2706 86.056C95.573 86.2573 95.6306 86.7727 95.4074 87.2719Z" fill="#263238"/>
<path d="M95.1337 86.0077L96.3073 86.1285C96.3073 86.1285 95.4073 86.7807 95.1337 86.0077Z" fill="#263238"/>
<path d="M101.052 90.3238C100.829 90.823 100.397 91.129 100.094 90.9277C99.7919 90.7264 99.7343 90.211 99.9647 89.7118C100.195 89.2126 100.62 88.9066 100.915 89.0998C101.21 89.2931 101.275 89.8165 101.052 90.3238Z" fill="#263238"/>
<path d="M100.8 89.0596L101.967 89.1804C101.967 89.1804 101.052 89.8245 100.8 89.0596Z" fill="#263238"/>
<path d="M97.344 83.0605C96.9435 82.7471 96.4841 82.5405 96.001 82.4568C95.518 82.373 95.0242 82.4143 94.5576 82.5774" stroke="#263238" stroke-width="0.72468" stroke-linecap="round" stroke-linejoin="round"/>
<path d="M101.405 85.1461C101.825 85.2633 102.216 85.4849 102.549 85.7944C102.882 86.1039 103.148 86.4933 103.327 86.9337" stroke="#263238" stroke-width="0.72468" stroke-linecap="round" stroke-linejoin="round"/>
<path d="M88.0055 84.8643C88.0055 84.8643 92.9087 81.3937 94.3559 77.3272C94.3559 77.3272 107.424 78.8169 102.146 91.3142C102.146 91.3142 108.353 81.1199 99.1511 75.3302C89.9495 69.5405 82.7423 84.7998 85.3847 92.2402C85.3847 92.208 84.9599 87.0465 88.0055 84.8643Z" fill="#263238"/>
<path d="M98.8057 76.8601C98.8057 76.8601 99.6409 80.9829 94.1185 84.1073" stroke="#263238" stroke-width="0.5" stroke-linecap="round" stroke-linejoin="round"/>
<path d="M87.6312 84.0268L89.8272 89.3414C89.8272 89.3414 88.7904 92.7073 86.6592 92.9489L85.3344 86.9659C85.3344 86.9659 83.736 95.429 90.1656 100.599C96.5952 105.768 101.153 94.962 101.153 94.962C101.153 94.962 99.576 91.3625 98.2728 90.7345C96.9696 90.1064 93.3552 89.4944 91.7568 88.8583C90.1584 88.2221 87.6312 84.0268 87.6312 84.0268Z" fill="#FED23A"/>
<path d="M88.2792 86.668C88.4175 86.3033 88.4899 85.9117 88.4924 85.5156C88.4948 85.1195 88.4271 84.7268 88.2933 84.36C88.1594 83.9933 87.9621 83.6598 87.7125 83.3787C87.463 83.0977 87.1662 82.8746 86.8392 82.7223C85.068 81.9171 82.4256 85.2991 86.1624 88.7133C86.7312 89.2045 87.3864 88.7536 88.2792 86.668Z" fill="#E4897B"/>
<path d="M98.784 78.1807C98.784 78.1807 95.472 86.1284 88.1712 84.0107C79.344 81.45 74.0448 89.4863 79.2504 96.2986C79.2504 96.2986 73.764 89.7037 76.0608 84.1637C78.3576 78.6236 86.9904 75.1208 86.9904 75.1208C86.9904 75.1208 88.092 69.6049 95.328 71.5536C99.4032 72.6487 98.784 78.1807 98.784 78.1807Z" fill="#263238"/>
<path d="M81.3602 96.9106C81.3602 96.9106 81.5258 104.021 85.4498 104.504C89.3738 104.987 90.2594 102.491 90.2594 102.491L90.3098 108.514C90.3098 108.514 88.8698 114.215 82.4402 109.915C76.0106 105.615 77.4434 98.6419 77.4434 98.6419L81.3602 96.9106Z" fill="#FED23A"/>
<path opacity="0.2" d="M87.5376 125.344C85.4767 128.445 83.6922 131.765 82.2096 135.256C78.0912 134.628 70.3368 132.961 67.3056 129.249C63.1008 124.071 67.1112 104.617 67.1112 104.617L70.4736 106.292C70.4736 106.292 70.2504 117.122 74.4984 121.124C77.9544 124.385 85.0248 125.166 87.5376 125.344Z" fill="black"/>
<path d="M69.9263 98.2393C65.6063 100.88 65.3183 124.522 69.7679 128.758C74.5415 133.315 90.2879 135.465 90.2879 135.465L91.5119 130.231C91.5119 130.231 75.3839 127.268 73.8215 123.21C72.2591 119.151 72.1871 104.955 72.6839 102.048C73.1807 99.1411 72.0719 96.9348 69.9263 98.2393Z" fill="#FED23A"/>
<path d="M256.011 207.567C256.011 207.567 250.251 215.949 254.383 218.131C258.516 220.313 261.907 208.742 261.907 208.742L256.011 207.567Z" fill="#EBB376"/>
<path d="M260.071 198.717C256.795 202.236 255.089 208.283 255.089 208.283L262.066 212.269V199.619L260.071 198.717Z" fill="#FED23A"/>
<path opacity="0.6" d="M260.071 198.717C256.795 202.236 255.089 208.283 255.089 208.283L262.066 212.269V199.619L260.071 198.717Z" fill="white"/>
<path d="M283.255 196.736H271.253C268.056 196.736 265.464 199.635 265.464 203.21V214.274C265.464 217.85 268.056 220.748 271.253 220.748H283.255C286.452 220.748 289.044 217.85 289.044 214.274V203.21C289.044 199.635 286.452 196.736 283.255 196.736Z" fill="#263238"/>
<path d="M275.105 244.793C278.215 269.707 288.31 285.53 288.31 285.53L292.752 284.008C292.752 284.008 282.406 266.293 283.435 241.942L275.105 244.793Z" fill="#EBB376"/>
<path d="M258.221 243.376C256.507 268.459 263.355 286.327 263.355 286.327L267.984 285.9C267.984 285.9 261.259 266.099 266.911 242.578L258.221 243.376Z" fill="#EBB376"/>
<path d="M262.843 284.105L267.559 283.774C267.637 283.765 267.715 283.79 267.777 283.844C267.839 283.899 267.88 283.977 267.89 284.064L268.351 288.227C268.36 288.336 268.349 288.445 268.319 288.549C268.289 288.652 268.241 288.748 268.177 288.83C268.113 288.912 268.035 288.979 267.947 289.026C267.86 289.073 267.764 289.1 267.667 289.105C266.018 289.194 265.226 289.105 263.153 289.266C261.314 289.476 259.463 289.541 257.616 289.459C255.859 289.274 256.075 287.334 256.831 287.245C258.789 286.828 260.617 285.851 262.138 284.411C262.338 284.227 262.585 284.12 262.843 284.105Z" fill="#263238"/>
<path d="M260.597 284.829C260.523 284.755 260.47 284.659 260.443 284.552C260.417 284.445 260.417 284.332 260.446 284.225C260.453 284.155 260.476 284.088 260.512 284.03C260.549 283.973 260.598 283.926 260.655 283.895C261.159 283.638 262.397 284.467 262.541 284.556C262.568 284.585 262.584 284.626 262.584 284.668C262.581 284.689 262.572 284.708 262.559 284.724C262.547 284.74 262.53 284.751 262.512 284.757C262.152 284.884 261.78 284.968 261.403 285.006C261.124 285.063 260.836 284.999 260.597 284.829ZM260.741 284.121C260.711 284.134 260.686 284.156 260.667 284.184C260.648 284.213 260.636 284.246 260.633 284.282C260.618 284.349 260.619 284.418 260.636 284.485C260.652 284.551 260.683 284.611 260.727 284.66C260.935 284.87 261.49 284.853 262.231 284.66C261.727 284.346 261.007 284 260.741 284.145V284.121Z" fill="#FED23A"/>
<path d="M262.44 284.765C262.008 284.523 261.324 283.581 261.389 283.066C261.402 282.972 261.443 282.887 261.504 282.821C261.565 282.756 261.643 282.714 261.727 282.703C261.802 282.69 261.879 282.694 261.952 282.716C262.025 282.739 262.094 282.778 262.152 282.832C262.599 283.259 262.577 284.636 262.584 284.676C262.577 284.711 262.559 284.743 262.534 284.765C262.527 284.768 262.52 284.77 262.512 284.77C262.505 284.77 262.497 284.768 262.491 284.765C262.483 284.771 262.474 284.774 262.465 284.774C262.456 284.774 262.447 284.771 262.44 284.765ZM261.763 282.937C261.627 282.937 261.591 283.05 261.583 283.114C261.693 283.663 261.977 284.15 262.383 284.483C262.407 283.964 262.28 283.45 262.023 283.017C261.995 282.987 261.962 282.964 261.926 282.949C261.89 282.934 261.852 282.927 261.814 282.929L261.763 282.937Z" fill="#FED23A"/>
<path d="M288.043 284.105L292.759 283.774C292.838 283.765 292.916 283.79 292.978 283.844C293.039 283.899 293.08 283.977 293.091 284.064L293.551 288.227C293.56 288.336 293.549 288.445 293.52 288.549C293.49 288.652 293.441 288.748 293.377 288.83C293.313 288.912 293.235 288.979 293.148 289.026C293.06 289.073 292.965 289.1 292.867 289.105C291.219 289.194 290.427 289.105 288.353 289.266C286.514 289.476 284.664 289.541 282.816 289.459C281.059 289.274 281.275 287.334 282.031 287.245C283.989 286.828 285.817 285.851 287.338 284.411C287.538 284.227 287.785 284.12 288.043 284.105Z" fill="#263238"/>
<path d="M285.797 284.829C285.723 284.755 285.67 284.659 285.643 284.552C285.616 284.445 285.617 284.332 285.646 284.225C285.653 284.155 285.676 284.088 285.712 284.03C285.749 283.973 285.798 283.926 285.854 283.895C286.358 283.638 287.597 284.467 287.741 284.556C287.768 284.585 287.784 284.626 287.784 284.668C287.781 284.689 287.772 284.708 287.759 284.724C287.747 284.74 287.73 284.751 287.712 284.757C287.351 284.884 286.98 284.968 286.603 285.006C286.324 285.063 286.036 284.999 285.797 284.829ZM285.941 284.121C285.911 284.134 285.886 284.156 285.867 284.184C285.848 284.213 285.836 284.246 285.833 284.282C285.818 284.349 285.819 284.418 285.836 284.485C285.852 284.551 285.883 284.611 285.926 284.66C286.135 284.87 286.69 284.853 287.431 284.66C286.927 284.346 286.207 284 285.941 284.145V284.121Z" fill="#FED23A"/>
<path d="M287.64 284.765C287.208 284.523 286.524 283.581 286.589 283.066C286.602 282.972 286.643 282.887 286.704 282.821C286.765 282.756 286.843 282.714 286.927 282.703C287.002 282.69 287.079 282.694 287.152 282.716C287.225 282.739 287.294 282.778 287.352 282.832C287.798 283.259 287.777 284.636 287.784 284.676C287.777 284.711 287.759 284.743 287.734 284.765C287.727 284.768 287.72 284.77 287.712 284.77C287.705 284.77 287.697 284.768 287.69 284.765C287.683 284.771 287.674 284.774 287.665 284.774C287.656 284.774 287.647 284.771 287.64 284.765ZM286.963 282.937C286.826 282.937 286.79 283.05 286.783 283.114C286.893 283.663 287.177 284.15 287.582 284.483C287.607 283.964 287.48 283.45 287.222 283.017C287.195 282.987 287.162 282.964 287.126 282.949C287.09 282.934 287.052 282.927 287.014 282.929L286.963 282.937Z" fill="#FED23A"/>
<path d="M259.006 226.103C259.006 226.103 254.88 239.301 255.478 249.624L267.639 249.938C267.639 249.938 268.467 245.107 270.425 242.184C271.429 244.681 272.616 247.081 273.975 249.359L285.617 248.28C285.617 248.28 284.177 240.533 283.831 224.758L259.006 226.103Z" fill="#263238"/>
<path d="M258.862 227.078C258.862 227.078 262.253 206.399 260.071 198.717C260.071 198.717 262.325 195.947 269.899 195.246C277.474 194.546 281.11 196.35 281.11 196.35C281.11 196.35 284.047 211.295 283.817 225.709L258.862 227.078Z" fill="#FED23A"/>
<path opacity="0.7" d="M258.862 227.078C258.862 227.078 262.253 206.399 260.071 198.717C260.071 198.717 262.325 195.947 269.899 195.246C277.474 194.546 281.11 196.35 281.11 196.35C281.11 196.35 284.047 211.295 283.817 225.709L258.862 227.078Z" fill="white"/>
<path d="M278.431 195.085C278.431 195.085 272.729 198.403 274.867 207.687C277.006 216.972 284.321 218.22 284.321 218.22L284.63 216.609C284.63 216.609 276.178 214.717 276.199 206.624C276.221 198.532 280.217 195.971 280.217 195.971C279.66 195.587 279.059 195.289 278.431 195.085Z" fill="#263238"/>
<path d="M265.68 195.955C263.866 197.936 263.75 210.796 260.143 217.503L259.661 216.175C259.661 216.175 261.871 211.947 262.015 207.687C262.159 203.428 262.404 199.144 263.383 196.623C263.889 196.353 264.414 196.13 264.953 195.955C265.192 195.891 265.441 195.891 265.68 195.955Z" fill="#263238"/>
<path opacity="0.2" d="M263.945 203.726C263.945 203.726 263.383 195.947 271.591 195.56C279.619 195.182 275.328 203.347 275.328 203.347L273.168 200.706L267.66 203.242L265.68 201.688L263.945 203.726Z" fill="black"/>
<path d="M263.52 201.68C263.52 201.68 264.679 194.224 271.742 193.966C278.806 193.708 276.321 201.672 276.321 201.672L273.492 199.257L267.545 202.759L265.385 200.303L263.52 201.68Z" fill="#FED23A"/>
<path opacity="0.6" d="M263.52 201.68C263.52 201.68 264.679 194.224 271.742 193.966C278.806 193.708 276.321 201.672 276.321 201.672L273.492 199.257L267.545 202.759L265.385 200.303L263.52 201.68Z" fill="white"/>
<path d="M274.522 196.607L273.931 196.962L268.495 200.183L266.263 197.767C266.537 197.417 266.763 197.024 266.933 196.599C267.118 196.134 267.218 195.633 267.228 195.124C267.238 194.615 267.157 194.109 266.99 193.636C266.694 192.788 266.237 192.022 265.651 191.389L268.15 190.343L273.643 188.04C271.57 193.402 274.522 196.607 274.522 196.607Z" fill="#EBB376"/>
<path opacity="0.2" d="M274.522 196.607L273.931 196.962C271.379 196.644 268.966 195.496 266.99 193.66C266.694 192.812 266.237 192.046 265.651 191.413L268.15 190.367L273.643 188.064C271.57 193.402 274.522 196.607 274.522 196.607Z" fill="black"/>
<path d="M275.429 172.901C275.429 172.901 281.484 178.288 274.925 184.368C267.516 191.228 275.429 172.901 275.429 172.901Z" fill="#263238"/>
<path d="M261.072 182.266C261.475 187.419 264.161 193.08 267.998 193.789C275.04 195.077 277.762 193.523 278.446 187.685C279.094 182.427 277.308 174.173 271.483 172.748C265.658 171.323 260.51 175.123 261.072 182.266Z" fill="#EBB376"/>
<path d="M276.178 176.347C274.001 177.228 271.651 177.428 269.381 176.927C269.381 176.927 266.58 177.491 267.221 181.018C267.862 184.545 264.24 186.526 264.168 191.212C264.168 191.212 259.79 190.697 258.97 180.454C258.365 172.998 264.125 169.986 270.079 169.986C275.09 170.018 278.64 173.972 276.178 176.347Z" fill="#263238"/>
<path d="M271.627 183.595C271.663 184.247 272.002 184.77 272.383 184.738C272.765 184.706 273.046 184.158 273.017 183.506C272.988 182.854 272.642 182.338 272.261 182.363C271.879 182.387 271.598 182.91 271.627 183.595Z" fill="#263238"/>
<path d="M276.3 183.015C276.3 183.635 276.653 184.134 277.02 184.102C277.387 184.07 277.654 183.554 277.625 182.926C277.596 182.298 277.265 181.815 276.905 181.831C276.545 181.847 276.271 182.387 276.3 183.015Z" fill="#263238"/>
<path d="M273.146 180.164C273.188 180.124 273.218 180.071 273.233 180.011C273.238 179.972 273.236 179.932 273.227 179.894C273.218 179.856 273.202 179.82 273.181 179.788C273.16 179.757 273.133 179.73 273.102 179.71C273.071 179.691 273.037 179.678 273.002 179.673C272.588 179.602 272.165 179.643 271.767 179.793C271.37 179.943 271.011 180.197 270.72 180.535C270.671 180.59 270.643 180.666 270.643 180.744C270.643 180.822 270.671 180.898 270.72 180.953C270.772 181.003 270.838 181.031 270.907 181.031C270.976 181.031 271.042 181.003 271.094 180.953C271.329 180.687 271.618 180.489 271.937 180.377C272.256 180.264 272.594 180.241 272.923 180.309C272.968 180.307 273.012 180.293 273.051 180.268C273.09 180.243 273.123 180.207 273.146 180.164Z" fill="#263238"/>
<path d="M277.711 180.148C277.763 180.132 277.81 180.101 277.848 180.06C277.889 179.995 277.905 179.915 277.894 179.837C277.884 179.759 277.846 179.689 277.79 179.641C277.457 179.355 277.067 179.163 276.654 179.081C276.24 179 275.815 179.032 275.414 179.174C275.382 179.188 275.352 179.209 275.327 179.237C275.301 179.264 275.281 179.296 275.267 179.332C275.253 179.368 275.245 179.407 275.245 179.446C275.244 179.485 275.25 179.524 275.263 179.56C275.29 179.631 275.34 179.687 275.403 179.719C275.466 179.75 275.537 179.754 275.602 179.729C275.922 179.622 276.261 179.603 276.59 179.675C276.919 179.746 277.227 179.906 277.488 180.14C277.522 180.159 277.56 180.17 277.599 180.172C277.637 180.173 277.676 180.165 277.711 180.148Z" fill="#263238"/>
<path d="M275.422 183.828L274.947 186.647C275.574 186.782 276.224 186.703 276.811 186.421C276.212 185.658 275.741 184.779 275.422 183.828Z" fill="#D58745"/>
<path d="M278.568 185.02C278.568 185.02 278.028 185.479 275.904 185.02C274.896 184.786 273.211 186.88 270.144 187.323L265.061 184.352L269.316 187.742C269.27 189.374 269.003 190.99 268.524 192.533C266.71 191.436 265.018 190.104 263.484 188.563C263.484 188.563 267.703 193.765 271.087 194.087C277.294 194.667 278.827 191.534 278.827 191.534C279.576 190.109 279.598 186.896 278.568 185.02Z" fill="#FED23A"/>
<path d="M266.314 185.302C266.314 185.302 265.003 182.177 263.57 183.232C262.138 184.287 262.584 189.561 264.758 189.481C266.933 189.4 267.35 186.968 266.314 185.302Z" fill="#EBB376"/>
<path d="M255.053 210.868C256.162 209.257 260.482 203.717 260.482 203.717C260.482 203.717 260.439 201.97 260.842 201.431C261.245 200.891 264.73 199.933 265.075 200.319C265.421 200.706 265.486 206.037 264.73 206.608C263.974 207.18 260.842 207.526 260.842 207.526C260.842 207.526 258.271 218.333 255.082 218.244C251.892 218.155 253.332 213.388 255.053 210.868Z" fill="#EBB376"/>
<path d="M285.588 206.665C285.588 206.665 287.683 217.608 284.631 218.8C281.578 219.991 281.52 207.172 281.52 207.172L285.588 206.665Z" fill="#EBB376"/>
<path d="M281.11 196.35C284.494 197.855 286.344 205.207 287.129 209.233L280.368 211.086C279.489 208.421 279.003 205.614 278.928 202.775C278.871 200.396 279.655 198.087 281.11 196.35Z" fill="#FED23A"/>
<path opacity="0.6" d="M281.11 196.35C284.494 197.855 286.344 205.207 287.129 209.233L280.368 211.086C279.489 208.421 279.003 205.614 278.928 202.775C278.871 200.396 279.655 198.087 281.11 196.35Z" fill="white"/>
<path d="M283.68 211.641C282.578 210.031 278.258 204.491 278.258 204.491C278.258 204.491 278.294 202.743 277.898 202.204C277.502 201.664 274.003 200.698 273.658 201.092C273.312 201.487 273.247 206.81 274.003 207.381C274.759 207.953 277.898 208.291 277.898 208.291C277.898 208.291 280.469 219.098 283.658 219.009C286.848 218.92 285.422 214.194 283.68 211.641Z" fill="#EBB376"/>
<path d="M247.838 287.148H246.146V222.423H244.152V287.148H242.46L240.3 289.532H244.152H246.146H249.998L247.838 287.148Z" fill="#FED23A"/>
<path d="M251.791 208.799H238.385V223.792H251.791V208.799Z" fill="#FED23A"/>
<path opacity="0.6" d="M251.791 208.799H239.141V223.792H251.791V208.799Z" fill="white"/>
<path d="M173.254 201.769C173.254 201.769 169.733 206.761 168.012 206.326C166.291 205.892 161.446 202.083 161.446 202.083C161.444 201.605 161.321 201.138 161.091 200.734C160.862 200.331 160.536 200.009 160.15 199.804C158.753 198.934 153.59 200.682 153.446 202.22C153.302 203.758 153.626 205.98 159.336 204.176C159.718 204.056 165.492 210.401 167.818 211.118C170.143 211.834 175.018 207.341 175.018 207.341L173.254 201.769Z" fill="#EBB376"/>
<path d="M172.318 177.652C171.027 182.959 170.596 188.481 171.043 193.958C171.043 193.958 170.287 192.734 189.799 191.244C189.799 191.244 191.196 175.317 183.686 174.463C176.177 173.61 172.318 177.652 172.318 177.652Z" fill="#263238"/>
<path d="M196.855 196.736H184.853C181.656 196.736 179.064 199.635 179.064 203.21V214.274C179.064 217.85 181.656 220.748 184.853 220.748H196.855C200.052 220.748 202.644 217.85 202.644 214.274V203.21C202.644 199.635 200.052 196.736 196.855 196.736Z" fill="#263238"/>
<path d="M173.671 198.717C173.671 198.717 170.87 201.89 167.688 205.159L170.568 211.239C170.568 211.239 177.624 210.514 176.954 205.537C176.285 200.561 173.671 198.717 173.671 198.717Z" fill="#FED23A"/>
<path opacity="0.6" d="M173.671 198.717C173.671 198.717 170.87 201.89 167.688 205.159L170.568 211.239C170.568 211.239 177.624 210.514 176.954 205.537C176.285 200.561 173.671 198.717 173.671 198.717Z" fill="white"/>
<path d="M184.385 244.793C187.495 269.707 197.59 285.53 197.59 285.53L202.032 284.008C202.032 284.008 191.686 266.293 192.715 241.942L184.385 244.793Z" fill="#EBB376"/>
<path d="M174.701 243.375C172.987 268.459 179.835 286.327 179.835 286.327L184.464 285.9C184.464 285.9 177.739 266.099 183.391 242.578L174.701 243.375Z" fill="#EBB376"/>
<path d="M179.323 284.105L184.039 283.774C184.117 283.765 184.195 283.79 184.257 283.844C184.319 283.899 184.36 283.977 184.37 284.064L184.831 288.227C184.84 288.336 184.829 288.445 184.799 288.549C184.769 288.652 184.721 288.748 184.657 288.83C184.593 288.912 184.515 288.979 184.427 289.026C184.34 289.073 184.244 289.1 184.147 289.105C182.498 289.194 181.706 289.105 179.633 289.266C177.794 289.476 175.943 289.541 174.096 289.459C172.339 289.274 172.555 287.334 173.311 287.245C175.269 286.828 177.097 285.851 178.618 284.411C178.818 284.227 179.065 284.12 179.323 284.105Z" fill="#263238"/>
<path d="M177.077 284.829C177.003 284.755 176.95 284.659 176.923 284.552C176.896 284.445 176.897 284.332 176.926 284.225C176.933 284.155 176.955 284.088 176.992 284.03C177.028 283.973 177.077 283.926 177.134 283.895C177.638 283.638 178.877 284.467 179.021 284.556C179.048 284.585 179.063 284.626 179.064 284.668C179.061 284.689 179.052 284.708 179.039 284.724C179.027 284.74 179.01 284.751 178.992 284.757C178.631 284.884 178.26 284.968 177.883 285.006C177.604 285.063 177.316 284.999 177.077 284.829ZM177.221 284.121C177.191 284.134 177.166 284.156 177.147 284.184C177.127 284.213 177.116 284.246 177.113 284.282C177.098 284.349 177.099 284.418 177.116 284.485C177.132 284.551 177.163 284.611 177.206 284.66C177.415 284.87 177.97 284.853 178.711 284.66C178.207 284.346 177.487 284 177.221 284.145V284.121Z" fill="#FED23A"/>
<path d="M178.92 284.765C178.488 284.523 177.804 283.581 177.869 283.066C177.882 282.972 177.923 282.887 177.984 282.821C178.045 282.756 178.123 282.714 178.207 282.703C178.282 282.69 178.359 282.694 178.432 282.716C178.505 282.739 178.574 282.778 178.632 282.832C179.079 283.259 179.057 284.636 179.064 284.676C179.057 284.711 179.039 284.743 179.014 284.765C179.007 284.768 179 284.77 178.992 284.77C178.985 284.77 178.977 284.768 178.971 284.765C178.963 284.771 178.954 284.774 178.945 284.774C178.936 284.774 178.927 284.771 178.92 284.765ZM178.243 282.937C178.107 282.937 178.071 283.05 178.063 283.114C178.173 283.663 178.457 284.15 178.863 284.483C178.887 283.964 178.76 283.45 178.503 283.017C178.475 282.987 178.442 282.964 178.406 282.949C178.37 282.934 178.332 282.927 178.294 282.929L178.243 282.937Z" fill="#FED23A"/>
<path d="M197.323 284.105L202.039 283.774C202.117 283.765 202.196 283.79 202.257 283.844C202.319 283.899 202.36 283.977 202.37 284.064L202.831 288.227C202.84 288.336 202.829 288.445 202.799 288.549C202.769 288.652 202.721 288.748 202.657 288.83C202.593 288.912 202.515 288.979 202.427 289.026C202.34 289.073 202.244 289.1 202.147 289.105C200.498 289.194 199.706 289.105 197.633 289.266C195.794 289.476 193.943 289.541 192.096 289.459C190.339 289.274 190.555 287.334 191.311 287.245C193.269 286.828 195.097 285.851 196.618 284.411C196.818 284.227 197.065 284.12 197.323 284.105Z" fill="#263238"/>
<path d="M195.077 284.829C195.003 284.755 194.95 284.659 194.923 284.552C194.896 284.445 194.897 284.332 194.925 284.225C194.933 284.155 194.955 284.088 194.992 284.03C195.028 283.973 195.077 283.926 195.134 283.895C195.638 283.638 196.877 284.467 197.021 284.556C197.048 284.585 197.063 284.626 197.064 284.668C197.061 284.689 197.052 284.708 197.039 284.724C197.027 284.74 197.01 284.751 196.992 284.757C196.631 284.884 196.26 284.968 195.883 285.006C195.604 285.063 195.316 284.999 195.077 284.829ZM195.221 284.121C195.191 284.134 195.165 284.156 195.146 284.184C195.127 284.213 195.116 284.246 195.113 284.282C195.098 284.349 195.099 284.418 195.115 284.485C195.132 284.551 195.163 284.611 195.206 284.66C195.415 284.87 195.969 284.853 196.711 284.66C196.207 284.346 195.487 284 195.221 284.145V284.121Z" fill="#FED23A"/>
<path d="M196.92 284.765C196.488 284.523 195.804 283.581 195.869 283.066C195.882 282.972 195.923 282.887 195.984 282.821C196.045 282.756 196.123 282.714 196.207 282.703C196.282 282.69 196.359 282.694 196.432 282.716C196.505 282.739 196.574 282.778 196.632 282.832C197.079 283.259 197.057 284.636 197.064 284.676C197.057 284.711 197.039 284.743 197.014 284.765C197.007 284.768 197 284.77 196.992 284.77C196.985 284.77 196.977 284.768 196.971 284.765C196.963 284.771 196.954 284.774 196.945 284.774C196.936 284.774 196.927 284.771 196.92 284.765ZM196.243 282.937C196.107 282.937 196.071 283.05 196.063 283.114C196.173 283.663 196.457 284.15 196.863 284.483C196.887 283.964 196.76 283.45 196.503 283.017C196.475 282.987 196.442 282.964 196.406 282.949C196.37 282.934 196.332 282.927 196.294 282.929L196.243 282.937Z" fill="#FED23A"/>
<path d="M173.606 223.18C173.606 223.18 175.853 206.399 173.671 198.717C173.671 198.717 175.925 195.947 183.499 195.246C191.074 194.546 194.71 196.35 194.71 196.35C196.091 205.449 196.744 214.668 196.661 223.897L173.606 223.18Z" fill="#FED23A"/>
<path opacity="0.7" d="M173.606 223.18C173.606 223.18 175.853 206.399 173.671 198.717C173.671 198.717 175.925 195.947 183.499 195.246C191.074 194.546 194.71 196.35 194.71 196.35C196.091 205.449 196.744 214.668 196.661 223.897L173.606 223.18Z" fill="white"/>
<path d="M192.031 195.085C192.031 195.085 186.329 198.403 188.467 207.687C190.606 216.972 197.921 218.22 197.921 218.22L198.23 216.609C198.23 216.609 189.778 214.717 189.799 206.624C189.821 198.532 193.817 195.971 193.817 195.971C193.26 195.587 192.659 195.289 192.031 195.085Z" fill="#263238"/>
<path d="M179.28 195.955C177.466 197.936 177.35 210.796 173.743 217.503L173.261 216.175C173.261 216.175 175.471 211.947 175.615 207.687C175.759 203.428 176.004 199.144 176.983 196.623C177.489 196.353 178.014 196.13 178.553 195.955C178.792 195.891 179.041 195.891 179.28 195.955Z" fill="#263238"/>
<path opacity="0.2" d="M177.545 203.726C177.545 203.726 176.983 195.947 185.191 195.56C193.219 195.182 188.928 203.347 188.928 203.347L186.768 200.706L181.26 203.242L179.28 201.688L177.545 203.726Z" fill="black"/>
<path d="M177.12 201.68C177.12 201.68 178.279 194.224 185.343 193.966C192.406 193.708 189.922 201.672 189.922 201.672L187.092 199.257L181.145 202.759L178.985 200.303L177.12 201.68Z" fill="#FED23A"/>
<path opacity="0.6" d="M177.12 201.68C177.12 201.68 178.279 194.224 185.343 193.966C192.406 193.708 189.922 201.672 189.922 201.672L187.092 199.257L181.145 202.759L178.985 200.303L177.12 201.68Z" fill="white"/>
<path d="M188.122 196.607L182.095 200.199L179.863 197.783C180.137 197.433 180.363 197.04 180.533 196.615C181.649 193.829 179.251 191.405 179.251 191.405L181.75 190.359L187.243 188.056C185.17 193.402 188.122 196.607 188.122 196.607Z" fill="#EBB376"/>
<path opacity="0.2" d="M186.48 190.367C186.48 190.367 184.32 196.148 180.533 196.623C181.649 193.837 179.251 191.414 179.251 191.414L181.75 190.367H186.48Z" fill="black"/>
<path d="M173.873 173.835C173.873 173.835 168.984 180.551 176.544 184.923C185.09 189.859 173.873 173.835 173.873 173.835Z" fill="#263238"/>
<path d="M189.684 179.568C190.267 184.698 188.719 190.842 185.105 192.452C178.474 195.391 175.522 194.522 173.736 188.982C172.109 183.997 172.296 175.502 177.696 172.724C183.096 169.946 188.87 172.458 189.684 179.568Z" fill="#EBB376"/>
<path d="M173.794 177.362C176.086 177.704 178.418 177.342 180.54 176.315C180.54 176.315 183.384 176.194 183.42 179.794C183.456 183.393 187.387 184.472 188.352 189.03C188.352 189.03 192.528 187.492 191.383 177.29C190.534 169.849 184.32 168.295 178.56 169.736C173.65 170.944 170.907 175.655 173.794 177.362Z" fill="#263238"/>
<path d="M179.611 183.353C179.705 183.997 179.475 184.585 179.093 184.649C178.711 184.714 178.337 184.239 178.243 183.595C178.15 182.95 178.38 182.371 178.762 182.298C179.143 182.226 179.518 182.701 179.611 183.353Z" fill="#263238"/>
<path d="M174.96 183.925C175.046 184.545 174.823 185.108 174.463 185.165C174.103 185.221 173.743 184.778 173.642 184.158C173.542 183.538 173.779 182.983 174.139 182.918C174.499 182.854 174.852 183.305 174.96 183.925Z" fill="#263238"/>
<path d="M177.48 180.374C177.431 180.34 177.392 180.293 177.365 180.237C177.344 180.162 177.349 180.081 177.38 180.011C177.411 179.94 177.465 179.886 177.531 179.858C177.922 179.688 178.345 179.626 178.762 179.678C179.18 179.73 179.58 179.894 179.928 180.156C179.983 180.204 180.018 180.273 180.028 180.35C180.037 180.427 180.02 180.504 179.979 180.567C179.934 180.625 179.872 180.662 179.804 180.672C179.737 180.683 179.668 180.665 179.611 180.623C179.33 180.42 179.008 180.298 178.674 180.265C178.341 180.233 178.005 180.292 177.696 180.438C177.62 180.447 177.543 180.424 177.48 180.374Z" fill="#263238"/>
<path d="M173.023 181.461C172.967 181.461 172.913 181.444 172.865 181.412C172.816 181.354 172.79 181.278 172.79 181.199C172.79 181.12 172.816 181.044 172.865 180.986C173.137 180.627 173.483 180.347 173.873 180.171C174.263 179.994 174.685 179.925 175.104 179.971C175.138 179.976 175.17 179.988 175.2 180.008C175.229 180.027 175.255 180.053 175.275 180.084C175.295 180.115 175.31 180.15 175.317 180.188C175.325 180.225 175.326 180.264 175.32 180.301C175.309 180.377 175.272 180.446 175.217 180.493C175.162 180.539 175.093 180.56 175.025 180.551C174.691 180.523 174.356 180.586 174.048 180.734C173.741 180.883 173.471 181.113 173.261 181.404C173.228 181.434 173.189 181.455 173.148 181.465C173.107 181.474 173.064 181.473 173.023 181.461Z" fill="#263238"/>
<path d="M175.961 184.513L176.954 187.154C176.37 187.437 175.722 187.516 175.097 187.379C175.538 186.49 175.83 185.519 175.961 184.513Z" fill="#D58745"/>
<path d="M173.11 186.429C173.11 186.429 173.729 186.751 175.709 185.761C176.652 185.294 178.69 186.944 181.742 186.646L186.149 182.54L182.635 186.864C182.992 188.445 183.56 189.957 184.32 191.349C185.875 189.845 187.267 188.143 188.467 186.276C188.467 186.276 185.335 192.372 182.088 193.483C176.134 195.536 174.038 192.839 174.038 192.839C173.095 191.647 172.462 188.506 173.11 186.429Z" fill="#FED23A"/>
<path d="M185.134 183.788C185.134 183.788 185.854 180.422 187.423 181.106C188.993 181.791 189.583 187.065 187.423 187.5C185.263 187.935 184.442 185.664 185.134 183.788Z" fill="#EBB376"/>
<path d="M191.138 192.549C191.394 191.397 191.536 190.217 191.563 189.03C191.963 190.058 192.239 191.141 192.384 192.251C193.382 191.976 194.348 191.573 195.264 191.051C195.264 191.051 194.501 172.2 187.344 170.469C180.187 168.738 176.249 170.638 176.249 170.638C176.249 170.638 170.87 172.893 171.058 179.158C173.439 178.748 175.851 178.605 178.258 178.731L179.1 176.919L179.287 179.158L185.184 179.697C185.184 179.697 189.259 182.113 187.819 192.959C188.934 192.92 190.043 192.783 191.138 192.549Z" fill="#263238"/>
<path d="M192.391 202.494C192.391 202.494 186.3 208.839 184.831 209.242C183.363 209.644 177.106 207.067 177.106 207.067C177.106 207.067 176.242 206.214 174.593 207.067C171.857 208.493 169.553 209.87 170.626 211.955C171.699 214.041 172.613 215.104 173.131 214.983C173.65 214.862 177.415 213.235 178.042 211.166C178.042 211.166 182.434 213.356 185.242 213.219C188.05 213.082 193.81 208.742 193.81 208.742L192.391 202.494Z" fill="#EBB376"/>
<path d="M194.71 196.349C197.179 197.155 198.994 201.64 197.194 206.246C196.732 207.541 195.983 208.683 195.017 209.564C194.05 210.445 192.899 211.035 191.671 211.279L188.467 206.447C189.8 205.044 190.776 203.272 191.297 201.31C192.355 197.791 193.493 195.955 194.71 196.349Z" fill="#FED23A"/>
<path opacity="0.6" d="M194.71 196.349C197.179 197.155 198.994 201.64 197.194 206.246C196.732 207.541 195.983 208.683 195.017 209.564C194.05 210.445 192.899 211.035 191.671 211.279L188.467 206.447C189.8 205.044 190.776 203.272 191.297 201.31C192.355 197.791 193.493 195.955 194.71 196.349Z" fill="white"/>
<path d="M173.894 220.748L173.614 223.18L196.682 223.502L196.675 221.465L173.894 220.748Z" fill="black"/>
<path d="M173.606 223.18C171.072 226.868 168.221 241.242 168.782 251.573C168.782 251.573 172.339 254.158 184.118 254.158C193.817 254.158 200.189 251.927 200.189 251.927C198.871 243.569 197.834 224.46 196.682 223.502L173.606 223.18Z" fill="#263238"/>
<path d="M178.56 221.441L178.481 222.673C178.477 222.743 178.486 222.814 178.506 222.881C178.527 222.947 178.56 223.009 178.602 223.061C178.644 223.114 178.695 223.156 178.752 223.186C178.809 223.216 178.871 223.233 178.934 223.236L181.937 223.333C181.937 223.333 182.03 222.27 182.074 221.594C182.076 221.523 182.067 221.452 182.045 221.385C182.024 221.319 181.99 221.257 181.948 221.205C181.905 221.153 181.853 221.11 181.796 221.08C181.738 221.05 181.676 221.033 181.613 221.03L179.042 220.95C178.921 220.945 178.802 220.994 178.712 221.086C178.622 221.177 178.567 221.305 178.56 221.441Z" fill="white"/>
<path d="M187.337 221.175V223.897L188.222 223.889V221.183L187.337 221.175Z" fill="#263238"/>
<path d="M176.242 220.829L176.047 223.502H175.19L175.406 220.748L176.242 220.829Z" fill="#263238"/>
<path d="M119.059 271.366C119.198 271.05 119.267 270.701 119.258 270.349C119.25 269.997 119.165 269.652 119.012 269.345C118.858 269.037 118.64 268.776 118.376 268.584C118.112 268.392 117.81 268.274 117.497 268.241C117.768 267.343 117.787 266.373 117.551 265.462C117.316 264.551 116.837 263.743 116.179 263.144C116.02 262.981 115.818 262.882 115.603 262.862C115.375 262.888 115.16 262.995 114.991 263.168L111.341 266.099C111.047 266.3 110.8 266.576 110.621 266.905C109.901 268.515 112.565 270.593 111.463 271.921C111.146 272.308 110.635 272.388 110.239 272.662C109.368 273.274 109.26 274.603 108.857 275.658C108.454 276.712 107.042 277.526 106.502 276.551C106.898 275.545 105.696 274.675 104.717 274.546C103.738 274.418 102.715 274.353 102.168 273.33C100.778 274.683 97.6681 270.915 97.7401 269.369C97.1942 269.483 96.6934 269.783 96.3065 270.229C95.9197 270.675 95.6659 271.243 95.5801 271.857C95.4226 273.118 95.384 274.395 95.4649 275.666C95.4289 278.146 94.7449 280.57 94.7449 283.042C94.7809 284.966 95.4649 287.108 97.0201 287.873C97.8049 288.182 98.638 288.308 99.4681 288.244L117.418 288.115C117.848 288.143 118.279 288.063 118.678 287.881C119.491 287.406 119.664 286.214 119.736 285.2C120.058 280.835 120.379 276.474 120.701 272.115L119.059 271.366Z" fill="#FED23A"/>
<path opacity="0.3" d="M119.059 271.366C119.198 271.05 119.267 270.701 119.258 270.349C119.25 269.997 119.165 269.652 119.012 269.345C118.858 269.037 118.64 268.776 118.376 268.584C118.112 268.392 117.81 268.274 117.497 268.241C117.768 267.343 117.787 266.373 117.551 265.462C117.316 264.551 116.837 263.743 116.179 263.144C116.02 262.981 115.818 262.882 115.603 262.862C115.375 262.888 115.16 262.995 114.991 263.168L111.341 266.099C111.047 266.3 110.8 266.576 110.621 266.905C109.901 268.515 112.565 270.593 111.463 271.921C111.146 272.308 110.635 272.388 110.239 272.662C109.368 273.274 109.26 274.603 108.857 275.658C108.454 276.712 107.042 277.526 106.502 276.551C106.898 275.545 105.696 274.675 104.717 274.546C103.738 274.418 102.715 274.353 102.168 273.33C100.778 274.683 97.6681 270.915 97.7401 269.369C97.1942 269.483 96.6934 269.783 96.3065 270.229C95.9197 270.675 95.6659 271.243 95.5801 271.857C95.4226 273.118 95.384 274.395 95.4649 275.666C95.4289 278.146 94.7449 280.57 94.7449 283.042C94.7809 284.966 95.4649 287.108 97.0201 287.873C97.8049 288.182 98.638 288.308 99.4681 288.244L117.418 288.115C117.848 288.143 118.279 288.063 118.678 287.881C119.491 287.406 119.664 286.214 119.736 285.2C120.058 280.835 120.379 276.474 120.701 272.115L119.059 271.366Z" fill="white"/>
<path d="M120.11 250.164H92.2537L92.4841 253.312L92.6497 255.559L93.0745 261.405L93.3121 264.771L93.6361 269.24L93.7729 271.156L93.8161 271.728L93.9817 273.983L94.2049 277.075L94.3417 278.991L94.4857 280.94L94.6513 283.187L94.7737 284.894L94.9105 286.81L94.9681 287.615H120.535L120.593 286.81L120.73 284.902L120.859 283.187L121.018 280.932L121.162 278.991L121.298 277.075L121.522 273.975L121.687 271.728L121.723 271.156L121.867 269.24L122.191 264.771L122.436 261.413L122.854 255.559L123.012 253.312L123.242 250.164H120.11ZM121.788 252.225L121.248 251.629H121.831L121.788 252.225ZM121.644 254.142L121.594 254.899L119.102 257.677L116.222 254.456L118.778 251.597H119.383L121.644 254.142ZM120.96 264.119L119.131 266.156L116.251 262.935L119.131 259.714L121.104 261.92L120.96 264.119ZM94.4497 261.977L96.4297 259.77L99.3097 262.991L96.4297 266.212L94.5793 264.119L94.4497 261.977ZM118.21 258.756L115.33 261.977L112.45 258.756L115.33 255.535L118.21 258.756ZM113.71 251.662H116.986L115.344 253.489L113.71 251.662ZM114.43 262.983L111.55 266.204L108.67 262.983L111.55 259.762L114.43 262.983ZM104.933 267.211L107.813 263.99L110.693 267.211L107.813 270.432L104.933 267.211ZM106.87 271.446L103.99 274.667L101.11 271.446L103.99 268.225L106.87 271.446ZM111.578 268.225L114.458 271.446L111.578 274.667L108.698 271.446L111.578 268.225ZM107.798 261.92L104.918 258.699L107.798 255.478L110.678 258.699L107.798 261.92ZM106.87 262.951L103.99 266.172L101.11 262.951L103.99 259.73L106.87 262.951ZM100.224 261.92L97.3441 258.699L100.224 255.478L103.104 258.699L100.224 261.92ZM100.224 263.99L103.104 267.211L100.224 270.432L97.3441 267.211L100.224 263.99ZM103.104 275.65L100.224 278.871L97.3441 275.65L100.224 272.429L103.104 275.65ZM104.026 276.68L106.906 279.901L104.026 283.122L101.146 279.901L104.026 276.68ZM104.954 275.65L107.834 272.429L110.714 275.65L107.834 278.871L104.954 275.65ZM111.6 276.68L114.48 279.901L111.6 283.122L108.72 279.901L111.6 276.68ZM115.38 280.916L118.26 284.137L116.402 286.206H114.386L112.536 284.137L115.38 280.916ZM112.5 275.65L115.38 272.429L118.26 275.65L115.38 278.871L112.5 275.65ZM112.5 267.179L115.38 263.958L118.26 267.179L115.38 270.399L112.5 267.179ZM114.386 254.456L111.506 257.677L108.626 254.456L111.182 251.597H111.787L114.386 254.456ZM107.755 253.425L106.114 251.597H109.382L107.755 253.425ZM106.826 254.456L103.946 257.677L101.066 254.456L103.622 251.597H104.227L106.826 254.456ZM101.786 251.597L100.152 253.425L98.5249 251.597H101.786ZM96.6673 251.597L99.2305 254.456L96.3505 257.677L93.8593 254.891L93.8089 254.134L96.0481 251.621L96.6673 251.597ZM94.2193 251.597L93.6937 252.185L93.6433 251.597H94.2193ZM94.0465 257.121L95.4433 258.691L94.3201 260.092L94.0465 257.121ZM94.8241 267.847L94.7161 266.333L95.4361 267.138L94.8169 267.839L94.8241 267.847ZM94.9609 269.771L96.4009 268.161L99.2809 271.382L96.4009 274.603L95.2489 273.314L94.9609 269.771ZM95.3857 275.682V275.545L95.4505 275.617L95.3929 275.682H95.3857ZM95.8825 282.502L95.5225 277.598L96.3721 276.648L99.2521 279.869L96.3721 283.09L95.8825 282.551V282.502ZM96.1489 286.15L96.0913 285.417L96.3721 285.111L97.3009 286.15H96.1489ZM97.3009 284.081L100.181 280.86L103.061 284.081L101.21 286.15H99.1945L97.3009 284.081ZM103.01 286.15L103.939 285.111L104.868 286.15H103.01ZM106.718 286.15L104.861 284.081L107.741 280.86L110.621 284.081L108.778 286.15H106.718ZM110.578 286.15L111.506 285.111L112.435 286.15H110.578ZM119.297 286.15H118.145L119.074 285.111L119.347 285.417L119.297 286.15ZM119.563 282.502L119.074 283.042L116.194 279.821L119.074 276.6L119.916 277.55L119.563 282.502ZM120.067 275.537V275.682L120.01 275.617L120.082 275.537H120.067ZM120.233 273.29L119.074 274.579L116.194 271.358L119.074 268.137L120.514 269.747L120.233 273.29ZM120.622 267.855L119.995 267.146L120.715 266.341L120.622 267.855ZM121.406 257.113L121.19 260.028L119.995 258.691L121.435 257.081L121.406 257.113Z" fill="#FED23A"/>
<g opacity="0.6">
<path opacity="0.6" d="M120.11 250.164H92.2537L92.4841 253.312L92.6497 255.559L93.0745 261.405L93.3121 264.771L93.6361 269.24L93.7729 271.156L93.8161 271.728L93.9817 273.983L94.2049 277.075L94.3417 278.991L94.4857 280.94L94.6513 283.187L94.7737 284.894L94.9105 286.81L94.9681 287.615H120.535L120.593 286.81L120.73 284.902L120.859 283.187L121.018 280.932L121.162 278.991L121.298 277.075L121.522 273.975L121.687 271.728L121.723 271.156L121.867 269.24L122.191 264.771L122.436 261.413L122.854 255.559L123.012 253.312L123.242 250.164H120.11ZM121.788 252.225L121.248 251.629H121.831L121.788 252.225ZM121.644 254.142L121.594 254.899L119.102 257.677L116.222 254.456L118.778 251.597H119.383L121.644 254.142ZM120.96 264.119L119.131 266.156L116.251 262.935L119.131 259.714L121.104 261.92L120.96 264.119ZM94.4497 261.977L96.4297 259.77L99.3097 262.991L96.4297 266.212L94.5793 264.119L94.4497 261.977ZM118.21 258.756L115.33 261.977L112.45 258.756L115.33 255.535L118.21 258.756ZM113.71 251.662H116.986L115.344 253.489L113.71 251.662ZM114.43 262.983L111.55 266.204L108.67 262.983L111.55 259.762L114.43 262.983ZM104.933 267.211L107.813 263.99L110.693 267.211L107.813 270.432L104.933 267.211ZM106.87 271.446L103.99 274.667L101.11 271.446L103.99 268.225L106.87 271.446ZM111.578 268.225L114.458 271.446L111.578 274.667L108.698 271.446L111.578 268.225ZM107.798 261.92L104.918 258.699L107.798 255.478L110.678 258.699L107.798 261.92ZM106.87 262.951L103.99 266.172L101.11 262.951L103.99 259.73L106.87 262.951ZM100.224 261.92L97.3441 258.699L100.224 255.478L103.104 258.699L100.224 261.92ZM100.224 263.99L103.104 267.211L100.224 270.432L97.3441 267.211L100.224 263.99ZM103.104 275.65L100.224 278.871L97.3441 275.65L100.224 272.429L103.104 275.65ZM104.026 276.68L106.906 279.901L104.026 283.122L101.146 279.901L104.026 276.68ZM104.954 275.65L107.834 272.429L110.714 275.65L107.834 278.871L104.954 275.65ZM111.6 276.68L114.48 279.901L111.6 283.122L108.72 279.901L111.6 276.68ZM115.38 280.916L118.26 284.137L116.402 286.206H114.386L112.536 284.137L115.38 280.916ZM112.5 275.65L115.38 272.429L118.26 275.65L115.38 278.871L112.5 275.65ZM112.5 267.179L115.38 263.958L118.26 267.179L115.38 270.399L112.5 267.179ZM114.386 254.456L111.506 257.677L108.626 254.456L111.182 251.597H111.787L114.386 254.456ZM107.755 253.425L106.114 251.597H109.382L107.755 253.425ZM106.826 254.456L103.946 257.677L101.066 254.456L103.622 251.597H104.227L106.826 254.456ZM101.786 251.597L100.152 253.425L98.5249 251.597H101.786ZM96.6673 251.597L99.2305 254.456L96.3505 257.677L93.8593 254.891L93.8089 254.134L96.0481 251.621L96.6673 251.597ZM94.2193 251.597L93.6937 252.185L93.6433 251.597H94.2193ZM94.0465 257.121L95.4433 258.691L94.3201 260.092L94.0465 257.121ZM94.8241 267.847L94.7161 266.333L95.4361 267.138L94.8169 267.839L94.8241 267.847ZM94.9609 269.771L96.4009 268.161L99.2809 271.382L96.4009 274.603L95.2489 273.314L94.9609 269.771ZM95.3857 275.682V275.545L95.4505 275.617L95.3929 275.682H95.3857ZM95.8825 282.502L95.5225 277.598L96.3721 276.648L99.2521 279.869L96.3721 283.09L95.8825 282.551V282.502ZM96.1489 286.15L96.0913 285.417L96.3721 285.111L97.3009 286.15H96.1489ZM97.3009 284.081L100.181 280.86L103.061 284.081L101.21 286.15H99.1945L97.3009 284.081ZM103.01 286.15L103.939 285.111L104.868 286.15H103.01ZM106.718 286.15L104.861 284.081L107.741 280.86L110.621 284.081L108.778 286.15H106.718ZM110.578 286.15L111.506 285.111L112.435 286.15H110.578ZM119.297 286.15H118.145L119.074 285.111L119.347 285.417L119.297 286.15ZM119.563 282.502L119.074 283.042L116.194 279.821L119.074 276.6L119.916 277.55L119.563 282.502ZM120.067 275.537V275.682L120.01 275.617L120.082 275.537H120.067ZM120.233 273.29L119.074 274.579L116.194 271.358L119.074 268.137L120.514 269.747L120.233 273.29ZM120.622 267.855L119.995 267.146L120.715 266.341L120.622 267.855ZM121.406 257.113L121.19 260.028L119.995 258.691L121.435 257.081L121.406 257.113Z" fill="white"/>
</g>
<path d="M91.6561 252.934H123.854C124.507 252.934 125.035 252.343 125.035 251.613V250.18C125.035 249.451 124.507 248.859 123.854 248.859H91.6561C91.0039 248.859 90.4753 249.451 90.4753 250.18V251.613C90.4753 252.343 91.0039 252.934 91.6561 252.934Z" fill="#FED23A"/>
<path d="M121.363 285.457H94.1472C93.4951 285.457 92.9664 286.049 92.9664 286.778V288.211C92.9664 288.941 93.4951 289.532 94.1472 289.532H121.363C122.015 289.532 122.544 288.941 122.544 288.211V286.778C122.544 286.049 122.015 285.457 121.363 285.457Z" fill="#FED23A"/>
<path d="M178.423 221.167V289.532H174.982V232.545H156.053V289.532H152.611V232.545H136.635V289.532H133.193V232.545H114.264V289.532H110.823V221.167H178.423Z" fill="#FED23A"/>
<path opacity="0.2" d="M178.423 221.167V289.532H174.982V232.545H156.053V289.532H152.611V232.545H114.264V289.532H110.823V221.167H178.423Z" fill="white"/>
<path opacity="0.3" d="M178.423 221.167V289.532H174.982V232.545H156.053V289.532H152.611V221.167H178.423Z" fill="white"/>
<path d="M158.954 205.763H156.319V207.856H158.954V205.763Z" fill="#FED23A"/>
<path opacity="0.4" d="M158.954 205.763H156.319V207.856H158.954V205.763Z" fill="white"/>
<path d="M161.237 208.275H160.517L160.322 207.607C160.274 207.448 160.184 207.31 160.062 207.212C159.941 207.114 159.795 207.061 159.646 207.059H155.664C155.516 207.062 155.371 207.116 155.252 207.214C155.132 207.312 155.042 207.45 154.994 207.607L154.793 208.275H154.073C153.993 208.275 153.916 208.311 153.859 208.374C153.802 208.438 153.77 208.524 153.77 208.613V209.491H161.582V208.613C161.583 208.565 161.574 208.516 161.556 208.472C161.538 208.427 161.512 208.388 161.479 208.355C161.446 208.323 161.408 208.3 161.366 208.286C161.324 208.272 161.28 208.268 161.237 208.275Z" fill="#FED23A"/>
<path opacity="0.6" d="M161.237 208.275H160.517L160.322 207.607C160.274 207.448 160.184 207.31 160.062 207.212C159.941 207.114 159.795 207.061 159.646 207.059H155.664C155.516 207.062 155.371 207.116 155.252 207.214C155.132 207.312 155.042 207.45 154.994 207.607L154.793 208.275H154.073C153.993 208.275 153.916 208.311 153.859 208.374C153.802 208.438 153.77 208.524 153.77 208.613V209.491H161.582V208.613C161.583 208.565 161.574 208.516 161.556 208.472C161.538 208.427 161.512 208.388 161.479 208.355C161.446 208.323 161.408 208.3 161.366 208.286C161.324 208.272 161.28 208.268 161.237 208.275Z" fill="white"/>
<path d="M161.323 208.742H153.943C153.124 208.742 152.46 209.485 152.46 210.401V219.516C152.46 220.432 153.124 221.175 153.943 221.175H161.323C162.142 221.175 162.806 220.432 162.806 219.516V210.401C162.806 209.485 162.142 208.742 161.323 208.742Z" fill="#FED23A"/>
<path d="M163.951 204.209C163.773 203.871 163.52 203.59 163.216 203.396C162.911 203.201 162.567 203.098 162.216 203.098H155.016C154.837 203.098 154.663 203.164 154.521 203.287C154.379 203.409 154.277 203.58 154.231 203.774L154.159 204.096L155.65 205.763H159.25L161.057 204.217H162.497C162.595 204.217 162.692 204.242 162.78 204.289C162.868 204.337 162.946 204.406 163.008 204.491L163.426 205.046H164.376L163.951 204.209Z" fill="#FED23A"/>
<path opacity="0.6" d="M163.951 204.209C163.773 203.871 163.52 203.59 163.216 203.396C162.911 203.201 162.567 203.098 162.216 203.098H155.016C154.837 203.098 154.663 203.164 154.521 203.287C154.379 203.409 154.277 203.58 154.231 203.774L154.159 204.096L155.65 205.763H159.25L161.057 204.217H162.497C162.595 204.217 162.692 204.242 162.78 204.289C162.868 204.337 162.946 204.406 163.008 204.491L163.426 205.046H164.376L163.951 204.209Z" fill="white"/>
<path d="M132.379 214.999C132.379 214.999 129.622 212.712 131.616 211.23C133.61 209.749 133.61 207.897 133.61 207.897C133.61 207.897 135.77 210.393 136.937 210.498C138.103 210.602 141.019 212.414 141.019 214.427C141.019 216.44 132.379 214.999 132.379 214.999Z" fill="#FED23A"/>
<path opacity="0.7" d="M132.379 214.999C132.379 214.999 129.622 212.712 131.616 211.23C133.61 209.749 133.61 207.897 133.61 207.897C133.61 207.897 135.77 210.393 136.937 210.498C138.103 210.602 141.019 212.414 141.019 214.427C141.019 216.44 132.379 214.999 132.379 214.999Z" fill="white"/>
<path d="M146.052 213.01H125.446V221.175H146.052V213.01Z" fill="#FED23A"/>
<path opacity="0.1" d="M146.052 213.01H133.042V221.175H146.052V213.01Z" fill="white"/>
</svg>
