<svg width="500" height="300" viewBox="0 0 500 300" fill="none" xmlns="http://www.w3.org/2000/svg">
<path d="M449.9 279.48H416.78V279.682H449.9V279.48Z" fill="#EBEBEB"/>
<path d="M331.22 281.693H322.53V281.896H331.22V281.693Z" fill="#EBEBEB"/>
<path d="M415.78 271.929H396.59V272.132H415.78V271.929Z" fill="#EBEBEB"/>
<path d="M95.65 273.296H52.46V273.499H95.65V273.296Z" fill="#EBEBEB"/>
<path d="M110.89 273.296H104.56V273.499H110.89V273.296Z" fill="#EBEBEB"/>
<path d="M225.15 276.73H131.47V276.932H225.15V276.73Z" fill="#EBEBEB"/>
<path d="M237 230.1H43.92C42.4056 230.1 40.9532 229.61 39.8824 228.739C38.8116 227.868 38.21 226.686 38.21 225.454V4.60525C38.2232 3.38013 38.8306 2.20885 39.9 1.34635C40.9694 0.483846 42.4142 -4.69686e-05 43.92 3.41939e-09H237C238.514 3.4194e-09 239.967 0.489481 241.038 1.36076C242.108 2.23204 242.71 3.41375 242.71 4.64593V225.454C242.71 226.686 242.108 227.868 241.038 228.739C239.967 229.61 238.514 230.1 237 230.1ZM43.92 0.16273C42.4727 0.164881 41.0855 0.63362 40.0621 1.46629C39.0387 2.29896 38.4626 3.42768 38.46 4.60525V225.454C38.4626 226.631 39.0387 227.76 40.0621 228.593C41.0855 229.425 42.4727 229.894 43.92 229.896H237C238.447 229.894 239.835 229.425 240.858 228.593C241.881 227.76 242.457 226.631 242.46 225.454V4.60525C242.457 3.42768 241.881 2.29896 240.858 1.46629C239.835 0.63362 238.447 0.164881 237 0.16273H43.92Z" fill="#EBEBEB"/>
<path d="M453.31 230.1H260.21C258.696 230.097 257.246 229.607 256.175 228.736C255.105 227.866 254.503 226.685 254.5 225.454V4.60525C254.516 3.3808 255.124 2.21074 256.193 1.3487C257.262 0.48665 258.705 0.00207341 260.21 0H453.31C454.812 0.00423463 456.252 0.490019 457.317 1.35206C458.382 2.2141 458.987 3.38295 459 4.60525V225.454C459 226.683 458.401 227.862 457.335 228.733C456.268 229.604 454.821 230.095 453.31 230.1ZM260.21 0.16273C258.763 0.164881 257.375 0.63362 256.352 1.46629C255.329 2.29896 254.753 3.42768 254.75 4.60525V225.454C254.753 226.631 255.329 227.76 256.352 228.593C257.375 229.425 258.763 229.894 260.21 229.896H453.31C454.757 229.894 456.144 229.425 457.168 228.593C458.191 227.76 458.767 226.631 458.77 225.454V4.60525C458.767 3.42768 458.191 2.29896 457.168 1.46629C456.144 0.63362 454.757 0.164881 453.31 0.16273H260.21Z" fill="#EBEBEB"/>
<path d="M500 266.388H0V266.591H500V266.388Z" fill="#EBEBEB"/>
<path d="M285.74 197.009H204.26V258.781H285.74V197.009Z" fill="#E6E6E6"/>
<path d="M217.22 260.717H206.82V266.112H217.22V260.717Z" fill="#E0E0E0"/>
<path d="M451.19 197.009H285.74V258.187H451.19V197.009Z" fill="#E6E6E6"/>
<path d="M463.82 192.452H453.42V266.12H463.82V192.452Z" fill="#E6E6E6"/>
<path d="M365.53 201.874H293.8V255.323H365.53V201.874Z" fill="#F5F5F5"/>
<path d="M305.91 255.323H325.06L331.96 201.874H312.82L305.91 255.323Z" fill="#FAFAFA"/>
<path d="M329.96 255.323H333.77L340.68 201.874H336.87L329.96 255.323Z" fill="#FAFAFA"/>
<path d="M283.75 201.874H212.02V255.323H283.75V201.874Z" fill="#F5F5F5"/>
<path d="M448.1 201.874H376.37V255.323H448.1V201.874Z" fill="#F5F5F5"/>
<path d="M450.77 192.452H201.29V266.12H206.84V261.995H448V266.128H453.55V192.452H450.77ZM206.84 199.124H283.06V224.705H206.84V199.124ZM206.84 255.323V228.513H283.06V255.323H206.84ZM365.53 255.323H288.6V199.124H365.53V255.323ZM448 255.323H371.07V228.513H448V255.323ZM448 224.705H371.07V199.124H448V224.705Z" fill="#F0F0F0"/>
<path d="M249.06 208.213C249.062 208.75 248.868 209.277 248.502 209.725C248.136 210.173 247.615 210.522 247.005 210.729C246.395 210.936 245.723 210.991 245.075 210.887C244.426 210.783 243.83 210.525 243.362 210.145C242.894 209.765 242.575 209.281 242.445 208.754C242.315 208.226 242.381 207.68 242.633 207.183C242.886 206.686 243.314 206.261 243.863 205.962C244.413 205.663 245.059 205.503 245.72 205.503C246.158 205.502 246.592 205.571 246.997 205.707C247.403 205.843 247.771 206.042 248.081 206.294C248.391 206.545 248.638 206.845 248.806 207.174C248.974 207.503 249.06 207.856 249.06 208.213Z" fill="#EBEBEB"/>
<path d="M245.72 210.922C245.081 210.914 244.458 210.756 243.926 210.467C243.394 210.179 242.975 209.772 242.72 209.295C242.52 209.65 242.414 210.035 242.41 210.426C242.457 211.12 242.828 211.773 243.449 212.25C244.069 212.728 244.891 212.995 245.745 212.995C246.599 212.995 247.421 212.728 248.041 212.25C248.662 211.773 249.033 211.12 249.08 210.426C249.076 210.035 248.97 209.65 248.77 209.295C248.511 209.778 248.085 210.189 247.543 210.478C247.001 210.767 246.368 210.922 245.72 210.922Z" fill="#E0E0E0"/>
<path d="M249.06 239.717C249.06 240.254 248.864 240.78 248.497 241.227C248.13 241.674 247.608 242.022 246.998 242.228C246.388 242.433 245.716 242.487 245.068 242.382C244.421 242.277 243.825 242.019 243.358 241.638C242.891 241.258 242.573 240.774 242.444 240.247C242.315 239.72 242.381 239.173 242.634 238.677C242.887 238.18 243.315 237.756 243.864 237.457C244.414 237.159 245.059 236.999 245.72 236.999C246.159 236.998 246.594 237.068 247 237.204C247.406 237.34 247.774 237.54 248.085 237.793C248.395 238.045 248.641 238.345 248.808 238.676C248.976 239.006 249.061 239.36 249.06 239.717Z" fill="#EBEBEB"/>
<path d="M245.72 242.467C245.086 242.462 244.467 242.31 243.936 242.029C243.404 241.748 242.983 241.35 242.72 240.88C242.52 241.235 242.414 241.621 242.41 242.011C242.457 242.705 242.828 243.358 243.449 243.836C244.069 244.314 244.891 244.58 245.745 244.58C246.599 244.58 247.421 244.314 248.041 243.836C248.662 243.358 249.033 242.705 249.08 242.011C249.076 241.621 248.97 241.235 248.77 240.88C248.504 241.356 248.074 241.759 247.533 242.04C246.992 242.322 246.362 242.47 245.72 242.467Z" fill="#E0E0E0"/>
<path d="M417.19 208.212C417.192 208.75 416.998 209.277 416.632 209.725C416.266 210.172 415.745 210.522 415.135 210.729C414.525 210.936 413.853 210.991 413.205 210.887C412.556 210.783 411.96 210.525 411.492 210.145C411.024 209.765 410.705 209.281 410.575 208.754C410.445 208.226 410.511 207.68 410.763 207.183C411.016 206.685 411.444 206.261 411.993 205.962C412.543 205.663 413.189 205.503 413.85 205.503C414.734 205.503 415.582 205.788 416.208 206.296C416.834 206.804 417.187 207.493 417.19 208.212Z" fill="#EBEBEB"/>
<path d="M413.85 210.922C413.211 210.914 412.588 210.756 412.056 210.467C411.524 210.179 411.105 209.772 410.85 209.295C410.65 209.65 410.544 210.035 410.54 210.426C410.587 211.12 410.958 211.773 411.579 212.25C412.199 212.728 413.021 212.995 413.875 212.995C414.729 212.995 415.551 212.728 416.171 212.25C416.792 211.773 417.163 211.12 417.21 210.426C417.206 210.035 417.1 209.65 416.9 209.295C416.641 209.778 416.215 210.189 415.673 210.478C415.131 210.767 414.498 210.922 413.85 210.922Z" fill="#E0E0E0"/>
<path d="M358.76 230.165C358.76 230.702 358.564 231.228 358.197 231.674C357.83 232.121 357.308 232.47 356.698 232.675C356.088 232.881 355.416 232.935 354.768 232.83C354.12 232.725 353.525 232.466 353.058 232.086C352.591 231.706 352.273 231.222 352.144 230.695C352.015 230.168 352.081 229.621 352.334 229.125C352.587 228.628 353.015 228.204 353.564 227.905C354.114 227.606 354.759 227.447 355.42 227.447C355.859 227.446 356.294 227.516 356.7 227.652C357.106 227.788 357.474 227.988 357.785 228.241C358.095 228.493 358.341 228.793 358.508 229.123C358.676 229.454 358.761 229.807 358.76 230.165Z" fill="#EBEBEB"/>
<path d="M355.42 232.874C354.786 232.869 354.167 232.718 353.636 232.436C353.104 232.155 352.683 231.757 352.42 231.287C352.22 231.643 352.114 232.028 352.11 232.418C352.157 233.112 352.528 233.765 353.149 234.243C353.769 234.721 354.591 234.987 355.445 234.987C356.299 234.987 357.121 234.721 357.741 234.243C358.362 233.765 358.733 233.112 358.78 232.418C358.776 232.028 358.67 231.643 358.47 231.287C358.204 231.763 357.774 232.166 357.233 232.447C356.692 232.729 356.062 232.877 355.42 232.874Z" fill="#E0E0E0"/>
<path d="M417.19 239.717C417.19 240.254 416.994 240.78 416.627 241.227C416.26 241.674 415.739 242.022 415.128 242.228C414.518 242.433 413.846 242.487 413.198 242.382C412.551 242.277 411.955 242.019 411.488 241.638C411.021 241.258 410.703 240.774 410.574 240.247C410.445 239.72 410.511 239.173 410.764 238.677C411.017 238.18 411.445 237.756 411.994 237.457C412.544 237.159 413.189 236.999 413.85 236.999C414.736 236.999 415.585 237.286 416.212 237.795C416.838 238.305 417.19 238.996 417.19 239.717Z" fill="#EBEBEB"/>
<path d="M413.85 242.467C413.216 242.462 412.597 242.31 412.066 242.029C411.534 241.748 411.113 241.35 410.85 240.88C410.65 241.235 410.544 241.621 410.54 242.011C410.587 242.705 410.958 243.358 411.579 243.836C412.199 244.314 413.021 244.58 413.875 244.58C414.729 244.58 415.551 244.314 416.171 243.836C416.792 243.358 417.163 242.705 417.21 242.011C417.206 241.621 417.1 241.235 416.9 240.88C416.634 241.356 416.204 241.759 415.663 242.04C415.122 242.322 414.492 242.47 413.85 242.467Z" fill="#E0E0E0"/>
<path d="M137.77 27.4199H74.0601V94.7656H137.77V27.4199Z" fill="#F5F5F5"/>
<path d="M132.86 32.6029H78.96V89.5827H132.86V32.6029Z" fill="#EBEBEB"/>
<path d="M129.49 36.1666H82.33V86.0188H129.49V36.1666Z" fill="#FAFAFA"/>
<path d="M98.98 64.3351L82.33 77.8904V86.0188H125.63L98.98 64.3351Z" fill="#F5F5F5"/>
<path d="M123 54.1808C123 55.2235 122.62 56.2429 121.908 57.11C121.196 57.977 120.184 58.6528 119 59.0519C117.816 59.4509 116.513 59.5553 115.256 59.3519C113.999 59.1485 112.844 58.6463 111.938 57.9089C111.032 57.1716 110.415 56.2321 110.164 55.2094C109.914 54.1866 110.043 53.1265 110.533 52.1631C111.024 51.1997 111.854 50.3762 112.92 49.7969C113.986 49.2176 115.238 48.9083 116.52 48.9083C118.239 48.9083 119.887 49.4638 121.102 50.4526C122.317 51.4414 123 52.7824 123 54.1808Z" fill="white"/>
<path d="M206.08 300C303.31 300 382.13 295.876 382.13 290.789C382.13 285.703 303.31 281.579 206.08 281.579C108.85 281.579 30.03 285.703 30.03 290.789C30.03 295.876 108.85 300 206.08 300Z" fill="#F5F5F5"/>
<path d="M440.9 82.6422H441.6C441.945 82.6422 442.275 82.7536 442.519 82.952C442.763 83.1504 442.9 83.4194 442.9 83.6999V187.847C442.9 188.127 442.763 188.396 442.519 188.595C442.275 188.793 441.945 188.905 441.6 188.905H440.9V82.6422Z" fill="#263238"/>
<path d="M440.9 82.6422H222.2V188.88H440.9V82.6422Z" fill="#263238"/>
<path opacity="0.5" d="M440.9 82.6422H222.2V188.88H440.9V82.6422Z" fill="white"/>
<path d="M437.3 85.5713H225.8V185.951H437.3V85.5713Z" fill="#FFBA08"/>
<path opacity="0.3" d="M437.3 85.5713H225.8V185.951H437.3V85.5713Z" fill="black"/>
<path d="M225.8 168.921V185.943H437.3V168.921C403.784 157.586 367.846 151.75 331.55 151.75C295.254 151.75 259.316 157.586 225.8 168.921Z" fill="#263238"/>
<path opacity="0.1" d="M309.39 185.951H341.34L360.88 85.5713H328.93L309.39 185.951Z" fill="white"/>
<path opacity="0.2" d="M347.02 185.951H354.19L373.73 85.5713H366.56L347.02 185.951Z" fill="white"/>
<path d="M359.27 188.872V192.68H365.76C366.529 192.68 367.267 192.431 367.811 191.989C368.354 191.546 368.66 190.946 368.66 190.32V188.872H359.27Z" fill="#263238"/>
<path d="M296.45 188.872H364.58V190.06C364.58 190.755 364.241 191.421 363.637 191.912C363.033 192.404 362.214 192.68 361.36 192.68H299.67C298.816 192.68 297.997 192.404 297.393 191.912C296.789 191.421 296.45 190.755 296.45 190.06V188.872Z" fill="#263238"/>
<path opacity="0.2" d="M296.45 188.872H364.58V190.06C364.58 190.755 364.241 191.421 363.637 191.912C363.033 192.404 362.214 192.68 361.36 192.68H299.67C298.816 192.68 297.997 192.404 297.393 191.912C296.789 191.421 296.45 190.755 296.45 190.06V188.872Z" fill="white"/>
<path d="M397.29 146.188C397.8 144.243 395.38 142.169 391.87 141.558C388.36 140.948 385.12 142.03 384.61 143.999L382.79 143.682L379.92 157.034L395 159.67L399.11 146.505L397.29 146.188Z" fill="#263238"/>
<path opacity="0.1" d="M397.29 146.188C397.8 144.243 395.38 142.169 391.87 141.558C388.36 140.948 385.12 142.03 384.61 143.999L382.79 143.682L379.92 157.034L395 159.67L399.11 146.505L397.29 146.188Z" fill="white"/>
<path d="M422.51 155.643C423.14 154.154 421.51 152.331 418.82 151.574C416.13 150.818 413.47 151.412 412.82 152.901L411.44 152.502L407.59 162.729L419.08 165.984L423.89 155.992L422.51 155.643Z" fill="#263238"/>
<path opacity="0.1" d="M422.51 155.643C423.14 154.154 421.51 152.331 418.82 151.574C416.13 150.818 413.47 151.412 412.82 152.901L411.44 152.502L407.59 162.729L419.08 165.984L423.89 155.992L422.51 155.643Z" fill="white"/>
<path d="M431 162.306C431.35 161.493 430.44 160.476 429 160.053C427.56 159.629 426 159.963 425.68 160.793L424.91 160.573L422.77 166.269L429.14 168.075L431.8 162.534L431 162.306Z" fill="#263238"/>
<path d="M405.2 156.359C405.41 155.691 404.61 154.943 403.41 154.731C402.21 154.52 401.07 154.813 400.85 155.48L400.23 155.35L399 159.898L404.16 160.988L405.82 156.489L405.2 156.359Z" fill="#263238"/>
<path d="M275.68 147.75C275.43 146.123 277.61 144.553 280.55 144.26C283.49 143.967 286.06 145.073 286.3 146.701L287.83 146.546L289 157.709L276.37 158.97L274.18 147.897L275.68 147.75Z" fill="#263238"/>
<path opacity="0.1" d="M275.68 147.75C275.43 146.123 277.61 144.553 280.55 144.26C283.49 143.967 286.06 145.073 286.3 146.701L287.83 146.546L289 157.709L276.37 158.97L274.18 147.897L275.68 147.75Z" fill="white"/>
<path d="M254.09 154.007C253.7 152.746 255.22 151.346 257.49 150.891C259.76 150.435 261.9 151.07 262.29 152.331L263.47 152.095L265.72 160.752L256 162.729L252.95 154.235L254.09 154.007Z" fill="#263238"/>
<path opacity="0.1" d="M254.09 154.007C253.7 152.746 255.22 151.346 257.49 150.891C259.76 150.435 261.9 151.07 262.29 152.331L263.47 152.095L265.72 160.752L256 162.729L252.95 154.235L254.09 154.007Z" fill="white"/>
<path d="M246.55 158.987C246.33 158.287 247.18 157.514 248.43 157.262C249.68 157.01 250.88 157.359 251.1 158.075L251.75 157.945L253 162.729L247.6 163.836L245.91 159.125L246.55 158.987Z" fill="#263238"/>
<path d="M268.26 155.634C268.15 155.073 268.87 154.503 269.88 154.373C270.89 154.243 271.8 154.577 271.88 155.138L272.4 155.073L273 158.913L268.66 159.499L267.71 155.7L268.26 155.634Z" fill="#263238"/>
<path d="M308.394 142.468L295.578 143.23L296.664 155.321L309.48 154.559L308.394 142.468Z" fill="#FFBA08"/>
<path opacity="0.3" d="M308.394 142.468L295.578 143.23L296.664 155.321L309.48 154.559L308.394 142.468Z" fill="white"/>
<path d="M308.19 144.366L296.27 145.073L295.19 132.983L308 132.218L308.19 144.366Z" fill="#FFBA08"/>
<path opacity="0.4" d="M308.19 144.366L296.27 145.073L295.19 132.983L308 132.218L308.19 144.366Z" fill="white"/>
<path d="M306.57 124.919L294.26 125.652L293.18 113.561L306.09 113.935L306.57 124.919Z" fill="#FFBA08"/>
<path opacity="0.2" d="M306.57 124.919L294.26 125.652L293.18 113.561L306.09 113.935L306.57 124.919Z" fill="white"/>
<path d="M306.3 114.651L293.88 115.391L292.8 103.301L305.61 102.536L306.3 114.651Z" fill="#FFBA08"/>
<path opacity="0.5" d="M306.3 114.651L293.88 115.391L292.8 103.301L305.61 102.536L306.3 114.651Z" fill="white"/>
<path d="M306.92 134.512L294.21 136.416L293.23 125.456L305.83 122.421L306.92 134.512Z" fill="#FFBA08"/>
<path opacity="0.4" d="M306.92 134.512L294.21 136.416L293.23 125.456L305.83 122.421L306.92 134.512Z" fill="white"/>
<path d="M290.21 103.455L298.7 94.4645L308.83 102.349C308.83 102.349 302.33 105.864 290.21 103.455Z" fill="#FFBA08"/>
<path opacity="0.3" d="M290.21 103.455L298.7 94.4645L308.83 102.349C308.83 102.349 302.33 105.864 290.21 103.455Z" fill="white"/>
<path d="M352.354 154.227L363.293 155.495L365.102 145.168L354.162 143.9L352.354 154.227Z" fill="#FFBA08"/>
<path opacity="0.2" d="M352.354 154.227L363.293 155.495L365.102 145.168L354.162 143.9L352.354 154.227Z" fill="white"/>
<path d="M354.19 145.529L364.37 146.709L366.17 136.383L355.23 135.114L354.19 145.529Z" fill="#FFBA08"/>
<path opacity="0.4" d="M354.19 145.529L364.37 146.709L366.17 136.383L355.23 135.114L354.19 145.529Z" fill="white"/>
<path d="M356.99 128.914L367.5 130.135L369.31 119.81L358.2 119.509L356.99 128.914Z" fill="#FFBA08"/>
<path opacity="0.5" d="M356.99 128.914L367.5 130.135L369.31 119.81L358.2 119.509L356.99 128.914Z" fill="white"/>
<path d="M357.96 120.119L368.57 121.347L370.38 111.022L359.44 109.753L357.96 120.119Z" fill="#FFBA08"/>
<path opacity="0.4" d="M357.96 120.119L368.57 121.347L370.38 111.022L359.44 109.753L357.96 120.119Z" fill="white"/>
<path d="M356 137.132L366.77 139.37L368.4 130.021L357.8 126.807L356 137.132Z" fill="#FFBA08"/>
<path opacity="0.3" d="M356 137.132L366.77 139.37L368.4 130.021L357.8 126.807L356 137.132Z" fill="white"/>
<path d="M372.59 111.274L365.96 103.138L356.69 109.419C356.69 109.419 362 112.763 372.59 111.274Z" fill="#FFBA08"/>
<path opacity="0.4" d="M372.59 111.274L365.96 103.138L356.69 109.419C356.69 109.419 362 112.763 372.59 111.274Z" fill="white"/>
<path d="M327.9 111.152L316.09 122.796L319.58 124.691L345.7 125.236L351.19 123.471L342.87 116.807L338.88 111.828L327.9 111.152Z" fill="#FFBA08"/>
<path opacity="0.6" d="M327.9 111.152L316.09 122.796L319.58 124.691L345.7 125.236L351.19 123.471L342.87 116.807L338.88 111.828L327.9 111.152Z" fill="white"/>
<path d="M357.46 143.495L305.29 144.3V138.914L357.46 137.295V143.495Z" fill="#FFBA08"/>
<path opacity="0.7" d="M357.46 143.495L305.29 144.3V138.914L357.46 137.295V143.495Z" fill="white"/>
<path d="M359.1 147.555L306.94 148.369V142.974L359.1 141.355V147.555Z" fill="#FFBA08"/>
<path opacity="0.8" d="M359.1 147.555L306.94 148.369V142.974L359.1 141.355V147.555Z" fill="white"/>
<path d="M359.1 157.392L306.94 156.578V151.192H359.1V157.392Z" fill="#FFBA08"/>
<path opacity="0.6" d="M359.1 157.392L306.94 156.578V151.192H359.1V157.392Z" fill="white"/>
<path d="M358.58 136.001L306.41 135.187V129.801H358.58V136.001Z" fill="#FFBA08"/>
<path opacity="0.6" d="M358.58 136.001L306.41 135.187V129.801H358.58V136.001Z" fill="white"/>
<path d="M359.7 152.624L305.29 151.819V147.238H359.7V152.624Z" fill="#FFBA08"/>
<path opacity="0.7" d="M359.7 152.624L305.29 151.819V147.238H359.7V152.624Z" fill="white"/>
<path d="M361.34 139.988L306.94 139.174V134.594H361.34V139.988Z" fill="#FFBA08"/>
<path opacity="0.7" d="M361.34 139.988L306.94 139.174V134.594H361.34V139.988Z" fill="white"/>
<path d="M306.94 128.385L316.09 122.796L351.19 123.471L361.34 129.801L356.68 131.193L306.41 129.801L306.94 128.385Z" fill="#FFBA08"/>
<path opacity="0.8" d="M306.94 128.385L316.09 122.796L351.19 123.471L361.34 129.801L356.68 131.193L306.41 129.801L306.94 128.385Z" fill="white"/>
<path d="M334.14 105.538L326.82 113.121H340.8L334.14 105.538Z" fill="#FFBA08"/>
<path opacity="0.5" d="M334.14 105.538L326.82 113.121H340.8L334.14 105.538Z" fill="white"/>
<path d="M332.69 104.025L317.71 119.46L301.24 130.322L303.98 133.471L320.46 122.128L335.47 105.652L332.69 104.025Z" fill="#FFBA08"/>
<path opacity="0.7" d="M332.69 104.025L317.71 119.46L301.24 130.322L303.98 133.471L320.46 122.128L335.47 105.652L332.69 104.025Z" fill="white"/>
<path d="M331.96 100.144L348.32 119.46L364.8 130.322L362.05 133.471L345.58 122.129L329.17 100.957L331.96 100.144Z" fill="#FFBA08"/>
<path opacity="0.8" d="M331.96 100.144L348.32 119.46L364.8 130.322L362.05 133.471L345.58 122.129L329.17 100.957L331.96 100.144Z" fill="white"/>
<path d="M340.25 138.247H325.76V157.392H340.25V138.247Z" fill="#263238"/>
<path d="M324.76 157.978L323.01 138.589L326.82 138.247L327.76 157.978H324.76Z" fill="#FFBA08"/>
<path opacity="0.5" d="M324.76 157.978L323.01 138.589L326.82 138.247L327.76 157.978H324.76Z" fill="white"/>
<path d="M338.22 157.978L339.47 138.589L342.27 138.247L341.21 157.978H338.22Z" fill="#FFBA08"/>
<path opacity="0.5" d="M338.22 157.978L339.47 138.589L342.27 138.247L341.21 157.978H338.22Z" fill="white"/>
<path d="M322.42 136.831L321.92 139.361L342.77 139.988V137.368L322.42 136.831Z" fill="#FFBA08"/>
<path opacity="0.6" d="M322.42 136.831L321.92 139.361L342.77 139.988V137.368L322.42 136.831Z" fill="white"/>
<path d="M335.94 127.417L345.47 124.439V132.193L335.94 131.86V127.417Z" fill="#263238"/>
<path d="M346.48 122.096H344.45V134.122H346.48V122.096Z" fill="#FFBA08"/>
<path opacity="0.3" d="M346.48 122.096H344.45V134.122H346.48V122.096Z" fill="white"/>
<path d="M334.51 134.122H336.54L337.76 125.074H335.73L334.51 134.122Z" fill="#FFBA08"/>
<path opacity="0.3" d="M334.51 134.122H336.54L337.76 125.074H335.73L334.51 134.122Z" fill="white"/>
<path d="M348.18 133.52V131.86L333.4 130.867V132.527L348.18 133.52Z" fill="#FFBA08"/>
<path opacity="0.4" d="M348.18 133.52V131.86L333.4 130.867V132.527L348.18 133.52Z" fill="white"/>
<path d="M350.15 123.617L349.36 121.836L333.44 127.539L334.24 129.321L350.15 123.617Z" fill="#FFBA08"/>
<path opacity="0.5" d="M350.15 123.617L349.36 121.836L333.44 127.539L334.24 129.321L350.15 123.617Z" fill="white"/>
<path d="M319.14 123.967L326.8 126.506L326.82 130.712L319.14 130.306V123.967Z" fill="#263238"/>
<path d="M315.34 124.106L315.99 121.836L329 126.498L328.35 127.954L315.34 124.106Z" fill="#FFBA08"/>
<path opacity="0.4" d="M315.34 124.106L315.99 121.836L329 126.498L328.35 127.954L315.34 124.106Z" fill="white"/>
<path d="M321 131.876H318.34V122.047H320L321 131.876Z" fill="#FFBA08"/>
<path opacity="0.3" d="M321 131.876H318.34V122.047H320L321 131.876Z" fill="white"/>
<path d="M328.13 131.876H326.47L325.47 124.48H327.13L328.13 131.876Z" fill="#FFBA08"/>
<path opacity="0.3" d="M328.13 131.876H326.47L325.47 124.48H327.13L328.13 131.876Z" fill="white"/>
<path d="M329.03 130.037H316.95V131.388H329.03V130.037Z" fill="#FFBA08"/>
<path opacity="0.4" d="M329.03 130.037H316.95V131.388H329.03V130.037Z" fill="white"/>
<path d="M320.1 161.021L318.88 162.656H334.69L334.05 161.2L320.1 161.021Z" fill="#FFBA08"/>
<path opacity="0.3" d="M320.1 161.021L318.88 162.656H334.69L334.05 161.2L320.1 161.021Z" fill="white"/>
<path d="M324.89 168.523L326.25 170.345H308.63L309.34 168.718L324.89 168.523Z" fill="#FFBA08"/>
<path opacity="0.1" d="M324.89 168.523L326.25 170.345H308.63L309.34 168.718L324.89 168.523Z" fill="white"/>
<path d="M335.34 177.123L337.95 178.677L312.19 179.409L313.08 177.367L335.34 177.123Z" fill="#FFBA08"/>
<path opacity="0.3" d="M335.34 177.123L337.95 178.677L312.19 179.409L313.08 177.367L335.34 177.123Z" fill="white"/>
<path d="M395.83 146.457C395.83 138.003 389.92 131.152 379.53 131.152C369.14 131.152 363.22 138.003 363.22 146.457C363.22 152.274 364.71 157.335 370.58 159.922L370.19 162.803C370.168 162.967 370.188 163.132 370.249 163.289C370.311 163.446 370.412 163.591 370.547 163.714C370.682 163.837 370.848 163.935 371.032 164.002C371.217 164.07 371.417 164.104 371.62 164.105H372.02C372.401 164.102 372.766 163.978 373.035 163.759C373.305 163.54 373.457 163.243 373.46 162.933V162.445L376.74 162.575V163.698C376.743 164.008 376.895 164.305 377.165 164.524C377.434 164.743 377.799 164.867 378.18 164.869H380.18C380.561 164.867 380.926 164.743 381.195 164.524C381.465 164.305 381.617 164.008 381.62 163.698V162.73L384.28 162.347L384.57 162.917C384.706 163.181 384.956 163.395 385.273 163.52C385.59 163.644 385.951 163.67 386.29 163.592L388.5 163.088C388.703 163.043 388.891 162.963 389.052 162.853C389.213 162.743 389.343 162.606 389.433 162.451C389.522 162.296 389.569 162.127 389.57 161.956C389.572 161.785 389.527 161.616 389.44 161.46L388.6 159.833C394.4 157.278 395.83 152.25 395.83 146.457Z" fill="#FFBA08"/>
<path d="M366.07 163.006C366.79 162.64 368.63 163.502 369.25 163.974C370.42 164.853 371.03 167.628 371.93 168.702C372.54 169.442 373.93 171.541 374.93 171.273C375.53 171.118 374.93 169.645 375.32 169.263C375.711 169.037 376.161 168.888 376.634 168.827C377.108 168.766 377.593 168.796 378.05 168.913C378.56 169.174 378.23 170.54 378.74 170.785C379.076 170.868 379.43 170.887 379.777 170.842C380.124 170.797 380.453 170.688 380.74 170.524C381.16 170.158 380.61 168.897 381.03 168.523C381.479 168.249 381.998 168.061 382.548 167.972C383.099 167.884 383.667 167.896 384.21 168.01C384.78 168.262 384.57 169.767 385.21 169.946C385.85 170.125 386.73 169.556 386.95 169.198C387.17 168.84 386.25 167.571 386.55 167.131C386.96 166.505 388.9 165.65 389.7 165.935C390.34 166.163 389.89 167.953 390.57 168.091C390.96 168.181 391.64 167.514 391.76 167.204C392.29 165.87 389.99 163.087 390.37 161.721C390.55 161.078 391.56 159.751 392.37 159.613C392.711 159.639 393.04 159.726 393.336 159.866C393.631 160.007 393.885 160.198 394.08 160.427C394.55 161.086 394.08 162.721 394.08 163.486C394.14 164.959 395.24 168.018 394.51 169.353C393.94 170.394 391.42 171.793 390.12 172.192C386.404 173.31 382.542 174.074 378.61 174.47C377.1 174.56 373.9 174.658 372.61 174.031C371.32 173.405 370.23 171.11 369.39 170.158C368.55 169.206 366.13 167.432 365.71 166.244C365.45 165.447 365.24 163.437 366.07 163.006Z" fill="#FFBA08"/>
<path opacity="0.9" d="M366.07 163.006C366.79 162.64 368.63 163.502 369.25 163.974C370.42 164.853 371.03 167.628 371.93 168.702C372.54 169.442 373.93 171.541 374.93 171.273C375.53 171.118 374.93 169.645 375.32 169.263C375.711 169.037 376.161 168.888 376.634 168.827C377.108 168.766 377.593 168.796 378.05 168.913C378.56 169.174 378.23 170.54 378.74 170.785C379.076 170.868 379.43 170.887 379.777 170.842C380.124 170.797 380.453 170.688 380.74 170.524C381.16 170.158 380.61 168.897 381.03 168.523C381.479 168.249 381.998 168.061 382.548 167.972C383.099 167.884 383.667 167.896 384.21 168.01C384.78 168.262 384.57 169.767 385.21 169.946C385.85 170.125 386.73 169.556 386.95 169.198C387.17 168.84 386.25 167.571 386.55 167.131C386.96 166.505 388.9 165.65 389.7 165.935C390.34 166.163 389.89 167.953 390.57 168.091C390.96 168.181 391.64 167.514 391.76 167.204C392.29 165.87 389.99 163.087 390.37 161.721C390.55 161.078 391.56 159.751 392.37 159.613C392.711 159.639 393.04 159.726 393.336 159.866C393.631 160.007 393.885 160.198 394.08 160.427C394.55 161.086 394.08 162.721 394.08 163.486C394.14 164.959 395.24 168.018 394.51 169.353C393.94 170.394 391.42 171.793 390.12 172.192C386.404 173.31 382.542 174.074 378.61 174.47C377.1 174.56 373.9 174.658 372.61 174.031C371.32 173.405 370.23 171.11 369.39 170.158C368.55 169.206 366.13 167.432 365.71 166.244C365.45 165.447 365.24 163.437 366.07 163.006Z" fill="white"/>
<path opacity="0.9" d="M395.83 146.457C395.83 138.003 389.92 131.152 379.53 131.152C369.14 131.152 363.22 138.003 363.22 146.457C363.22 152.274 364.71 157.335 370.58 159.922L370.19 162.803C370.168 162.967 370.188 163.132 370.249 163.289C370.311 163.446 370.412 163.591 370.547 163.714C370.682 163.837 370.848 163.935 371.032 164.002C371.217 164.07 371.417 164.104 371.62 164.105H372.02C372.401 164.102 372.766 163.978 373.035 163.759C373.305 163.54 373.457 163.243 373.46 162.933V162.445L376.74 162.575V163.698C376.743 164.008 376.895 164.305 377.165 164.524C377.434 164.743 377.799 164.867 378.18 164.869H380.18C380.561 164.867 380.926 164.743 381.195 164.524C381.465 164.305 381.617 164.008 381.62 163.698V162.73L384.28 162.347L384.57 162.917C384.706 163.181 384.956 163.395 385.273 163.52C385.59 163.644 385.951 163.67 386.29 163.592L388.5 163.088C388.703 163.043 388.891 162.963 389.052 162.853C389.213 162.743 389.343 162.606 389.433 162.451C389.522 162.296 389.569 162.127 389.57 161.956C389.572 161.785 389.527 161.616 389.44 161.46L388.6 159.833C394.4 157.278 395.83 152.25 395.83 146.457Z" fill="white"/>
<path d="M373.62 146.172C373.62 148.613 372.94 150.565 370.57 150.565C368.2 150.565 367.51 148.596 367.51 146.172C367.51 143.747 368.19 141.778 370.57 141.778C372.95 141.778 373.62 143.747 373.62 146.172Z" fill="#263238"/>
<path d="M389.9 145.537C389.9 147.978 389.22 149.931 386.84 149.931C384.46 149.931 383.84 147.962 383.84 145.537C383.84 143.112 384.52 141.143 386.84 141.143C389.16 141.143 389.9 143.112 389.9 145.537Z" fill="#263238"/>
<path d="M383.2 154.593C383.2 155.545 381.56 154.276 379.53 154.276C377.5 154.276 375.85 155.545 375.85 154.593C375.85 153.641 377.5 152.876 379.53 152.876C381.56 152.876 383.2 153.608 383.2 154.593Z" fill="#263238"/>
<path d="M357.4 169.288C357.4 169.288 357.83 176.553 381.3 176.553C404.77 176.553 404.14 163.682 404.14 163.682C404.14 163.682 410.4 158.466 413.22 166.041C413.22 166.041 404.47 181.256 381.3 179.987C358.13 178.718 351.51 173.478 351.51 173.478C351.51 173.478 348.54 167.506 357.4 169.288Z" fill="#FFBA08"/>
<path opacity="0.9" d="M357.4 169.288C357.4 169.288 357.83 176.553 381.3 176.553C404.77 176.553 404.14 163.682 404.14 163.682C404.14 163.682 410.4 158.466 413.22 166.041C413.22 166.041 404.47 181.256 381.3 179.987C358.13 178.718 351.51 173.478 351.51 173.478C351.51 173.478 348.54 167.506 357.4 169.288Z" fill="white"/>
<path d="M413.16 175.642L410.61 174.926C410.337 174.85 410.086 174.728 409.873 174.57C409.659 174.412 409.488 174.22 409.369 174.006C409.25 173.792 409.186 173.56 409.181 173.325C409.176 173.09 409.23 172.857 409.34 172.64L409.62 172.07C409.782 171.749 410.06 171.474 410.417 171.283C410.773 171.091 411.193 170.991 411.62 170.996H411.82C412.385 170.996 412.927 170.814 413.326 170.489C413.726 170.164 413.95 169.723 413.95 169.263C413.95 168.806 414.173 168.367 414.571 168.043C414.968 167.72 415.508 167.538 416.07 167.538H418.29C418.853 167.538 419.393 167.72 419.793 168.043C420.192 168.366 420.417 168.805 420.42 169.263V170.63C420.419 170.871 420.48 171.109 420.6 171.33L431 190.394C431.135 190.643 431.341 190.864 431.6 191.036L433.55 192.322C433.795 192.484 433.992 192.689 434.127 192.921C434.263 193.154 434.333 193.407 434.333 193.664C434.333 193.921 434.263 194.175 434.127 194.407C433.992 194.64 433.795 194.844 433.55 195.007L433.16 195.259C432.883 195.44 432.555 195.562 432.206 195.613C431.856 195.665 431.497 195.643 431.16 195.552L429.16 194.991C428.825 194.897 428.467 194.873 428.118 194.92C427.769 194.967 427.44 195.083 427.16 195.259L426.05 195.967C425.826 196.105 425.57 196.206 425.297 196.263C425.025 196.321 424.742 196.334 424.463 196.302C424.184 196.271 423.916 196.195 423.674 196.078C423.431 195.962 423.219 195.808 423.05 195.625L422.81 195.365C422.58 195.108 422.441 194.804 422.41 194.486C422.378 194.169 422.454 193.851 422.63 193.567L423.83 191.598C423.995 191.347 424.081 191.068 424.081 190.784C424.081 190.5 423.995 190.221 423.83 189.97L414.35 176.399C414.082 176.035 413.658 175.766 413.16 175.642Z" fill="#FFBA08"/>
<path opacity="0.8" d="M413.16 175.642L410.61 174.926C410.337 174.85 410.086 174.728 409.873 174.57C409.659 174.412 409.488 174.22 409.369 174.006C409.25 173.792 409.186 173.56 409.181 173.325C409.176 173.09 409.23 172.857 409.34 172.64L409.62 172.07C409.782 171.749 410.06 171.474 410.417 171.283C410.773 171.091 411.193 170.991 411.62 170.996H411.82C412.385 170.996 412.927 170.814 413.326 170.489C413.726 170.164 413.95 169.723 413.95 169.263C413.95 168.806 414.173 168.367 414.571 168.043C414.968 167.72 415.508 167.538 416.07 167.538H418.29C418.853 167.538 419.393 167.72 419.793 168.043C420.192 168.366 420.417 168.805 420.42 169.263V170.63C420.419 170.871 420.48 171.109 420.6 171.33L431 190.394C431.135 190.643 431.341 190.864 431.6 191.036L433.55 192.322C433.795 192.484 433.992 192.689 434.127 192.921C434.263 193.154 434.333 193.407 434.333 193.664C434.333 193.921 434.263 194.175 434.127 194.407C433.992 194.64 433.795 194.844 433.55 195.007L433.16 195.259C432.883 195.44 432.555 195.562 432.206 195.613C431.856 195.665 431.497 195.643 431.16 195.552L429.16 194.991C428.825 194.897 428.467 194.873 428.118 194.92C427.769 194.967 427.44 195.083 427.16 195.259L426.05 195.967C425.826 196.105 425.57 196.206 425.297 196.263C425.025 196.321 424.742 196.334 424.463 196.302C424.184 196.271 423.916 196.195 423.674 196.078C423.431 195.962 423.219 195.808 423.05 195.625L422.81 195.365C422.58 195.108 422.441 194.804 422.41 194.486C422.378 194.169 422.454 193.851 422.63 193.567L423.83 191.598C423.995 191.347 424.081 191.068 424.081 190.784C424.081 190.5 423.995 190.221 423.83 189.97L414.35 176.399C414.082 176.035 413.658 175.766 413.16 175.642Z" fill="white"/>
<path d="M416.15 194.991L417.21 193.55C417.325 193.397 417.477 193.264 417.657 193.159C417.837 193.055 418.042 192.982 418.258 192.944C418.474 192.906 418.697 192.904 418.914 192.938C419.131 192.972 419.337 193.042 419.52 193.144L420 193.404C420.266 193.554 420.471 193.764 420.591 194.009C420.71 194.254 420.737 194.522 420.67 194.779V194.901C420.584 195.245 420.668 195.603 420.904 195.897C421.14 196.191 421.508 196.397 421.93 196.471C422.139 196.507 422.338 196.576 422.514 196.675C422.69 196.773 422.841 196.899 422.957 197.045C423.073 197.191 423.152 197.354 423.191 197.525C423.229 197.696 423.225 197.872 423.18 198.042L422.83 199.392C422.786 199.563 422.701 199.724 422.58 199.867C422.459 200.011 422.305 200.133 422.125 200.228C421.946 200.322 421.745 200.387 421.535 200.418C421.325 200.449 421.109 200.446 420.9 200.409L419.64 200.198C419.419 200.157 419.191 200.157 418.97 200.198L399.73 203.534C399.477 203.578 399.241 203.67 399.04 203.802L397.55 204.787C397.36 204.91 397.14 204.997 396.903 205.043C396.667 205.088 396.422 205.09 396.185 205.049C395.947 205.007 395.724 204.924 395.532 204.804C395.339 204.684 395.181 204.531 395.07 204.356L394.9 204.087C394.776 203.885 394.717 203.66 394.727 203.434C394.738 203.208 394.818 202.988 394.96 202.793L395.79 201.687C395.929 201.498 396.008 201.284 396.02 201.064C396.032 200.843 395.977 200.624 395.86 200.426L395.39 199.612C395.296 199.453 395.242 199.281 395.23 199.104C395.219 198.928 395.251 198.752 395.325 198.586C395.399 198.42 395.512 198.268 395.659 198.138C395.806 198.008 395.983 197.904 396.18 197.83L396.46 197.724C396.732 197.624 397.033 197.587 397.33 197.617C397.626 197.647 397.907 197.744 398.14 197.895L399.76 198.945C399.97 199.08 400.217 199.172 400.48 199.212C400.743 199.251 401.015 199.238 401.27 199.173L415.27 195.552C415.636 195.456 415.948 195.257 416.15 194.991Z" fill="#FFBA08"/>
<path opacity="0.7" d="M416.15 194.991L417.21 193.55C417.325 193.397 417.477 193.264 417.657 193.159C417.837 193.055 418.042 192.982 418.258 192.944C418.474 192.906 418.697 192.904 418.914 192.938C419.131 192.972 419.337 193.042 419.52 193.144L420 193.404C420.266 193.554 420.471 193.764 420.591 194.009C420.71 194.254 420.737 194.522 420.67 194.779V194.901C420.584 195.245 420.668 195.603 420.904 195.897C421.14 196.191 421.508 196.397 421.93 196.471C422.139 196.507 422.338 196.576 422.514 196.675C422.69 196.773 422.841 196.899 422.957 197.045C423.073 197.191 423.152 197.354 423.191 197.525C423.229 197.696 423.225 197.872 423.18 198.042L422.83 199.392C422.786 199.563 422.701 199.724 422.58 199.867C422.459 200.011 422.305 200.133 422.125 200.228C421.946 200.322 421.745 200.387 421.535 200.418C421.325 200.449 421.109 200.446 420.9 200.409L419.64 200.198C419.419 200.157 419.191 200.157 418.97 200.198L399.73 203.534C399.477 203.578 399.241 203.67 399.04 203.802L397.55 204.787C397.36 204.91 397.14 204.997 396.903 205.043C396.667 205.088 396.422 205.09 396.185 205.049C395.947 205.007 395.724 204.924 395.532 204.804C395.339 204.684 395.181 204.531 395.07 204.356L394.9 204.087C394.776 203.885 394.717 203.66 394.727 203.434C394.738 203.208 394.818 202.988 394.96 202.793L395.79 201.687C395.929 201.498 396.008 201.284 396.02 201.064C396.032 200.843 395.977 200.624 395.86 200.426L395.39 199.612C395.296 199.453 395.242 199.281 395.23 199.104C395.219 198.928 395.251 198.752 395.325 198.586C395.399 198.42 395.512 198.268 395.659 198.138C395.806 198.008 395.983 197.904 396.18 197.83L396.46 197.724C396.732 197.624 397.033 197.587 397.33 197.617C397.626 197.647 397.907 197.744 398.14 197.895L399.76 198.945C399.97 199.08 400.217 199.172 400.48 199.212C400.743 199.251 401.015 199.238 401.27 199.173L415.27 195.552C415.636 195.456 415.948 195.257 416.15 194.991Z" fill="white"/>
<path d="M387.74 197.602L392.74 199.043C393.286 199.2 393.735 199.524 393.993 199.946C394.251 200.368 394.296 200.855 394.12 201.304L392.45 205.544C392.347 205.808 392.171 206.05 391.934 206.251C391.698 206.452 391.409 206.605 391.088 206.7C390.767 206.796 390.424 206.829 390.084 206.8C389.745 206.77 389.418 206.677 389.13 206.528L387.37 205.617C386.957 205.407 386.641 205.093 386.469 204.722C386.298 204.352 386.28 203.946 386.42 203.566C386.543 203.229 386.544 202.869 386.422 202.531C386.299 202.193 386.059 201.892 385.73 201.662L385.16 201.264C384.769 200.996 384.503 200.626 384.408 200.216C384.313 199.807 384.395 199.384 384.64 199.018L385.03 198.44C385.283 198.06 385.696 197.766 386.194 197.612C386.691 197.458 387.24 197.455 387.74 197.602Z" fill="#FFBA08"/>
<path opacity="0.8" d="M387.74 197.602L392.74 199.043C393.286 199.2 393.735 199.524 393.993 199.946C394.251 200.368 394.296 200.855 394.12 201.304L392.45 205.544C392.347 205.808 392.171 206.05 391.934 206.251C391.698 206.452 391.409 206.605 391.088 206.7C390.767 206.796 390.424 206.829 390.084 206.8C389.745 206.77 389.418 206.677 389.13 206.528L387.37 205.617C386.957 205.407 386.641 205.093 386.469 204.722C386.298 204.352 386.28 203.946 386.42 203.566C386.543 203.229 386.544 202.869 386.422 202.531C386.299 202.193 386.059 201.892 385.73 201.662L385.16 201.264C384.769 200.996 384.503 200.626 384.408 200.216C384.313 199.807 384.395 199.384 384.64 199.018L385.03 198.44C385.283 198.06 385.696 197.766 386.194 197.612C386.691 197.458 387.24 197.455 387.74 197.602Z" fill="white"/>
<path d="M384.07 201.443L385.73 204.779C385.759 204.845 385.792 204.911 385.83 204.974C386.097 205.414 386.221 205.902 386.192 206.393C386.162 206.883 385.98 207.359 385.662 207.775C385.344 208.192 384.9 208.536 384.373 208.775C383.846 209.014 383.253 209.139 382.65 209.14H380.35C379.79 209.139 379.237 209.248 378.74 209.457L375.56 210.775C375.058 210.983 374.502 211.09 373.939 211.089C373.376 211.087 372.821 210.976 372.321 210.765C371.82 210.555 371.389 210.25 371.062 209.877C370.735 209.504 370.522 209.073 370.44 208.619L370.25 207.57C370.165 207.12 370.211 206.66 370.384 206.228C370.558 205.795 370.855 205.402 371.25 205.08L377.06 200.45C377.731 199.929 378.622 199.637 379.55 199.637H380.76C381.471 199.632 382.167 199.803 382.757 200.125C383.347 200.447 383.805 200.906 384.07 201.443Z" fill="#FFBA08"/>
<path opacity="0.7" d="M384.07 201.443L385.73 204.779C385.759 204.845 385.792 204.911 385.83 204.974C386.097 205.414 386.221 205.902 386.192 206.393C386.162 206.883 385.98 207.359 385.662 207.775C385.344 208.192 384.9 208.536 384.373 208.775C383.846 209.014 383.253 209.139 382.65 209.14H380.35C379.79 209.139 379.237 209.248 378.74 209.457L375.56 210.775C375.058 210.983 374.502 211.09 373.939 211.089C373.376 211.087 372.821 210.976 372.321 210.765C371.82 210.555 371.389 210.25 371.062 209.877C370.735 209.504 370.522 209.073 370.44 208.619L370.25 207.57C370.165 207.12 370.211 206.66 370.384 206.228C370.558 205.795 370.855 205.402 371.25 205.08L377.06 200.45C377.731 199.929 378.622 199.637 379.55 199.637H380.76C381.471 199.632 382.167 199.803 382.757 200.125C383.347 200.447 383.805 200.906 384.07 201.443Z" fill="white"/>
<path d="M384.49 196.805L384.34 196.952C384.049 197.237 383.635 197.423 383.183 197.471C382.73 197.519 382.272 197.427 381.9 197.212L380.27 196.244C379.909 196.031 379.659 195.716 379.568 195.361C379.478 195.006 379.553 194.636 379.78 194.323C380.02 193.995 380.409 193.755 380.863 193.656C381.317 193.557 381.8 193.607 382.21 193.795L383.98 194.608C384.209 194.712 384.407 194.856 384.56 195.029C384.713 195.202 384.818 195.4 384.866 195.61C384.915 195.819 384.907 196.035 384.842 196.241C384.776 196.448 384.656 196.64 384.49 196.805Z" fill="#FFBA08"/>
<path opacity="0.7" d="M384.49 196.805L384.34 196.952C384.049 197.237 383.635 197.423 383.183 197.471C382.73 197.519 382.272 197.427 381.9 197.212L380.27 196.244C379.909 196.031 379.659 195.716 379.568 195.361C379.478 195.006 379.553 194.636 379.78 194.323C380.02 193.995 380.409 193.755 380.863 193.656C381.317 193.557 381.8 193.607 382.21 193.795L383.98 194.608C384.209 194.712 384.407 194.856 384.56 195.029C384.713 195.202 384.818 195.4 384.866 195.61C384.915 195.819 384.907 196.035 384.842 196.241C384.776 196.448 384.656 196.64 384.49 196.805Z" fill="white"/>
<path d="M353.22 175.862C353.22 175.862 361.16 182.273 375.85 182.273C375.85 182.273 379.31 183.844 375.85 186.22C375.85 186.22 358.28 187.188 351.04 180.085C351 180.085 348.67 177.31 353.22 175.862Z" fill="#FFBA08"/>
<path opacity="0.8" d="M353.22 175.862C353.22 175.862 361.16 182.273 375.85 182.273C375.85 182.273 379.31 183.844 375.85 186.22C375.85 186.22 358.28 187.188 351.04 180.085C351 180.085 348.67 177.31 353.22 175.862Z" fill="white"/>
<path d="M409.23 175.813C409.23 175.813 401.29 182.257 386.6 182.257C386.6 182.257 383.13 183.827 386.6 186.203C386.6 186.203 404.17 187.172 411.41 180.068C411.41 180.036 413.77 177.261 409.23 175.813Z" fill="#FFBA08"/>
<path opacity="0.8" d="M409.23 175.813C409.23 175.813 401.29 182.257 386.6 182.257C386.6 182.257 383.13 183.827 386.6 186.203C386.6 186.203 404.17 187.172 411.41 180.068C411.41 180.036 413.77 177.261 409.23 175.813Z" fill="white"/>
<path d="M384.58 65.2627C377.58 63.9852 374.32 68.2243 375.39 74.3348C377.17 84.4485 378.02 94.7248 373.96 104.83C373.9 104.985 373.83 105.4 374.1 105.375C374.87 105.319 375.23 103.602 375.93 103.634C377.72 103.724 371.55 107.8 373.16 108.093C374.98 108.419 379.48 103.26 380.95 103.886C382.01 104.334 375.43 106.767 376.25 107.296C377.07 107.825 380.49 105.953 381.61 105.31C391.52 99.6148 402.66 88.2726 401.44 78.639C400.64 72.3007 392.4 66.7191 384.58 65.2627Z" fill="#FFBA08"/>
<path opacity="0.9" d="M384.58 65.2627C377.58 63.9852 374.32 68.2243 375.39 74.3348C377.17 84.4485 378.02 94.7248 373.96 104.83C373.9 104.985 373.83 105.4 374.1 105.375C374.87 105.319 375.23 103.602 375.93 103.634C377.72 103.724 371.55 107.8 373.16 108.093C374.98 108.419 379.48 103.26 380.95 103.886C382.01 104.334 375.43 106.767 376.25 107.296C377.07 107.825 380.49 105.953 381.61 105.31C391.52 99.6148 402.66 88.2726 401.44 78.639C400.64 72.3007 392.4 66.7191 384.58 65.2627Z" fill="white"/>
<path d="M386.86 73.5294C387.38 74.6522 387.14 75.775 386.31 76.0273C385.48 76.2795 384.4 75.5716 383.88 74.4488C383.36 73.326 383.6 72.2031 384.42 71.9509C385.24 71.6987 386.33 72.4147 386.86 73.5294Z" fill="#263238"/>
<path d="M393.54 74.1396C393.99 75.0915 393.78 76.0354 393.09 76.2469C392.4 76.4585 391.47 75.8645 391.03 74.9125C390.59 73.9606 390.8 73.0249 391.49 72.8133C392.18 72.6018 393.1 73.2283 393.54 74.1396Z" fill="#263238"/>
<path d="M453.08 82.3249C446.83 77.5162 440.32 80.2501 436.83 87.0603C431.06 98.3293 424.2 109.297 412.44 117.653C412.26 117.776 411.87 118.166 412.17 118.28C413 118.597 414.67 117.019 415.36 117.401C417.13 118.386 407.74 119.5 409.17 120.599C410.79 121.844 419.29 118.784 420.33 120.16C421.08 121.152 412.49 120.363 412.93 121.315C413.31 122.129 418.29 122.055 419.93 121.95C434.36 121.071 454.35 114.928 460.33 104.44C464.27 97.5401 460 87.6787 453.08 82.3249Z" fill="#FFBA08"/>
<path opacity="0.8" d="M453.08 82.3249C446.83 77.5162 440.32 80.2501 436.83 87.0603C431.06 98.3293 424.2 109.297 412.44 117.653C412.26 117.776 411.87 118.166 412.17 118.28C413 118.597 414.67 117.019 415.36 117.401C417.13 118.386 407.74 119.5 409.17 120.599C410.79 121.844 419.29 118.784 420.33 120.16C421.08 121.152 412.49 120.363 412.93 121.315C413.31 122.129 418.29 122.055 419.93 121.95C434.36 121.071 454.35 114.928 460.33 104.44C464.27 97.5401 460 87.6787 453.08 82.3249Z" fill="white"/>
<path d="M449.2 91.9422C448.89 93.358 447.8 94.3832 446.77 94.2367C445.74 94.0903 445.15 92.821 445.45 91.4052C445.75 89.9895 446.85 88.9643 447.89 89.1107C448.93 89.2572 449.51 90.5183 449.2 91.9422Z" fill="#263238"/>
<path d="M455.61 95.8965C455.35 97.0844 454.43 97.955 453.56 97.8248C452.69 97.6946 452.19 96.6287 452.45 95.4408C452.71 94.2529 453.62 93.3823 454.5 93.5043C455.38 93.6264 455.87 94.7004 455.61 95.8965Z" fill="#263238"/>
<path d="M407.06 101.901C409.97 106.181 409.78 113.764 405.31 117.108C397.69 122.804 383.53 123.422 373.65 121.177C373.43 121.128 372.82 120.949 372.81 120.819C372.81 120.461 375.24 121.095 375.07 120.713C374.64 119.728 369.38 120.599 368.69 119.622C367.91 118.516 375 118.988 373.87 117.995C373.05 117.255 370.49 119.419 369.54 118.679C368.59 117.938 370.93 117.304 371.71 117.051C381.06 113.846 388.24 107.288 394.79 101.592C398.91 97.9795 404.16 97.6377 407.06 101.901Z" fill="white"/>
<path d="M400.76 108.484C400.11 109.411 399.04 109.908 398.36 109.598C397.68 109.289 397.65 108.272 398.3 107.345C398.95 106.417 400.03 105.913 400.71 106.23C401.39 106.547 401.41 107.548 400.76 108.484Z" fill="#263238"/>
<path d="M404 112.552C403.46 113.366 402.55 113.756 402 113.488C401.45 113.219 401.4 112.373 402 111.592C402.6 110.811 403.45 110.388 404 110.648C404.55 110.908 404.59 111.763 404 112.552Z" fill="#263238"/>
<path d="M429.21 126.408C430.37 126.083 431.51 125.717 432.63 125.31C432.97 125.188 432.68 124.781 432.34 124.903C431.27 125.293 430.17 125.643 429.06 125.953C428.71 126.05 428.86 126.506 429.21 126.408Z" fill="white"/>
<path d="M406.37 127.962C412.966 128.739 419.684 128.463 426.15 127.149C426.51 127.076 426.35 126.628 425.99 126.693C419.629 127.983 413.02 128.259 406.53 127.507C406.16 127.458 406.01 127.905 406.37 127.954V127.962Z" fill="white"/>
<path d="M274.92 100.6C273.57 98.8258 270.06 95.1888 264.35 95.9536C264.255 95.968 264.167 96.005 264.097 96.0601C264.028 96.1151 263.98 96.1857 263.96 96.2628C263.8 96.873 263.03 98.3946 259.41 98.8014C259.27 98.4912 259.078 98.1982 258.84 97.9308L259.06 97.7843C259.62 97.4344 260.23 97.288 260.06 96.7673C259.77 96.6318 259.437 96.5682 259.104 96.5841C258.77 96.6 258.449 96.6947 258.18 96.8568C258.067 96.9353 257.963 97.0225 257.87 97.1171C257.633 96.9914 257.351 96.9341 257.07 96.9544C257.023 96.8713 256.966 96.7923 256.9 96.7184C256.696 96.5025 256.419 96.3398 256.102 96.2502C255.786 96.1605 255.445 96.148 255.12 96.214C254.79 96.6859 255.33 96.9625 255.76 97.4182C255.756 97.4315 255.756 97.4455 255.76 97.4589C255.378 97.6874 255.041 97.9617 254.76 98.2725C251.51 97.0927 251.27 95.4898 251.32 94.8796C251.325 94.7984 251.3 94.7177 251.249 94.6481C251.197 94.5785 251.121 94.5231 251.03 94.4891C245.79 92.5119 241.21 95.2457 239.32 96.6615C239.246 96.7167 239.195 96.789 239.174 96.8685C239.152 96.9481 239.161 97.0311 239.199 97.1065C239.237 97.1818 239.303 97.2458 239.387 97.2899C239.471 97.334 239.57 97.3561 239.67 97.3531C242.19 97.3531 243.02 98.2318 243.28 98.72C243.324 98.8062 243.405 98.8766 243.508 98.9184C243.611 98.9602 243.729 98.9707 243.84 98.9478C247.47 98.2806 248.92 100.063 249.32 100.722C249.366 100.792 249.435 100.85 249.52 100.889C249.605 100.928 249.702 100.946 249.8 100.941C251.224 100.776 252.676 100.96 253.97 101.47C254.115 101.976 254.383 102.453 254.76 102.872C255.136 103.291 255.612 103.645 256.16 103.911C257.368 103.643 258.396 102.996 259.02 102.113C260.479 101.846 262.006 101.972 263.37 102.471C263.461 102.497 263.56 102.501 263.654 102.482C263.748 102.463 263.834 102.423 263.9 102.365C264.51 101.82 266.49 100.421 269.77 101.853C269.869 101.898 269.985 101.913 270.097 101.895C270.209 101.877 270.309 101.827 270.38 101.755C270.79 101.34 271.88 100.665 274.31 101.226C274.412 101.292 274.542 101.322 274.672 101.31C274.801 101.298 274.919 101.244 275 101.161C275.081 101.078 275.118 100.972 275.103 100.867C275.088 100.761 275.022 100.665 274.92 100.6Z" fill="#263238"/>
<path d="M256.53 98.5164C256.53 98.7361 256.33 98.9069 256.18 98.8825C256.03 98.8581 255.92 98.6791 255.96 98.4594C256 98.2397 256.15 98.0689 256.31 98.0933C256.47 98.1177 256.56 98.2967 256.53 98.5164Z" fill="#FFBA08"/>
<path d="M257.92 98.671C257.92 98.8907 257.73 99.0616 257.57 99.0372C257.41 99.0128 257.32 98.8338 257.36 98.6141C257.4 98.3944 257.55 98.2235 257.7 98.2479C257.85 98.2723 258 98.4513 257.92 98.671Z" fill="#FFBA08"/>
<path d="M289.78 106.946C287.67 106.181 282.78 104.928 279.02 107.849C278.957 107.9 278.913 107.965 278.896 108.036C278.878 108.107 278.886 108.181 278.92 108.248C279.18 108.768 279.56 110.209 277.12 112.015C276.812 111.837 276.476 111.695 276.12 111.592C276.12 111.535 276.12 111.47 276.19 111.397C276.39 110.908 276.75 110.583 276.3 110.225C276.005 110.241 275.722 110.326 275.486 110.47C275.25 110.615 275.07 110.812 274.97 111.039C274.926 111.143 274.903 111.253 274.9 111.364C274.645 111.364 274.398 111.436 274.2 111.567C274.137 111.53 274.07 111.498 274 111.47C273.715 111.393 273.409 111.386 273.119 111.449C272.829 111.513 272.569 111.645 272.37 111.828C272.42 112.316 273 112.3 273.6 112.462H273.65C273.51 112.787 273.429 113.127 273.41 113.471C270.25 113.935 269.08 112.845 268.73 112.365C268.684 112.304 268.617 112.255 268.537 112.224C268.457 112.194 268.367 112.183 268.28 112.194C263.14 112.885 261.44 116.807 260.92 118.646C260.898 118.718 260.903 118.793 260.936 118.862C260.969 118.931 261.027 118.99 261.103 119.031C261.178 119.072 261.268 119.093 261.358 119.091C261.449 119.089 261.537 119.065 261.61 119.02C263.48 117.971 264.61 118.288 265.15 118.54C265.236 118.587 265.34 118.608 265.443 118.597C265.546 118.587 265.641 118.546 265.71 118.483C267.99 116.49 270.18 117.214 270.89 117.54C270.962 117.579 271.048 117.6 271.135 117.6C271.222 117.6 271.308 117.579 271.38 117.54C272.342 116.832 273.538 116.371 274.82 116.213C275.241 116.526 275.735 116.766 276.273 116.92C276.811 117.074 277.381 117.138 277.95 117.108C278.312 116.762 278.587 116.361 278.759 115.928C278.93 115.495 278.995 115.039 278.95 114.586C279.872 113.787 281.085 113.251 282.41 113.056C282.494 113.04 282.571 113.003 282.63 112.951C282.688 112.898 282.727 112.833 282.74 112.763C282.85 112.104 283.45 110.241 286.74 109.964C286.844 109.955 286.941 109.917 287.014 109.856C287.087 109.795 287.131 109.716 287.14 109.631C287.19 109.151 287.58 108.199 289.73 107.613C289.815 107.591 289.89 107.549 289.944 107.492C289.999 107.435 290.031 107.366 290.037 107.293C290.042 107.221 290.021 107.149 289.975 107.087C289.929 107.025 289.861 106.976 289.78 106.946Z" fill="#263238"/>
<path d="M274.8 112.991C274.91 113.17 274.89 113.357 274.8 113.406C274.71 113.455 274.49 113.357 274.38 113.178C274.27 112.999 274.28 112.812 274.38 112.763C274.48 112.715 274.69 112.812 274.8 112.991Z" fill="#FFBA08"/>
<path d="M275.93 112.527C276.04 112.706 276.03 112.894 275.93 112.951C275.83 113.008 275.61 112.894 275.5 112.715C275.39 112.536 275.4 112.348 275.5 112.3C275.6 112.251 275.82 112.348 275.93 112.527Z" fill="#FFBA08"/>
<path d="M233 103.171C231.65 100.925 228 96.2708 221.1 96.6613C220.984 96.667 220.874 96.7012 220.783 96.7593C220.691 96.8175 220.624 96.8968 220.59 96.9868C220.31 97.7028 219.18 99.4277 214.82 99.5742C214.693 99.1909 214.509 98.822 214.27 98.4758L214.54 98.3293C215.26 97.9713 216.01 97.8493 215.89 97.2146C215.567 97.023 215.181 96.9144 214.782 96.9028C214.383 96.8912 213.989 96.9771 213.65 97.1495C213.493 97.2234 213.351 97.3167 213.23 97.4262C212.974 97.2473 212.647 97.1492 212.31 97.1495C212.268 97.0468 212.211 96.9485 212.14 96.8566C211.936 96.5833 211.637 96.3651 211.282 96.229C210.926 96.093 210.529 96.0453 210.14 96.0918C209.68 96.6125 210.29 96.9949 210.73 97.5808V97.6296C210.247 97.8638 209.809 98.1544 209.43 98.492C205.73 96.7752 205.68 94.855 205.83 94.1227C205.849 94.029 205.833 93.9327 205.783 93.8469C205.733 93.761 205.651 93.6897 205.55 93.6427C199.55 90.7868 193.76 93.602 191.31 95.1073C191.233 95.1691 191.179 95.2468 191.153 95.3321C191.126 95.4173 191.129 95.5067 191.161 95.5907C191.193 95.6746 191.253 95.7498 191.334 95.808C191.415 95.8662 191.514 95.9053 191.62 95.9209C194.62 96.1487 195.48 97.2797 195.72 97.8899C195.761 97.9958 195.847 98.0865 195.962 98.1461C196.077 98.2056 196.215 98.2302 196.35 98.2154C200.76 97.7679 202.23 100.022 202.62 100.852C202.663 100.94 202.738 101.015 202.834 101.069C202.93 101.122 203.044 101.151 203.16 101.153C204.864 101.104 206.548 101.466 208 102.194C208.105 102.805 208.359 103.392 208.747 103.922C209.135 104.451 209.649 104.913 210.26 105.278C211.736 105.072 213.052 104.399 213.92 103.406C214.92 103.244 216.56 103.293 219.04 104.22C219.144 104.261 219.26 104.276 219.374 104.263C219.488 104.25 219.594 104.209 219.68 104.147C220.49 103.553 223.04 102.08 226.68 104.098C226.794 104.161 226.931 104.19 227.068 104.18C227.205 104.169 227.333 104.12 227.43 104.041C227.98 103.585 229.37 102.886 232.18 103.781C232.287 103.833 232.412 103.855 232.536 103.845C232.66 103.835 232.777 103.793 232.869 103.724C232.961 103.655 233.024 103.565 233.047 103.465C233.071 103.365 233.054 103.262 233 103.171Z" fill="#263238"/>
<path d="M211.38 98.9314C211.3 99.1917 211.09 99.3707 210.91 99.3382C210.73 99.3056 210.64 99.0615 210.72 98.8093C210.8 98.5571 211 98.3699 211.18 98.4025C211.36 98.435 211.45 98.6791 211.38 98.9314Z" fill="#FFBA08"/>
<path d="M213 99.2651C212.93 99.5255 212.72 99.7045 212.53 99.6719C212.34 99.6394 212.26 99.3953 212.34 99.143C212.42 98.8908 212.63 98.7037 212.81 98.7362C212.99 98.7688 213.09 98.9966 213 99.2651Z" fill="#FFBA08"/>
<path d="M275.38 125.985C274.14 125.538 271.29 124.814 269.09 126.514C269.054 126.545 269.029 126.583 269.018 126.625C269.008 126.667 269.012 126.71 269.03 126.75C269.19 127.051 269.4 127.897 268.03 128.947C267.86 128.842 267.671 128.759 267.47 128.703C267.466 128.665 267.466 128.627 267.47 128.589C267.58 128.304 267.8 128.093 267.53 127.905C267.355 127.915 267.188 127.967 267.049 128.054C266.911 128.141 266.807 128.259 266.75 128.394C266.746 128.456 266.746 128.518 266.75 128.581C266.604 128.587 266.464 128.629 266.35 128.703L266.18 128.646C266.014 128.599 265.834 128.594 265.665 128.632C265.495 128.669 265.344 128.748 265.23 128.857C265.23 129.134 265.6 129.126 265.95 129.224C265.863 129.414 265.816 129.615 265.81 129.817C263.96 130.086 263.28 129.443 263.07 129.167C263.044 129.131 263.005 129.102 262.959 129.084C262.912 129.067 262.86 129.062 262.81 129.069C259.81 129.476 258.81 131.762 258.51 132.836C258.502 132.878 258.509 132.92 258.53 132.959C258.551 132.997 258.585 133.03 258.628 133.053C258.672 133.076 258.722 133.089 258.774 133.089C258.825 133.09 258.876 133.078 258.92 133.056C260.01 132.437 260.69 132.625 260.99 132.779C261.036 132.808 261.092 132.824 261.15 132.824C261.208 132.824 261.264 132.808 261.31 132.779C261.647 132.412 262.135 132.154 262.685 132.053C263.235 131.951 263.811 132.013 264.31 132.226C264.351 132.25 264.4 132.263 264.45 132.263C264.5 132.263 264.549 132.25 264.59 132.226C265.145 131.81 265.843 131.54 266.59 131.453C266.667 131.582 266.774 131.698 266.906 131.793C267.038 131.889 267.191 131.962 267.358 132.01C267.525 132.057 267.701 132.077 267.877 132.069C268.054 132.06 268.226 132.024 268.385 131.961C268.544 131.899 268.686 131.812 268.803 131.704C268.921 131.597 269.011 131.472 269.069 131.337C269.127 131.201 269.152 131.057 269.142 130.914C269.132 130.771 269.087 130.63 269.01 130.501C269.541 130.035 270.242 129.722 271.01 129.606C271.059 129.595 271.102 129.574 271.136 129.543C271.17 129.513 271.192 129.475 271.2 129.435C271.285 128.977 271.57 128.56 272.004 128.261C272.438 127.962 272.991 127.801 273.56 127.808C273.62 127.802 273.676 127.78 273.718 127.744C273.76 127.708 273.786 127.662 273.79 127.613C273.79 127.336 274.05 126.799 275.31 126.433C275.383 126.44 275.457 126.424 275.515 126.387C275.573 126.351 275.611 126.297 275.62 126.237C275.629 126.178 275.609 126.118 275.564 126.071C275.519 126.024 275.453 125.993 275.38 125.985Z" fill="#263238"/>
<path d="M266.631 129.516C266.691 129.622 266.681 129.728 266.631 129.761C266.58 129.793 266.44 129.761 266.38 129.63C266.32 129.5 266.32 129.411 266.38 129.386C266.44 129.362 266.56 129.411 266.631 129.516Z" fill="#FFBA08"/>
<path d="M267.291 129.248C267.351 129.354 267.291 129.459 267.291 129.492C267.291 129.525 267.1 129.492 267.04 129.362C266.98 129.232 266.98 129.142 267.04 129.118C267.1 129.093 267.22 129.142 267.291 129.248Z" fill="#FFBA08"/>
<path d="M245.91 208.636L230.87 203.802L234.14 168.759L252.1 176.854L245.91 208.636Z" fill="#FFBA08"/>
<path d="M243.76 207.944L249.53 175.699L252.1 176.854L245.91 208.635L243.76 207.944Z" fill="#FFBA08"/>
<path d="M239.47 206.561L244.4 173.38L246.97 174.536L241.62 207.252L239.47 206.561Z" fill="#FFBA08"/>
<path d="M235.17 205.186L239.27 171.069L241.84 172.225L237.32 205.877L235.17 205.186Z" fill="#FFBA08"/>
<path d="M230.87 203.802L234.14 168.759L236.71 169.914L233.02 204.494L230.87 203.802Z" fill="#FFBA08"/>
<g opacity="0.6">
<path opacity="0.6" d="M243.76 207.944L249.53 175.699L252.1 176.854L245.91 208.636L243.76 207.944Z" fill="white"/>
<path opacity="0.6" d="M239.47 206.561L244.4 173.38L246.97 174.536L241.62 207.252L239.47 206.561Z" fill="white"/>
<path opacity="0.6" d="M235.17 205.186L239.27 171.069L241.84 172.225L237.32 205.877L235.17 205.186Z" fill="white"/>
<path opacity="0.6" d="M230.87 203.802L234.14 168.759L236.71 169.914L233.02 204.494L230.87 203.802Z" fill="white"/>
</g>
<path d="M262.05 207.822L245.91 208.636L252.1 176.854L272.25 173.665L262.05 207.822Z" fill="#FFBA08"/>
<path opacity="0.4" d="M262.05 207.822L245.91 208.636L252.1 176.854L272.25 173.665L262.05 207.822Z" fill="white"/>
<path d="M272.25 173.665L254.29 165.577L234.14 168.759L252.1 176.855L272.25 173.665Z" fill="#FFBA08"/>
<path opacity="0.3" d="M272.25 173.665L254.29 165.577L234.14 168.759L252.1 176.855L272.25 173.665Z" fill="white"/>
<path d="M248.22 208.514L254.98 176.399L252.1 176.855L245.91 208.636L248.22 208.514Z" fill="#FFBA08"/>
<path d="M252.83 208.286L260.74 175.488L257.86 175.943L250.52 208.4L252.83 208.286Z" fill="#FFBA08"/>
<path d="M257.44 208.058L266.49 174.576L263.61 175.032L255.13 208.172L257.44 208.058Z" fill="#FFBA08"/>
<path d="M262.05 207.822L272.25 173.665L269.37 174.121L259.75 207.936L262.05 207.822Z" fill="#FFBA08"/>
<path d="M262.73 172.583H262.59C262.675 172.443 262.723 172.291 262.73 172.135C262.73 171.322 261.56 170.679 260.13 170.679C259.653 170.652 259.176 170.727 258.746 170.897C258.316 171.066 257.948 171.325 257.68 171.647C257.224 171.482 256.729 171.398 256.23 171.403C254.79 171.403 253.63 172.054 253.63 172.851C253.63 173.649 254.79 174.308 256.23 174.308C256.23 174.308 256.23 174.356 256.23 174.389C256.23 174.95 257.04 175.398 258.04 175.398C259.04 175.398 259.85 174.95 259.85 174.389C259.842 174.224 259.772 174.065 259.65 173.933C259.83 173.856 259.973 173.733 260.06 173.584H260.13C260.4 173.582 260.668 173.554 260.93 173.502C260.93 173.502 260.93 173.551 260.93 173.584C260.93 174.137 261.74 174.592 262.74 174.592C263.74 174.592 264.55 174.137 264.55 173.584C264.55 173.03 263.73 172.583 262.73 172.583Z" fill="white"/>
<path d="M262.59 164.853C261.59 164.853 260.75 165.317 260.75 165.895C260.75 165.935 260.75 165.976 260.75 166.009C260.095 165.864 259.405 165.864 258.75 166.009C258.75 166.009 258.75 165.935 258.75 165.895C258.75 165.317 257.93 164.853 256.91 164.853C255.89 164.853 255.08 165.317 255.08 165.895C255.08 166.472 255.9 166.944 256.91 166.944H257.11C256.986 167.123 256.917 167.324 256.91 167.53C256.91 168.27 257.79 168.889 258.98 169.084C258.948 169.157 258.931 169.234 258.93 169.312C258.93 169.89 259.75 170.353 260.76 170.353C261.77 170.353 262.6 169.89 262.6 169.312C262.592 169.143 262.53 168.979 262.419 168.836C262.309 168.693 262.154 168.577 261.97 168.498C262.158 168.379 262.312 168.227 262.421 168.055C262.53 167.882 262.591 167.692 262.6 167.498C262.593 167.292 262.524 167.091 262.4 166.912H262.6C263.6 166.912 264.43 166.44 264.43 165.862C264.43 165.284 263.6 164.853 262.59 164.853Z" fill="white"/>
<path d="M255.13 168.628C255.398 168.412 255.559 168.122 255.58 167.815C255.58 166.904 254.12 166.188 252.32 166.188C250.52 166.188 249.07 166.92 249.07 167.815C249.07 167.815 249.07 167.888 249.07 167.929C248.687 167.852 248.294 167.814 247.9 167.815C246.11 167.815 244.65 168.547 244.65 169.442C244.65 170.337 246.11 171.069 247.9 171.069C248.633 171.076 249.356 170.94 250.01 170.671C250.642 171.119 251.462 171.352 252.3 171.322C253.8 171.322 255.01 170.711 255.01 169.955C255.75 169.955 256.36 169.654 256.36 169.279C256.36 168.905 255.82 168.653 255.13 168.628Z" fill="white"/>
<path d="M235.88 167.473C235.73 167.28 235.676 167.047 235.73 166.822C235.93 166.171 237.13 165.854 238.41 166.106C239.69 166.358 240.58 167.091 240.41 167.733C240.408 167.761 240.408 167.788 240.41 167.815C240.7 167.814 240.988 167.842 241.27 167.896C242.56 168.148 243.44 168.881 243.27 169.524C243.1 170.166 241.88 170.492 240.59 170.24C240.067 170.137 239.581 169.936 239.17 169.654C238.621 169.883 237.985 169.936 237.39 169.8C236.32 169.589 235.59 168.986 235.75 168.441C235.21 168.336 234.84 168.026 234.92 167.758C235 167.489 235.38 167.392 235.88 167.473Z" fill="white"/>
<path d="M265.6 172.144C265.479 172.274 265.425 172.437 265.45 172.599C265.55 173.071 266.38 173.356 267.32 173.234C268.26 173.112 268.95 172.632 268.86 172.16V172.103C269.069 172.123 269.281 172.123 269.49 172.103C270.43 171.981 271.12 171.501 271.02 171.029C270.92 170.557 270.09 170.264 269.15 170.386C268.768 170.434 268.405 170.554 268.09 170.736C267.711 170.545 267.257 170.478 266.82 170.549C266.04 170.655 265.47 171.053 265.55 171.452C265.16 171.501 264.87 171.704 264.91 171.899C264.95 172.095 265.24 172.176 265.6 172.144Z" fill="white"/>
<path d="M242.67 162.664C242.649 162.456 242.728 162.249 242.89 162.087C243.4 161.623 244.55 161.786 245.47 162.445C246.39 163.104 246.72 164.023 246.22 164.487L246.14 164.536C246.379 164.637 246.601 164.763 246.8 164.91C247.72 165.569 248.05 166.48 247.55 166.944C247.05 167.408 245.89 167.245 244.97 166.586C244.594 166.318 244.303 165.98 244.12 165.602C243.548 165.598 243 165.414 242.59 165.089C241.82 164.536 241.59 163.779 241.97 163.397C241.58 163.12 241.45 162.738 241.66 162.583C241.87 162.429 242.3 162.42 242.67 162.664Z" fill="white"/>
<path d="M246.15 173.307C245.986 173.143 245.907 172.932 245.93 172.721C246.02 172.111 247.08 171.712 248.3 171.826C249.52 171.94 250.43 172.542 250.3 173.161C250.304 173.185 250.304 173.21 250.3 173.234C250.569 173.21 250.841 173.21 251.11 173.234C252.33 173.356 253.24 173.95 253.11 174.56C252.98 175.17 251.96 175.577 250.74 175.463C250.243 175.417 249.766 175.275 249.35 175.048C248.877 175.313 248.296 175.418 247.73 175.341C246.73 175.235 245.96 174.747 246.03 174.235C245.53 174.186 245.15 173.934 245.19 173.681C245.23 173.429 245.68 173.307 246.15 173.307Z" fill="white"/>
<path d="M250.38 160.118C250.207 160.337 250.139 160.601 250.19 160.858C250.39 161.599 251.74 161.997 253.19 161.745C254.64 161.493 255.71 160.671 255.51 159.922C255.51 159.922 255.51 159.865 255.51 159.833C255.846 159.84 256.181 159.816 256.51 159.76C257.99 159.507 259.03 158.694 258.83 157.945C258.63 157.197 257.28 156.798 255.83 157.058C255.225 157.155 254.659 157.37 254.18 157.685C253.569 157.413 252.856 157.338 252.18 157.473C250.95 157.693 250.08 158.368 250.25 158.987C249.63 159.092 249.2 159.434 249.25 159.743C249.3 160.053 249.8 160.191 250.38 160.118Z" fill="white"/>
<path d="M187.1 229.286L169.67 228.879L169.48 234.168C177.84 249.83 199.96 272.067 199.96 272.067L209.54 265.428C209.54 265.428 195.78 243.72 187.1 229.286Z" fill="#FFBA08"/>
<path opacity="0.3" d="M187.1 229.286L169.67 228.879L169.48 234.168C177.84 249.83 199.96 272.067 199.96 272.067L209.54 265.428C209.54 265.428 195.78 243.72 187.1 229.286Z" fill="black"/>
<path d="M199.28 270.05L206.57 278.78L211.91 275.306L205.82 267.104L199.28 270.05Z" fill="#FFC3BD"/>
<path d="M213.31 274.752C213.277 274.77 213.239 274.779 213.2 274.779C213.161 274.779 213.123 274.77 213.09 274.752C213.06 274.732 213.038 274.705 213.027 274.675C213.016 274.644 213.017 274.612 213.03 274.582C213.03 274.476 214.03 272.027 215.29 271.53C215.516 271.437 215.777 271.417 216.02 271.473C216.164 271.498 216.295 271.558 216.395 271.645C216.496 271.732 216.56 271.843 216.58 271.962C216.58 272.393 215.98 273.052 215.25 273.589C214.649 274.025 213.999 274.414 213.31 274.752ZM213.59 274.272C214.8 273.581 216.28 272.49 216.2 271.986C216.2 271.921 216.2 271.823 215.9 271.758C215.828 271.736 215.75 271.729 215.674 271.736C215.598 271.743 215.524 271.764 215.46 271.799C215.351 271.841 215.249 271.895 215.16 271.962C214.461 272.644 213.928 273.428 213.59 274.272Z" fill="#FFBA08"/>
<path d="M213.22 274.802C213.188 274.804 213.156 274.801 213.126 274.791C213.096 274.781 213.07 274.765 213.05 274.745C212.99 274.679 211.73 273.272 211.92 272.23C211.946 272.08 212.008 271.935 212.105 271.805C212.201 271.675 212.329 271.562 212.48 271.474C212.9 271.221 213.19 271.295 213.35 271.409C214.07 271.856 213.8 273.923 213.35 274.663C213.356 274.679 213.356 274.696 213.35 274.712C213.339 274.735 213.322 274.754 213.299 274.77C213.276 274.786 213.249 274.796 213.22 274.802ZM212.63 271.75C212.451 271.878 212.334 272.054 212.3 272.247C212.318 272.979 212.612 273.688 213.14 274.281C213.48 273.402 213.51 271.913 213.14 271.612C213.09 271.612 212.99 271.523 212.72 271.685L212.65 271.75H212.63Z" fill="#FFBA08"/>
<path d="M212 274.525L205.59 279.203C205.473 279.29 205.395 279.406 205.37 279.533C205.344 279.66 205.373 279.791 205.45 279.903L208.97 284.996C209.121 285.212 209.37 285.371 209.663 285.439C209.957 285.508 210.271 285.48 210.54 285.363C210.613 285.329 210.68 285.288 210.74 285.241C213.01 283.524 214.95 281.921 217.83 279.822C221.23 277.34 220.73 278.3 224.78 275.428C227.21 273.695 225.19 271.156 224.05 271.791C218.86 274.72 217.11 273.931 213.81 273.882C213.129 273.905 212.484 274.134 212 274.525Z" fill="#263238"/>
<path opacity="0.1" d="M200.43 271.433L203.16 274.704L209.09 271.514L207.07 268.797L200.43 271.433Z" fill="black"/>
<path d="M195.59 271.465L199.21 275.013L212.06 268.211L209.57 263.866L195.59 271.465Z" fill="#FFBA08"/>
<path d="M88.78 224.396C88.78 224.396 133.54 219.514 143.64 217.773C159.01 215.104 199.32 211.06 206.92 224.201C214.52 237.341 233.12 266.681 233.12 266.681L223.54 273.321C223.54 273.321 200.12 249.79 192.37 234.087C192.12 233.566 191.19 232.085 191.19 232.085C191.19 232.085 113.08 251.873 99.57 241.116C93.9402 236.582 90.1714 230.741 88.78 224.396Z" fill="#FFBA08"/>
<path opacity="0.2" d="M88.78 224.396C88.78 224.396 133.54 219.514 143.64 217.773C159.01 215.104 199.32 211.06 206.92 224.201C214.52 237.341 233.12 266.681 233.12 266.681L223.54 273.321C223.54 273.321 200.12 249.79 192.37 234.087C192.12 233.566 191.19 232.085 191.19 232.085C191.19 232.085 113.08 251.873 99.57 241.116C93.9402 236.582 90.1714 230.741 88.78 224.396Z" fill="black"/>
<path d="M224.09 271.181L231.97 279.561L237.06 275.851L230.42 267.942L224.09 271.181Z" fill="#FFC3BD"/>
<path d="M238.42 275.233C238.39 275.252 238.353 275.262 238.315 275.262C238.277 275.262 238.24 275.252 238.21 275.233C238.177 275.216 238.151 275.192 238.137 275.162C238.122 275.133 238.12 275.101 238.13 275.07C238.13 274.964 238.99 272.466 240.18 271.921C240.4 271.817 240.662 271.785 240.91 271.832C241.053 271.849 241.186 271.902 241.29 271.983C241.394 272.065 241.464 272.172 241.49 272.287C241.56 272.719 240.97 273.402 240.28 273.972C239.709 274.438 239.086 274.86 238.42 275.233ZM238.67 274.745C239.83 273.996 241.23 272.841 241.12 272.304C241.12 272.239 241.07 272.149 240.81 272.092C240.734 272.074 240.654 272.071 240.576 272.082C240.498 272.094 240.424 272.119 240.36 272.157C240.256 272.205 240.162 272.265 240.08 272.336C239.423 273.057 238.944 273.875 238.67 274.745Z" fill="#FFBA08"/>
<path d="M238.34 275.289C238.307 275.293 238.274 275.291 238.243 275.283C238.212 275.274 238.183 275.26 238.16 275.241C238.1 275.176 236.74 273.833 236.86 272.8C236.874 272.643 236.927 272.491 237.014 272.351C237.102 272.211 237.223 272.087 237.37 271.986C237.77 271.718 238.07 271.775 238.24 271.888C238.98 272.295 238.86 274.378 238.49 275.143C238.486 275.153 238.48 275.163 238.471 275.172C238.462 275.18 238.452 275.187 238.44 275.192C238.422 275.233 238.387 275.268 238.34 275.289ZM237.54 272.271C237.368 272.403 237.264 272.583 237.25 272.775C237.319 273.508 237.669 274.205 238.25 274.769C238.53 273.874 238.46 272.385 238.05 272.108C238 272.108 237.89 272.027 237.63 272.206L237.57 272.271H237.54Z" fill="#FFBA08"/>
<path d="M237.07 275.07L230.99 280.033C230.878 280.123 230.807 280.242 230.791 280.37C230.774 280.498 230.813 280.626 230.9 280.733L234.77 285.655C234.851 285.76 234.956 285.85 235.079 285.922C235.203 285.993 235.342 286.044 235.49 286.071C235.638 286.098 235.791 286.101 235.94 286.08C236.089 286.059 236.232 286.014 236.36 285.948C236.43 285.915 236.494 285.874 236.55 285.826C238.7 284.004 240.55 282.311 243.26 280.09C246.48 277.454 246.05 278.463 249.89 275.387C252.2 273.548 250.01 271.099 248.89 271.783C243.89 274.948 242.1 274.224 238.8 274.346C238.134 274.408 237.519 274.665 237.07 275.07Z" fill="#263238"/>
<path opacity="0.1" d="M225.34 272.507L228.29 275.64L233.99 272.198L231.79 269.57L225.34 272.507Z" fill="black"/>
<path d="M220.51 272.759L224.36 276.136L236.73 268.764L233.94 264.533L220.51 272.759Z" fill="#FFBA08"/>
<path d="M112.82 142.567C113.06 143.072 112.94 143.585 112.54 143.715C112.14 143.845 111.54 143.528 111.35 143.039C111.16 142.551 111.23 142.022 111.63 141.892C112.03 141.762 112.57 142.071 112.82 142.567Z" fill="#263238"/>
<path d="M89.38 167.79C89.38 167.79 86.09 157.034 82.53 149.011C78.97 140.989 69.89 131.111 66.84 125.171C65.97 123.487 68.51 122.796 62.8401 119.476C61.0601 118.41 63.84 116.099 57.2801 114.667C50.7201 113.235 51.7501 118.931 53.1001 120.859C54.7401 123.186 60.0401 125.741 61.8901 128.003C63.7401 130.265 72 151.021 72 151.021L81.22 170.622L89.38 167.79Z" fill="#FF8B7B"/>
<path d="M90.17 164.259C92.17 168.165 98.54 178.815 90.17 181.126C81.8 183.437 79.17 170.199 77.54 165.773C76.11 161.908 72.26 155.317 70.33 150.712C68.4 146.107 64.04 135.48 64.04 135.48C64.04 135.48 69.85 131.599 73.81 132.641C73.81 132.641 79.51 141.721 81.91 146.188C84.31 150.655 87.94 159.792 90.17 164.259Z" fill="#FFBA08"/>
<path d="M63.16 134.944L64.29 137.572C65.6617 136.372 67.3389 135.431 69.2045 134.814C71.07 134.197 73.0787 133.919 75.09 134L73.94 132.031C73.94 132.031 70.47 130.135 63.16 134.944Z" fill="#FFBA08"/>
<path opacity="0.8" d="M63.16 134.944L64.29 137.572C65.6617 136.372 67.3389 135.431 69.2045 134.814C71.07 134.197 73.0787 133.919 75.09 134L73.94 132.031C73.94 132.031 70.47 130.135 63.16 134.944Z" fill="white"/>
<path opacity="0.1" d="M90.21 181.126C93.87 180.117 94.68 177.489 94.28 174.536C86.75 176.871 82.34 174.959 80.14 173.274C82.05 178.002 85 182.566 90.21 181.126Z" fill="black"/>
<path d="M111.45 144.512L116.19 146.896C115.729 147.342 115.146 147.693 114.488 147.922C113.83 148.151 113.114 148.251 112.4 148.214L111.45 144.512Z" fill="#BA4D3C"/>
<path d="M94.61 168.327C94.61 168.327 99.9 166.578 96.9 158.442C96.9 158.442 101.27 155.374 105.39 157.018C109.51 158.661 105.32 165.764 110.21 167.172C115.1 168.58 94.61 168.327 94.61 168.327Z" fill="#FF8B7B"/>
<path opacity="0.2" d="M107.29 159.548L103.56 160.5C103.56 160.5 105.2 162.892 107.56 163.397C107.47 162.111 107.53 160.736 107.29 159.548Z" fill="black"/>
<path d="M87.87 148.23C90.75 155.049 91.78 157.994 97.3 160.582C105.59 164.479 115.3 160.118 114.95 152.738C114.67 146.091 110.03 136.083 100.73 135.163C98.6843 134.961 96.6091 135.188 94.7012 135.821C92.7932 136.455 91.1157 137.474 89.8277 138.783C88.5397 140.092 87.6838 141.647 87.3412 143.3C86.9986 144.953 87.1806 146.65 87.87 148.23Z" fill="#FF8B7B"/>
<path d="M86.78 151.379C86.78 151.379 83.23 148.409 80.36 153.511C80.36 153.511 83.61 151.509 86.78 151.379Z" fill="#263238"/>
<path d="M110.31 137.718C110.261 137.742 110.219 137.776 110.188 137.815C110.157 137.855 110.137 137.899 110.13 137.946C110.109 138.3 109.986 138.645 109.771 138.953C109.555 139.262 109.254 139.524 108.89 139.72C108.81 139.756 108.752 139.817 108.728 139.889C108.703 139.961 108.715 140.037 108.76 140.102C108.805 140.167 108.88 140.214 108.968 140.234C109.056 140.254 109.15 140.244 109.23 140.208C109.697 139.972 110.087 139.647 110.366 139.262C110.645 138.876 110.804 138.441 110.83 137.995C110.836 137.92 110.806 137.846 110.746 137.788C110.686 137.73 110.602 137.694 110.51 137.685C110.441 137.684 110.373 137.695 110.31 137.718Z" fill="#263238"/>
<path d="M92.63 169.312L93.27 167.091C93.4057 166.619 93.7237 166.196 94.1773 165.882C94.631 165.569 95.1962 165.382 95.79 165.35C100.48 165.114 111.71 164.658 113.61 165.765C115.044 166.581 116.066 167.792 116.49 169.174L92.63 169.312Z" fill="#FFBA08"/>
<path opacity="0.8" d="M92.63 169.312L93.27 167.091C93.4057 166.619 93.7237 166.196 94.1773 165.882C94.631 165.569 95.1962 165.382 95.79 165.35C100.48 165.114 111.71 164.658 113.61 165.765C115.044 166.581 116.066 167.792 116.49 169.174L92.63 169.312Z" fill="white"/>
<path d="M133.2 193.111C134.2 188.848 132.63 184.836 130.76 181.297C129.96 179.767 129.65 178.254 128.98 177.058C122.25 165.105 108.38 167.563 95.06 168.108C81.74 168.653 81.74 174.064 85.22 187.505C88.7 200.947 87.48 225.161 87.48 225.161L134.48 222.232C134.48 222.232 129.92 207.48 133.2 193.111Z" fill="#FFBA08"/>
<path opacity="0.1" d="M130.6 180.947C129.92 179.539 129.6 178.156 128.98 177.058C127.827 174.893 126.123 172.952 123.98 171.362L118.89 178.612C118.89 178.612 121.14 182.037 130.6 180.947Z" fill="black"/>
<path d="M79 141.078C79 141.078 60.25 155.822 77.12 158.767C93.99 161.712 79 141.078 79 141.078Z" fill="#263238"/>
<path d="M107.84 148.588C107.84 148.588 112.73 143.112 107.84 139.345C107.84 139.345 114.6 132.836 106.48 129.256C98.36 125.676 86 129.679 78.85 140.761C71.39 152.388 70.13 167.375 89.97 166.285C109.81 165.195 108.2 157.172 105.59 151.501C105.59 151.517 107.2 151.127 107.84 148.588Z" fill="#263238"/>
<path d="M105.59 145.863C106.396 146.181 107.116 146.626 107.71 147.172C108.304 147.718 108.759 148.354 109.05 149.044C109.81 150.899 107.8 151.941 105.59 151.485C103.59 151.111 100.8 149.687 101 147.775C101.054 147.361 101.234 146.964 101.524 146.621C101.813 146.277 102.204 145.998 102.659 145.808C103.115 145.619 103.621 145.524 104.133 145.534C104.645 145.543 105.146 145.656 105.59 145.863Z" fill="#FF8B7B"/>
<path d="M108.1 130.127C108.1 130.127 112.45 132.087 111.23 137.783C111.23 137.783 110.92 131.9 108.1 130.127Z" fill="#263238"/>
<path d="M103 151.143C103 151.143 108.68 151.566 111.81 155.212C114.94 158.857 107.94 163.918 101.2 161.721C94.46 159.524 103 151.143 103 151.143Z" fill="#263238"/>
<path d="M108.1 152.291C108.102 152.52 108.02 152.744 107.865 152.936C107.71 153.127 107.488 153.276 107.228 153.365C106.968 153.453 106.682 153.477 106.405 153.432C106.129 153.388 105.875 153.278 105.676 153.116C105.477 152.954 105.341 152.747 105.287 152.522C105.232 152.297 105.261 152.064 105.37 151.853C105.479 151.641 105.662 151.461 105.897 151.335C106.132 151.208 106.408 151.142 106.69 151.143C107.064 151.143 107.423 151.264 107.687 151.479C107.951 151.695 108.1 151.986 108.1 152.291Z" fill="#FFBA08"/>
<path d="M120.41 167.489C120.41 167.489 120.15 154.325 120.28 150.793C120.41 147.262 117.87 131.266 116.17 126.538C114.47 121.811 110.71 119.085 109.68 117.003C108.65 114.92 108.58 112.047 109.32 111.095C110.06 110.143 118.54 110.388 120.12 112.609C121.7 114.83 121.12 118.532 121.24 120.168C121.558 121.969 122.002 123.753 122.57 125.513C122.57 125.513 129.72 143.747 130.27 149.923C130.82 156.098 128.71 169.865 128.71 169.865L120.41 167.489Z" fill="#FF8B7B"/>
<path d="M130.44 166.35C130.2 170.264 130.44 181.444 122.2 180.524C113.96 179.605 119 163.291 119 163.291C119 163.291 119.38 150.175 119.13 148.401C118.88 146.628 116.38 131.054 116.38 131.054C116.38 131.054 121.38 129.329 126.01 131.054C126.01 131.054 131.26 144.976 131.51 149.964C131.76 154.951 130.68 162.25 130.44 166.35Z" fill="#FFBA08"/>
<path d="M115 129.37L115.57 132.12C115.57 132.12 122.31 130.949 127.37 132.12L126.68 129.37C122.87 128.441 118.81 128.441 115 129.37Z" fill="#FFBA08"/>
<path opacity="0.8" d="M115 129.37L115.57 132.12C115.57 132.12 122.31 130.949 127.37 132.12L126.68 129.37C122.87 128.441 118.81 128.441 115 129.37Z" fill="white"/>
<path d="M113.92 150.403C113.92 150.403 110.66 151.046 111.92 153.373C112.15 153.836 112.85 154.504 114.34 153.6C114.149 153.132 114.034 152.645 114 152.152C114 151.339 113.92 150.403 113.92 150.403Z" fill="#263238"/>
<path d="M111.68 151.924C112.383 151.756 113.056 151.513 113.68 151.2L113.56 150.5C113.134 150.606 112.743 150.788 112.417 151.035C112.091 151.282 111.839 151.586 111.68 151.924Z" fill="white"/>
<path d="M111.8 153.218C111.817 153.271 111.841 153.323 111.87 153.373C112.09 153.804 112.72 154.398 114.03 153.731C113.753 153.486 113.398 153.308 113.004 153.218C112.61 153.127 112.194 153.127 111.8 153.218Z" fill="#BA4D3C"/>
<path d="M114.18 153.657L113.89 153.275C113.36 153.482 112.816 153.664 112.26 153.82C112.63 154.089 113.24 154.186 114.18 153.657Z" fill="white"/>
<path d="M270.79 228.896H253.35V234.184C262.26 249.644 285.16 271.352 285.16 271.352L294.49 264.493C294.49 264.493 280 243.118 270.79 228.896Z" fill="#FFBA08"/>
<path opacity="0.6" d="M270.79 228.896H253.35V234.184C262.26 249.644 285.16 271.352 285.16 271.352L294.49 264.493C294.49 264.493 280 243.118 270.79 228.896Z" fill="black"/>
<path d="M284.41 269.358L292 277.909L297.21 274.313L290.84 266.258L284.41 269.358Z" fill="#FFC3BD"/>
<path d="M298.59 273.727C298.559 273.745 298.523 273.755 298.485 273.755C298.447 273.755 298.411 273.745 298.38 273.727C298.349 273.71 298.325 273.685 298.312 273.655C298.3 273.626 298.299 273.594 298.31 273.565C298.31 273.451 299.26 270.985 300.46 270.456C300.683 270.358 300.944 270.331 301.19 270.383C301.333 270.405 301.464 270.462 301.566 270.546C301.668 270.631 301.736 270.739 301.76 270.855C301.82 271.286 301.21 271.962 300.5 272.482C299.907 272.94 299.268 273.356 298.59 273.727ZM298.86 273.239C300.05 272.523 301.48 271.4 301.39 270.888C301.39 270.823 301.34 270.733 301.08 270.668C301.006 270.649 300.928 270.644 300.852 270.653C300.775 270.663 300.703 270.688 300.64 270.725C300.53 270.765 300.431 270.823 300.35 270.896C299.673 271.592 299.167 272.388 298.86 273.239Z" fill="#FFBA08"/>
<path d="M298.51 273.776C298.478 273.781 298.445 273.778 298.415 273.768C298.385 273.758 298.359 273.741 298.34 273.719C298.28 273.662 296.96 272.287 297.12 271.238C297.139 271.086 297.195 270.939 297.287 270.807C297.378 270.674 297.501 270.557 297.65 270.465C298.06 270.204 298.36 270.269 298.52 270.383C299.25 270.815 299.06 272.881 298.66 273.638C298.65 273.658 298.632 273.675 298.61 273.687C298.605 273.708 298.593 273.727 298.576 273.743C298.558 273.759 298.535 273.77 298.51 273.776ZM297.81 270.741C297.631 270.871 297.52 271.051 297.5 271.246C297.541 271.976 297.859 272.678 298.41 273.255C298.72 272.369 298.7 270.88 298.29 270.595C298.29 270.595 298.14 270.505 297.88 270.676L297.81 270.741Z" fill="#FFBA08"/>
<path d="M297.25 273.524L291 278.357C290.885 278.445 290.81 278.562 290.788 278.69C290.766 278.817 290.799 278.947 290.88 279.057L294.58 284.061C294.736 284.274 294.99 284.429 295.286 284.492C295.582 284.554 295.896 284.519 296.16 284.394C296.233 284.361 296.3 284.32 296.36 284.272C298.57 282.499 300.45 280.847 303.26 278.683C306.56 276.128 306.1 277.096 310.04 274.134C312.41 272.344 310.31 269.846 309.19 270.513C304.1 273.565 302.32 272.816 299.02 272.849C298.349 272.893 297.721 273.133 297.25 273.524Z" fill="#263238"/>
<path opacity="0.1" d="M285.6 270.709L288.45 273.906L294.27 270.587L292.15 267.91L285.6 270.709Z" fill="black"/>
<path d="M280.77 270.855L284.51 274.313L297.12 267.218L294.48 262.922L280.77 270.855Z" fill="#FFBA08"/>
<path d="M172.34 226.308C172.34 226.308 216.91 220.376 226.94 218.391C242.22 215.373 282.37 210.385 290.43 223.346C298.49 236.308 318.11 265.192 318.11 265.192L308.78 272.051C308.78 272.051 284.53 249.074 276.23 233.566C275.96 233.053 274.98 231.589 274.98 231.589C274.98 231.589 197.6 253.199 183.71 242.76C177.927 238.36 173.956 232.614 172.34 226.308Z" fill="#FFBA08"/>
<path opacity="0.4" d="M172.34 226.308C172.34 226.308 216.91 220.376 226.94 218.391C242.22 215.373 282.37 210.385 290.43 223.346C298.49 236.308 318.11 265.192 318.11 265.192L308.78 272.051C308.78 272.051 284.53 249.074 276.23 233.566C275.96 233.053 274.98 231.589 274.98 231.589C274.98 231.589 197.6 253.199 183.71 242.76C177.927 238.36 173.956 232.614 172.34 226.308Z" fill="black"/>
<path d="M309.25 269.903L317.42 278.097L322.38 274.264L315.46 266.519L309.25 269.903Z" fill="#FFC3BD"/>
<path d="M323.71 273.622C323.679 273.639 323.643 273.649 323.605 273.649C323.567 273.649 323.531 273.639 323.5 273.622C323.467 273.605 323.441 273.58 323.427 273.551C323.412 273.522 323.41 273.489 323.42 273.459C323.42 273.353 324.19 270.847 325.36 270.261C325.575 270.153 325.832 270.115 326.08 270.155C326.224 270.171 326.359 270.222 326.467 270.302C326.574 270.382 326.648 270.487 326.68 270.603C326.77 271.026 326.2 271.734 325.53 272.312C324.974 272.793 324.365 273.231 323.71 273.622ZM323.95 273.125C325.08 272.352 326.44 271.164 326.31 270.684C326.31 270.619 326.26 270.53 325.99 270.481C325.915 270.464 325.836 270.462 325.759 270.475C325.683 270.488 325.611 270.515 325.55 270.554C325.446 270.605 325.351 270.668 325.27 270.741C324.667 271.464 324.236 272.273 324 273.125H323.95Z" fill="#FFBA08"/>
<path d="M323.64 273.67C323.608 273.679 323.575 273.679 323.543 273.672C323.511 273.665 323.482 273.65 323.46 273.63C323.39 273.565 321.99 272.255 322.07 271.189C322.075 271.033 322.121 270.88 322.203 270.74C322.286 270.6 322.404 270.476 322.55 270.375C322.94 270.098 323.24 270.147 323.41 270.253C324.17 270.652 324.12 272.694 323.78 273.508C323.787 273.526 323.787 273.546 323.78 273.565C323.777 273.593 323.762 273.62 323.736 273.64C323.71 273.66 323.675 273.67 323.64 273.67ZM322.72 270.676C322.559 270.816 322.463 270.997 322.45 271.189C322.546 271.917 322.912 272.604 323.5 273.158C323.75 272.255 323.62 270.774 323.2 270.505C323.2 270.505 323.04 270.424 322.79 270.611L322.72 270.676Z" fill="#FFBA08"/>
<path d="M322.36 273.483L316.46 278.593C316.352 278.686 316.287 278.806 316.274 278.933C316.261 279.06 316.302 279.187 316.39 279.293L320.39 284.126C320.475 284.228 320.583 284.316 320.709 284.384C320.835 284.452 320.977 284.499 321.126 284.522C321.274 284.546 321.427 284.545 321.576 284.52C321.724 284.496 321.865 284.447 321.99 284.378C322.058 284.342 322.121 284.301 322.18 284.256C324.27 282.385 326.03 280.652 328.68 278.357C331.81 275.656 331.41 276.64 335.14 273.475C337.39 271.579 335.14 269.179 334.04 269.895C329.17 273.15 327.35 272.507 324.04 272.686C323.381 272.779 322.784 273.062 322.36 273.483Z" fill="#263238"/>
<path opacity="0.1" d="M310.54 271.197L313.6 274.264L319.18 270.684L316.88 268.113L310.54 271.197Z" fill="black"/>
<path d="M305.72 271.563L309.7 274.85L321.8 267.186L318.86 263.028L305.72 271.563Z" fill="#FFBA08"/>
<path d="M195.47 143.739C195.71 144.244 195.59 144.764 195.18 144.894C194.77 145.025 194.18 144.707 193.99 144.211C193.8 143.715 193.87 143.194 194.28 143.064C194.69 142.934 195.22 143.243 195.47 143.739Z" fill="#263238"/>
<path d="M194.86 145.643L199.76 148.621C199.33 149.086 198.772 149.463 198.132 149.721C197.491 149.98 196.785 150.113 196.07 150.11L194.86 145.643Z" fill="#BA4D3C"/>
<path d="M177 169.499C177 169.499 182.29 167.758 179.29 159.613C179.29 159.613 183.66 156.554 187.78 158.189C191.9 159.825 187.71 166.936 192.6 168.352C197.49 169.768 177 169.499 177 169.499Z" fill="#FFC3BD"/>
<path opacity="0.1" d="M186 162.209C187.214 163.078 188.558 163.819 190 164.414C189.91 163.291 189.94 162.095 189.78 161.029L186 162.209Z" fill="black"/>
<path d="M170.52 149.402C173.4 156.221 174.43 159.166 179.94 161.753C187.75 163.901 197.94 161.298 197.6 153.91C197.32 147.27 192.68 137.263 183.37 136.335C181.324 136.132 179.249 136.358 177.341 136.992C175.433 137.625 173.756 138.645 172.468 139.954C171.181 141.263 170.326 142.819 169.985 144.472C169.644 146.126 169.828 147.823 170.52 149.402Z" fill="#FFC3BD"/>
<path d="M188.93 150.68C188.93 150.68 195.41 148.173 190.55 142.47C190.55 142.47 195.69 135.619 188.74 131.892C181.79 128.166 174.95 132.177 174.95 132.177L176.74 133.52C174.958 133.305 173.138 133.419 171.418 133.854C169.697 134.289 168.119 135.034 166.8 136.034L169.29 136.937C169.29 136.937 157.86 146.587 168.19 152.136C168.19 152.136 167.96 158.645 173.24 159.841C178.52 161.037 179.94 161.786 179.94 161.786C179.94 161.786 180.94 160.158 184.41 160.972L185.41 156.009C185.41 156.009 188.31 154.536 188.93 150.68Z" fill="#263238"/>
<path d="M169.13 151.786C169.13 151.786 165.31 150.883 165.78 155.244C166.521 153.88 167.673 152.691 169.13 151.786Z" fill="#263238"/>
<path d="M192.92 139.362C192.869 139.384 192.825 139.416 192.793 139.456C192.762 139.496 192.744 139.542 192.74 139.589C192.721 139.943 192.599 140.287 192.383 140.594C192.167 140.902 191.865 141.162 191.5 141.355C191.42 141.391 191.36 141.451 191.334 141.523C191.308 141.594 191.317 141.672 191.36 141.737C191.406 141.803 191.482 141.852 191.572 141.873C191.661 141.895 191.757 141.887 191.84 141.851C192.306 141.613 192.693 141.286 192.97 140.9C193.247 140.513 193.405 140.077 193.43 139.63C193.436 139.593 193.432 139.555 193.418 139.519C193.405 139.483 193.382 139.45 193.352 139.422C193.322 139.394 193.285 139.371 193.243 139.355C193.201 139.339 193.156 139.33 193.11 139.329C193.044 139.323 192.977 139.334 192.92 139.362Z" fill="#263238"/>
<path d="M188.24 147.034C189.046 147.353 189.766 147.798 190.36 148.344C190.954 148.89 191.409 149.526 191.7 150.216C192.46 152.071 190.45 153.112 188.24 152.657C186.24 152.274 183.45 150.85 183.65 148.938C183.705 148.525 183.887 148.129 184.177 147.787C184.467 147.445 184.858 147.166 185.313 146.977C185.768 146.789 186.274 146.695 186.785 146.705C187.296 146.715 187.796 146.828 188.24 147.034Z" fill="#FFC3BD"/>
<path d="M174.28 170.484L175.38 166.643C175.38 166.643 192.84 165.537 195.26 166.936C196.693 167.756 197.712 168.97 198.13 170.353L174.28 170.484Z" fill="#FFBA08"/>
<g opacity="0.8">
<path opacity="0.8" d="M174.28 170.484L175.38 166.643C175.38 166.643 192.84 165.537 195.26 166.936C196.693 167.756 197.712 168.97 198.13 170.353L174.28 170.484Z" fill="white"/>
</g>
<path d="M170.13 226.316C170.13 226.316 171.34 202.102 167.86 188.66C164.38 175.219 164.39 169.792 177.71 169.263C191.03 168.734 204.9 166.277 211.62 178.213C218.34 190.149 217.17 226.056 217.17 226.056L170.13 226.316Z" fill="#FFBA08"/>
<path d="M172.34 170.093C172.34 170.093 167.34 159.801 162.44 152.193C157.54 144.585 143.89 129.411 143.89 129.411C143.89 129.411 143.45 126.563 137.99 124.252C135.99 123.439 138.33 119.981 131.59 119.281C124.85 118.581 126.02 125.79 127.68 127.572C129.68 129.704 136.35 131.551 138.56 133.617C140.77 135.684 152.38 155.317 152.38 155.317L164.77 173.73L172.34 170.093Z" fill="#FFC3BD"/>
<path d="M159.63 169.662C159.63 169.662 162.79 164.349 172.57 166.741C172.57 166.741 184.02 180.768 175.7 184.039C167.38 187.31 159.63 169.662 159.63 169.662Z" fill="#FFBA08"/>
<path opacity="0.1" d="M211.62 178.23C211.47 177.961 211.31 177.701 211.15 177.416L204.06 182.77C204.06 182.77 210.6 187.489 214.16 185.048C213.617 182.707 212.765 180.421 211.62 178.23Z" fill="black"/>
<path d="M204.07 169.019C204.07 169.019 205.07 155.887 205.55 152.372C206.03 148.857 204.05 132.657 202.81 127.865C201.57 123.072 198.1 120.078 197.27 117.938C196.44 115.798 197.73 112.186 198.56 111.283C199.39 110.38 207.82 111.161 209.18 113.488C210.54 115.815 210.48 120.322 210.48 121.966C210.48 123.609 210.29 127.312 210.29 127.312C210.29 127.312 215.66 145.944 215.6 152.144C215.54 158.344 212.12 171.932 212.12 171.932L204.07 169.019Z" fill="#FFC3BD"/>
<path d="M201.24 165.512C201.24 165.512 207.18 162.258 214.04 168.287C214.04 168.287 215.18 184.877 206.09 184.283C197 183.689 201.24 165.512 201.24 165.512Z" fill="#FFBA08"/>
<path d="M197.31 152.787C197.31 152.787 193.13 152.836 193.81 155.936C193.95 156.546 194.56 157.514 196.69 156.749C196.619 156.121 196.66 155.488 196.81 154.87C197.06 153.901 197.31 152.787 197.31 152.787Z" fill="#263238"/>
<path d="M194.07 154.138C194.983 154.088 195.884 153.94 196.75 153.698L196.85 152.819C196.294 152.854 195.756 152.991 195.274 153.219C194.793 153.447 194.381 153.761 194.07 154.138Z" fill="white"/>
<path d="M193.78 155.732C193.785 155.8 193.785 155.868 193.78 155.936C193.91 156.505 194.47 157.376 196.29 156.855C196.04 156.498 195.673 156.204 195.23 156.006C194.787 155.807 194.285 155.713 193.78 155.732Z" fill="#BA4D3C"/>
<path d="M196.53 156.798L196.31 156.269C195.595 156.404 194.87 156.502 194.14 156.562C194.49 156.969 195.2 157.229 196.53 156.798Z" fill="white"/>
<path d="M77.91 216.821H63.52C61.8348 216.82 60.1658 217.089 58.6086 217.613C57.0514 218.137 55.6365 218.906 54.4449 219.876C53.2533 220.846 52.3083 221.997 51.664 223.264C51.0197 224.531 50.6887 225.889 50.69 227.26V288.544C50.6899 288.682 50.724 288.819 50.7905 288.946C50.8569 289.073 50.9542 289.188 51.0766 289.284C51.1989 289.379 51.3438 289.454 51.5025 289.503C51.6611 289.552 51.8304 289.575 52 289.569H78L77.91 216.821Z" fill="#FFBA08"/>
<path opacity="0.3" d="M77.91 216.821H63.52C61.8348 216.82 60.1658 217.089 58.6086 217.613C57.0514 218.137 55.6365 218.906 54.4449 219.876C53.2533 220.846 52.3083 221.997 51.664 223.264C51.0197 224.531 50.6887 225.889 50.69 227.26V288.544C50.6899 288.682 50.724 288.819 50.7905 288.946C50.8569 289.073 50.9542 289.188 51.0766 289.284C51.1989 289.379 51.3438 289.454 51.5025 289.503C51.6611 289.552 51.8304 289.575 52 289.569H78L77.91 216.821Z" fill="white"/>
<path d="M161 263.052H219L204 191.451C203.499 189.037 201.962 186.844 199.663 185.264C197.363 183.683 194.45 182.817 191.44 182.819H161V263.052Z" fill="#FFBA08"/>
<path opacity="0.4" d="M161 263.052H219L204 191.451C203.499 189.037 201.962 186.844 199.663 185.264C197.363 183.683 194.45 182.817 191.44 182.819H161V263.052Z" fill="white"/>
<path d="M80.36 216.821H107C110.578 216.829 114.005 217.993 116.531 220.055C119.056 222.117 120.473 224.91 120.47 227.821V288.503C120.47 288.79 120.33 289.065 120.08 289.268C119.831 289.471 119.493 289.585 119.14 289.585H68.14C67.7873 289.585 67.449 289.471 67.1996 289.268C66.9501 289.065 66.81 288.79 66.81 288.503V227.821C66.8087 226.374 67.1585 224.941 67.8393 223.605C68.5202 222.268 69.5187 221.054 70.7776 220.032C72.0365 219.01 73.531 218.2 75.1753 217.649C76.8197 217.098 78.5816 216.817 80.36 216.821Z" fill="#FFBA08"/>
<path opacity="0.5" d="M80.36 216.821H107C110.578 216.829 114.005 217.993 116.531 220.055C119.056 222.117 120.473 224.91 120.47 227.821V288.503C120.47 288.79 120.33 289.065 120.08 289.268C119.831 289.471 119.493 289.585 119.14 289.585H68.14C67.7873 289.585 67.449 289.471 67.1996 289.268C66.9501 289.065 66.81 288.79 66.81 288.503V227.821C66.8087 226.374 67.1585 224.941 67.8393 223.605C68.5202 222.268 69.5187 221.054 70.7776 220.032C72.0365 219.01 73.531 218.2 75.1753 217.649C76.8197 217.098 78.5816 216.817 80.36 216.821Z" fill="white"/>
<path d="M75.87 263.052H202.1L187.79 194.543C187.107 191.26 185.017 188.279 181.89 186.13C178.764 183.981 174.803 182.802 170.71 182.802H79.63C77.1079 182.803 74.6164 183.251 72.3292 184.116C70.042 184.981 68.0141 186.241 66.387 187.809C64.7599 189.377 63.5727 191.214 62.9083 193.194C62.2439 195.174 62.1182 197.247 62.54 199.27L75.87 263.052Z" fill="#FFBA08"/>
<path opacity="0.1" d="M75.87 263.052H202.1L187.79 194.543C187.107 191.26 185.017 188.279 181.89 186.13C178.764 183.981 174.803 182.802 170.71 182.802H79.63C77.1079 182.803 74.6164 183.251 72.3292 184.116C70.042 184.981 68.0141 186.241 66.387 187.809C64.7599 189.377 63.5727 191.214 62.9083 193.194C62.2439 195.174 62.1182 197.247 62.54 199.27L75.87 263.052Z" fill="white"/>
<path d="M71.74 242.296H202.13C202.679 242.296 203.205 242.474 203.594 242.79C203.982 243.105 204.2 243.534 204.2 243.98V285.094C204.2 285.541 203.982 285.969 203.594 286.285C203.205 286.601 202.679 286.778 202.13 286.778H73.81C73.261 286.778 72.7345 286.601 72.3463 286.285C71.9581 285.969 71.74 285.541 71.74 285.094V242.296Z" fill="#FFBA08"/>
<path d="M227.16 216.821H202C200.315 216.82 198.646 217.089 197.089 217.613C195.531 218.137 194.117 218.906 192.925 219.876C191.733 220.846 190.788 221.997 190.144 223.264C189.5 224.531 189.169 225.889 189.17 227.26V288.544C189.169 288.679 189.2 288.813 189.263 288.937C189.326 289.062 189.419 289.176 189.536 289.271C189.653 289.367 189.793 289.442 189.946 289.493C190.1 289.544 190.264 289.57 190.43 289.569H227.16V216.821Z" fill="#FFBA08"/>
<path opacity="0.3" d="M227.16 216.821H202C200.315 216.82 198.646 217.089 197.089 217.613C195.531 218.137 194.117 218.906 192.925 219.876C191.733 220.846 190.788 221.997 190.144 223.264C189.5 224.531 189.169 225.889 189.17 227.26V288.544C189.169 288.679 189.2 288.813 189.263 288.937C189.326 289.062 189.419 289.176 189.536 289.271C189.653 289.367 189.793 289.442 189.946 289.493C190.1 289.544 190.264 289.57 190.43 289.569H227.16V216.821Z" fill="white"/>
<path d="M218.84 216.821H280.45C282.228 216.817 283.99 217.098 285.635 217.649C287.279 218.2 288.774 219.01 290.032 220.032C291.291 221.054 292.29 222.268 292.971 223.605C293.652 224.941 294.001 226.374 294 227.821V288.503C294 288.79 293.86 289.065 293.61 289.268C293.361 289.471 293.023 289.585 292.67 289.585H206.67C206.317 289.585 205.979 289.471 205.73 289.268C205.48 289.065 205.34 288.79 205.34 288.503V227.821C205.339 226.378 205.687 224.948 206.365 223.614C207.042 222.28 208.036 221.068 209.29 220.046C210.544 219.025 212.032 218.214 213.671 217.661C215.309 217.107 217.066 216.822 218.84 216.821Z" fill="#FFBA08"/>
<path opacity="0.6" d="M218.84 216.821H280.45C282.228 216.817 283.99 217.098 285.635 217.649C287.279 218.2 288.774 219.01 290.032 220.032C291.291 221.054 292.29 222.268 292.971 223.605C293.652 224.941 294.001 226.374 294 227.821V288.503C294 288.79 293.86 289.065 293.61 289.268C293.361 289.471 293.023 289.585 292.67 289.585H206.67C206.317 289.585 205.979 289.471 205.73 289.268C205.48 289.065 205.34 288.79 205.34 288.503V227.821C205.339 226.378 205.687 224.948 206.365 223.614C207.042 222.28 208.036 221.068 209.29 220.046C210.544 219.025 212.032 218.214 213.671 217.661C215.309 217.107 217.066 216.822 218.84 216.821Z" fill="white"/>
<path d="M75.88 289.569C75.8814 289.9 75.8025 290.229 75.6479 290.535C75.4933 290.842 75.2661 291.12 74.9791 291.355C74.6922 291.59 74.3512 291.777 73.9756 291.905C73.6 292.032 73.1971 292.099 72.79 292.1H60.92C60.1013 292.098 59.3169 291.832 58.738 291.361C58.1591 290.89 57.8327 290.252 57.83 289.585H75.83L75.88 289.569Z" fill="#263238"/>
<path d="M114.7 289.569C114.697 290.235 114.371 290.874 113.792 291.345C113.213 291.816 112.429 292.081 111.61 292.083H99.74C98.9213 292.081 98.1369 291.816 97.558 291.345C96.9791 290.874 96.6527 290.235 96.65 289.569H114.65H114.7Z" fill="#263238"/>
<path d="M214.67 289.569C214.667 290.235 214.341 290.874 213.762 291.345C213.183 291.816 212.399 292.081 211.58 292.083H199.71C198.891 292.081 198.107 291.816 197.528 291.345C196.949 290.874 196.623 290.235 196.62 289.569H214.62H214.67Z" fill="#263238"/>
<path d="M288.49 289.569C288.491 289.9 288.412 290.229 288.258 290.535C288.103 290.842 287.876 291.12 287.589 291.355C287.302 291.59 286.961 291.777 286.586 291.905C286.21 292.032 285.807 292.099 285.4 292.1H273.53C272.711 292.098 271.927 291.832 271.348 291.361C270.769 290.89 270.443 290.252 270.44 289.585H288.49V289.569Z" fill="#263238"/>
</svg>
